Grenze-Bold.ufo
<glyph name="exclam" format="2">
  <advance width="324.0"/>
  <unicode hex="0021"/>
  <outline>
    <contour>
      <point x="127.0" y="191.0" type="curve" smooth="yes"/>
      <point x="145.0" y="191.0"/>
      <point x="191.0" y="199.0"/>
      <point x="222.0" y="204.0" type="curve"/>
      <point x="252.0" y="628.0" type="line" smooth="yes"/>
      <point x="252.0" y="634.0"/>
      <point x="227.0" y="658.0"/>
      <point x="220.0" y="658.0" type="curve" smooth="yes"/>
      <point x="201.0" y="658.0"/>
      <point x="126.0" y="644.0"/>
      <point x="72.0" y="634.0" type="curve"/>
      <point x="100.0" y="210.0" type="line" smooth="yes"/>
      <point x="100.0" y="205.0"/>
      <point x="121.0" y="191.0"/>
    </contour>
    <contour>
      <point x="115.0" y="-9.0" type="curve" smooth="yes"/>
      <point x="161.0" y="-9.0"/>
      <point x="199.0" y="-5.0"/>
      <point x="245.0" y="1.0" type="curve"/>
      <point x="236.0" y="128.0" type="line"/>
      <point x="90.0" y="128.0" type="line"/>
      <point x="80.0" y="26.0" type="line" smooth="yes"/>
      <point x="79.0" y="17.0"/>
      <point x="105.0" y="-9.0"/>
    </contour>
  </outline>
</glyph>
<glyph name="quotedbl" format="2">
  <advance width="401.0"/>
  <unicode hex="0022"/>
  <outline>
    <contour>
      <point x="45.0" y="481.0" type="line"/>
      <point x="154.0" y="482.0" type="line"/>
      <point x="165.0" y="540.0"/>
      <point x="175.0" y="606.0"/>
      <point x="182.0" y="665.0" type="curve" smooth="yes"/>
      <point x="183.0" y="670.0"/>
      <point x="158.0" y="697.0"/>
      <point x="147.0" y="697.0" type="curve" smooth="yes"/>
      <point x="105.0" y="697.0"/>
      <point x="66.0" y="691.0"/>
      <point x="25.0" y="683.0" type="curve"/>
    </contour>
    <contour>
      <point x="239.0" y="481.0" type="line"/>
      <point x="348.0" y="482.0" type="line"/>
      <point x="359.0" y="540.0"/>
      <point x="369.0" y="607.0"/>
      <point x="376.0" y="665.0" type="curve" smooth="yes"/>
      <point x="377.0" y="670.0"/>
      <point x="352.0" y="697.0"/>
      <point x="341.0" y="697.0" type="curve" smooth="yes"/>
      <point x="299.0" y="697.0"/>
      <point x="260.0" y="691.0"/>
      <point x="219.0" y="683.0" type="curve"/>
    </contour>
  </outline>
</glyph>
<glyph name="numbersign" format="2">
  <advance width="547.0"/>
  <unicode hex="0023"/>
  <outline>
    <contour>
      <point x="271.0" y="-31.0" type="line"/>
      <point x="374.0" y="-31.0" type="line"/>
      <point x="447.0" y="500.0" type="line"/>
      <point x="342.0" y="500.0" type="line"/>
    </contour>
    <contour>
      <point x="24.0" y="96.0" type="line"/>
      <point x="479.0" y="96.0" type="line"/>
      <point x="491.0" y="200.0" type="line"/>
      <point x="36.0" y="200.0" type="line"/>
    </contour>
    <contour>
      <point x="94.0" y="-31.0" type="line"/>
      <point x="198.0" y="-31.0" type="line"/>
      <point x="270.0" y="500.0" type="line"/>
      <point x="165.0" y="500.0" type="line"/>
    </contour>
    <contour>
      <point x="53.0" y="281.0" type="line"/>
      <point x="507.0" y="281.0" type="line"/>
      <point x="518.0" y="385.0" type="line"/>
      <point x="64.0" y="385.0" type="line"/>
    </contour>
  </outline>
</glyph>
<glyph name="dollar" format="2">
  <advance width="541.0"/>
  <unicode hex="0024"/>
  <outline>
    <contour>
      <point x="289.0" y="-13.0" type="curve" smooth="yes"/>
      <point x="336.0" y="-13.0"/>
      <point x="458.0" y="68.0"/>
      <point x="491.0" y="126.0" type="curve"/>
      <point x="493.0" y="139.0"/>
      <point x="496.0" y="161.0"/>
      <point x="496.0" y="179.0" type="curve" smooth="yes"/>
      <point x="496.0" y="264.0"/>
      <point x="388.0" y="310.0"/>
      <point x="310.0" y="355.0" type="curve" smooth="yes"/>
      <point x="267.0" y="381.0"/>
      <point x="234.0" y="406.0"/>
      <point x="234.0" y="437.0" type="curve" smooth="yes"/>
      <point x="234.0" y="455.0"/>
      <point x="241.0" y="477.0"/>
      <point x="248.0" y="477.0" type="curve" smooth="yes"/>
      <point x="270.0" y="477.0"/>
      <point x="335.0" y="464.0"/>
      <point x="368.0" y="458.0" type="curve"/>
      <point x="381.0" y="367.0" type="line"/>
      <point x="470.0" y="367.0" type="line"/>
      <point x="478.0" y="551.0" type="line"/>
      <point x="400.0" y="563.0"/>
      <point x="290.0" y="575.0"/>
      <point x="265.0" y="575.0" type="curve" smooth="yes"/>
      <point x="222.0" y="575.0"/>
      <point x="90.0" y="485.0"/>
      <point x="62.0" y="434.0" type="curve"/>
      <point x="59.0" y="416.0"/>
      <point x="58.0" y="401.0"/>
      <point x="58.0" y="386.0" type="curve" smooth="yes"/>
      <point x="58.0" y="301.0"/>
      <point x="139.0" y="252.0"/>
      <point x="210.0" y="212.0" type="curve" smooth="yes"/>
      <point x="265.0" y="181.0"/>
      <point x="314.0" y="156.0"/>
      <point x="314.0" y="125.0" type="curve" smooth="yes"/>
      <point x="314.0" y="108.0"/>
      <point x="301.0" y="86.0"/>
      <point x="299.0" y="86.0" type="curve" smooth="yes"/>
      <point x="284.0" y="86.0"/>
      <point x="224.0" y="94.0"/>
      <point x="173.0" y="103.0" type="curve"/>
      <point x="152.0" y="203.0" type="line"/>
      <point x="62.0" y="203.0" type="line"/>
      <point x="55.0" y="5.0" type="line"/>
      <point x="127.0" y="-1.0"/>
      <point x="227.0" y="-13.0"/>
    </contour>
    <contour>
      <point x="224.0" y="-122.0" type="line"/>
      <point x="332.0" y="-122.0" type="line"/>
      <point x="332.0" y="15.0" type="line"/>
      <point x="225.0" y="15.0" type="line"/>
    </contour>
    <contour>
      <point x="223.0" y="547.0" type="line"/>
      <point x="329.0" y="547.0" type="line"/>
      <point x="329.0" y="679.0" type="line"/>
      <point x="223.0" y="679.0" type="line"/>
    </contour>
  </outline>
</glyph>
<glyph name="percent" format="2">
  <advance width="864.0"/>
  <unicode hex="0025"/>
  <outline>
    <contour>
      <point x="236.0" y="-9.0" type="line"/>
      <point x="350.0" y="-9.0" type="line"/>
      <point x="631.0" y="611.0" type="line"/>
      <point x="517.0" y="611.0" type="line"/>
    </contour>
    <contour>
      <point x="229.0" y="288.0" type="curve" smooth="yes"/>
      <point x="330.0" y="288.0"/>
      <point x="384.0" y="358.0"/>
      <point x="384.0" y="458.0" type="curve" smooth="yes"/>
      <point x="384.0" y="561.0"/>
      <point x="341.0" y="613.0"/>
      <point x="233.0" y="613.0" type="curve" smooth="yes"/>
      <point x="128.0" y="613.0"/>
      <point x="76.0" y="547.0"/>
      <point x="76.0" y="449.0" type="curve" smooth="yes"/>
      <point x="76.0" y="343.0"/>
      <point x="118.0" y="288.0"/>
    </contour>
    <contour>
      <point x="230.0" y="365.0" type="curve" smooth="yes"/>
      <point x="193.0" y="365.0"/>
      <point x="180.0" y="397.0"/>
      <point x="180.0" y="451.0" type="curve" smooth="yes"/>
      <point x="180.0" y="471.0"/>
      <point x="181.0" y="497.0"/>
      <point x="185.0" y="521.0" type="curve"/>
      <point x="200.0" y="529.0"/>
      <point x="217.0" y="535.0"/>
      <point x="232.0" y="535.0" type="curve" smooth="yes"/>
      <point x="267.0" y="535.0"/>
      <point x="279.0" y="509.0"/>
      <point x="279.0" y="463.0" type="curve" smooth="yes"/>
      <point x="279.0" y="440.0"/>
      <point x="277.0" y="410.0"/>
      <point x="272.0" y="380.0" type="curve"/>
      <point x="259.0" y="371.0"/>
      <point x="244.0" y="365.0"/>
    </contour>
    <contour>
      <point x="634.0" y="-15.0" type="curve" smooth="yes"/>
      <point x="735.0" y="-15.0"/>
      <point x="789.0" y="55.0"/>
      <point x="789.0" y="155.0" type="curve" smooth="yes"/>
      <point x="789.0" y="258.0"/>
      <point x="746.0" y="310.0"/>
      <point x="638.0" y="310.0" type="curve" smooth="yes"/>
      <point x="533.0" y="310.0"/>
      <point x="481.0" y="244.0"/>
      <point x="481.0" y="146.0" type="curve" smooth="yes"/>
      <point x="481.0" y="40.0"/>
      <point x="523.0" y="-15.0"/>
    </contour>
    <contour>
      <point x="635.0" y="62.0" type="curve" smooth="yes"/>
      <point x="598.0" y="62.0"/>
      <point x="585.0" y="94.0"/>
      <point x="585.0" y="148.0" type="curve" smooth="yes"/>
      <point x="585.0" y="168.0"/>
      <point x="586.0" y="194.0"/>
      <point x="590.0" y="218.0" type="curve"/>
      <point x="605.0" y="226.0"/>
      <point x="622.0" y="232.0"/>
      <point x="637.0" y="232.0" type="curve" smooth="yes"/>
      <point x="672.0" y="232.0"/>
      <point x="684.0" y="206.0"/>
      <point x="684.0" y="160.0" type="curve" smooth="yes"/>
      <point x="684.0" y="137.0"/>
      <point x="682.0" y="107.0"/>
      <point x="677.0" y="77.0" type="curve"/>
      <point x="664.0" y="68.0"/>
      <point x="649.0" y="62.0"/>
    </contour>
  </outline>
</glyph>
<glyph name="ampersand" format="2">
  <advance width="630.0"/>
  <unicode hex="0026"/>
  <outline>
    <contour>
      <point x="415.0" y="0.0" type="curve"/>
      <point x="625.0" y="0.0" type="line"/>
      <point x="625.0" y="71.0" type="line"/>
      <point x="574.0" y="84.0" type="line"/>
      <point x="492.0" y="147.0"/>
      <point x="343.0" y="336.0"/>
      <point x="293.0" y="414.0" type="curve" smooth="yes"/>
      <point x="274.0" y="444.0"/>
      <point x="255.0" y="488.0"/>
      <point x="255.0" y="525.0" type="curve" smooth="yes"/>
      <point x="255.0" y="543.0"/>
      <point x="260.0" y="555.0"/>
      <point x="269.0" y="557.0" type="curve"/>
      <point x="297.0" y="557.0"/>
      <point x="321.0" y="547.0"/>
      <point x="323.0" y="518.0" type="curve"/>
      <point x="327.0" y="431.0" type="line"/>
      <point x="421.0" y="431.0" type="line"/>
      <point x="430.0" y="469.0"/>
      <point x="439.0" y="511.0"/>
      <point x="439.0" y="532.0" type="curve" smooth="yes"/>
      <point x="439.0" y="603.0"/>
      <point x="356.0" y="625.0"/>
      <point x="278.0" y="625.0" type="curve" smooth="yes"/>
      <point x="251.0" y="625.0"/>
      <point x="134.0" y="570.0"/>
      <point x="93.0" y="536.0" type="curve"/>
      <point x="86.0" y="525.0"/>
      <point x="82.0" y="505.0"/>
      <point x="82.0" y="483.0" type="curve" smooth="yes"/>
      <point x="82.0" y="423.0"/>
      <point x="115.0" y="366.0"/>
      <point x="152.0" y="316.0" type="curve" smooth="yes"/>
      <point x="223.0" y="220.0"/>
      <point x="392.0" y="10.0"/>
    </contour>
    <contour>
      <point x="231.0" y="-9.0" type="curve" smooth="yes"/>
      <point x="245.0" y="-9.0"/>
      <point x="316.0" y="11.0"/>
      <point x="358.0" y="29.0" type="curve"/>
      <point x="391.0" y="60.0"/>
      <point x="577.0" y="309.0"/>
      <point x="616.0" y="372.0" type="curve"/>
      <point x="478.0" y="372.0" type="line"/>
      <point x="445.0" y="298.0"/>
      <point x="321.0" y="86.0"/>
      <point x="287.0" y="71.0" type="curve" smooth="yes"/>
      <point x="278.0" y="67.0"/>
      <point x="265.0" y="65.0"/>
      <point x="259.0" y="65.0" type="curve" smooth="yes"/>
      <point x="223.0" y="65.0"/>
      <point x="195.0" y="121.0"/>
      <point x="195.0" y="184.0" type="curve" smooth="yes"/>
      <point x="195.0" y="236.0"/>
      <point x="213.0" y="278.0"/>
      <point x="246.0" y="306.0" type="curve"/>
      <point x="192.0" y="365.0" type="line"/>
      <point x="104.0" y="327.0"/>
      <point x="20.0" y="263.0"/>
      <point x="20.0" y="163.0" type="curve" smooth="yes"/>
      <point x="20.0" y="49.0"/>
      <point x="96.0" y="-9.0"/>
    </contour>
    <contour>
      <point x="502.0" y="276.0" type="line"/>
      <point x="623.0" y="297.0" type="line"/>
      <point x="624.0" y="372.0" type="line"/>
      <point x="396.0" y="372.0" type="line"/>
      <point x="395.0" y="305.0" type="line"/>
    </contour>
  </outline>
</glyph>
<glyph name="quotesingle" format="2">
  <advance width="207.0"/>
  <unicode hex="0027"/>
  <outline>
    <contour>
      <point x="45.0" y="481.0" type="line"/>
      <point x="154.0" y="482.0" type="line"/>
      <point x="165.0" y="540.0"/>
      <point x="175.0" y="606.0"/>
      <point x="182.0" y="665.0" type="curve" smooth="yes"/>
      <point x="183.0" y="670.0"/>
      <point x="158.0" y="697.0"/>
      <point x="147.0" y="697.0" type="curve" smooth="yes"/>
      <point x="105.0" y="697.0"/>
      <point x="66.0" y="691.0"/>
      <point x="25.0" y="683.0" type="curve"/>
    </contour>
  </outline>
</glyph>
<glyph name="parenleft" format="2">
  <advance width="299.0"/>
  <unicode hex="0028"/>
  <outline>
    <contour>
      <point x="204.0" y="-122.0" type="curve"/>
      <point x="279.0" y="-76.0" type="line"/>
      <point x="227.0" y="29.0"/>
      <point x="200.0" y="163.0"/>
      <point x="200.0" y="294.0" type="curve" smooth="yes"/>
      <point x="200.0" y="422.0"/>
      <point x="226.0" y="548.0"/>
      <point x="279.0" y="644.0" type="curve"/>
      <point x="204.0" y="690.0" type="line"/>
      <point x="85.0" y="591.0"/>
      <point x="26.0" y="442.0"/>
      <point x="26.0" y="291.0" type="curve" smooth="yes"/>
      <point x="26.0" y="140.0"/>
      <point x="85.0" y="-13.0"/>
    </contour>
  </outline>
</glyph>
<glyph name="parenright" format="2">
  <advance width="299.0"/>
  <unicode hex="0029"/>
  <outline>
    <contour>
      <point x="95.0" y="-122.0" type="line"/>
      <point x="214.0" y="-23.0"/>
      <point x="273.0" y="126.0"/>
      <point x="273.0" y="277.0" type="curve" smooth="yes"/>
      <point x="273.0" y="428.0"/>
      <point x="214.0" y="581.0"/>
      <point x="95.0" y="690.0" type="curve"/>
      <point x="20.0" y="644.0" type="line"/>
      <point x="72.0" y="539.0"/>
      <point x="99.0" y="405.0"/>
      <point x="99.0" y="274.0" type="curve" smooth="yes"/>
      <point x="99.0" y="146.0"/>
      <point x="73.0" y="20.0"/>
      <point x="20.0" y="-76.0" type="curve"/>
    </contour>
  </outline>
</glyph>
<glyph name="asterisk" format="2">
  <advance width="331.0"/>
  <unicode hex="002A"/>
  <outline>
    <contour>
      <point x="132.0" y="372.0" type="line"/>
      <point x="226.0" y="381.0" type="line"/>
      <point x="203.0" y="471.0" type="line"/>
      <point x="258.0" y="420.0" type="line"/>
      <point x="288.0" y="422.0" type="line"/>
      <point x="322.0" y="505.0" type="line"/>
      <point x="238.0" y="533.0" type="line"/>
      <point x="328.0" y="557.0" type="line"/>
      <point x="286.0" y="640.0" type="line"/>
      <point x="258.0" y="645.0" type="line"/>
      <point x="203.0" y="595.0" type="line"/>
      <point x="223.0" y="674.0" type="line"/>
      <point x="204.0" y="695.0" type="line"/>
      <point x="112.0" y="688.0" type="line"/>
      <point x="134.0" y="595.0" type="line"/>
      <point x="75.0" y="648.0" type="line"/>
      <point x="47.0" y="644.0" type="line"/>
      <point x="16.0" y="560.0" type="line"/>
      <point x="98.0" y="533.0" type="line"/>
      <point x="14.0" y="509.0" type="line"/>
      <point x="51.0" y="423.0" type="line"/>
      <point x="81.0" y="419.0" type="line"/>
      <point x="134.0" y="471.0" type="line"/>
      <point x="115.0" y="395.0" type="line"/>
    </contour>
  </outline>
</glyph>
<glyph name="plus" format="2">
  <advance width="592.0"/>
  <unicode hex="002B"/>
  <outline>
    <contour>
      <point x="238.0" y="28.0" type="line"/>
      <point x="356.0" y="28.0" type="line"/>
      <point x="356.0" y="479.0" type="line"/>
      <point x="238.0" y="479.0" type="line"/>
    </contour>
    <contour>
      <point x="90.0" y="199.0" type="line"/>
      <point x="502.0" y="199.0" type="line"/>
      <point x="502.0" y="309.0" type="line"/>
      <point x="90.0" y="309.0" type="line"/>
    </contour>
  </outline>
</glyph>
<glyph name="comma" format="2">
  <advance width="253.0"/>
  <unicode hex="002C"/>
  <outline>
    <contour>
      <point x="114.0" y="-160.0" type="line"/>
      <point x="155.0" y="-110.0"/>
      <point x="213.0" y="-31.0"/>
      <point x="213.0" y="42.0" type="curve" smooth="yes"/>
      <point x="213.0" y="94.0" type="line"/>
      <point x="213.0" y="106.0"/>
      <point x="178.0" y="144.0"/>
      <point x="169.0" y="144.0" type="curve" smooth="yes"/>
      <point x="140.0" y="144.0"/>
      <point x="79.0" y="134.0"/>
      <point x="46.0" y="126.0" type="curve"/>
      <point x="40.0" y="33.0" type="line" smooth="yes"/>
      <point x="39.0" y="22.0"/>
      <point x="65.0" y="3.0"/>
      <point x="74.0" y="-5.0" type="curve"/>
      <point x="67.0" y="-47.0"/>
      <point x="55.0" y="-87.0"/>
      <point x="43.0" y="-124.0" type="curve"/>
    </contour>
  </outline>
</glyph>
<glyph name="hyphen" format="2">
  <advance width="308.0"/>
  <unicode hex="002D"/>
  <outline>
    <contour>
      <point x="30.0" y="186.0" type="line"/>
      <point x="278.0" y="186.0" type="line"/>
      <point x="278.0" y="302.0" type="line"/>
      <point x="30.0" y="302.0" type="line"/>
    </contour>
  </outline>
</glyph>
<glyph name="period" format="2">
  <advance width="247.0"/>
  <unicode hex="002E"/>
  <outline>
    <contour>
      <point x="82.0" y="-16.0" type="curve" smooth="yes"/>
      <point x="89.0" y="-16.0"/>
      <point x="202.0" y="-1.0"/>
      <point x="202.0" y="-1.0" type="curve"/>
      <point x="211.0" y="87.0" type="line" smooth="yes"/>
      <point x="212.0" y="98.0"/>
      <point x="177.0" y="137.0"/>
      <point x="168.0" y="137.0" type="curve" smooth="yes"/>
      <point x="136.0" y="137.0"/>
      <point x="68.0" y="125.0"/>
      <point x="36.0" y="117.0" type="curve"/>
      <point x="39.0" y="33.0" type="line" smooth="yes"/>
      <point x="39.0" y="19.0"/>
      <point x="73.0" y="-16.0"/>
    </contour>
  </outline>
</glyph>
<glyph name="slash" format="2">
  <advance width="406.0"/>
  <unicode hex="002F"/>
  <outline>
    <contour>
      <point x="35.0" y="-118.0" type="line"/>
      <point x="168.0" y="-118.0" type="line"/>
      <point x="371.0" y="687.0" type="line"/>
      <point x="238.0" y="687.0" type="line"/>
    </contour>
  </outline>
</glyph>
<glyph name="zero" format="2">
  <advance width="553.0"/>
  <unicode hex="0030"/>
  <outline>
    <contour>
      <point x="277.0" y="-13.0" type="curve" smooth="yes"/>
      <point x="459.0" y="-13.0"/>
      <point x="523.0" y="127.0"/>
      <point x="523.0" y="243.0" type="curve" smooth="yes"/>
      <point x="523.0" y="402.0"/>
      <point x="444.0" y="494.0"/>
      <point x="275.0" y="494.0" type="curve" smooth="yes"/>
      <point x="88.0" y="494.0"/>
      <point x="30.0" y="358.0"/>
      <point x="30.0" y="243.0" type="curve" smooth="yes"/>
      <point x="30.0" y="82.0"/>
      <point x="107.0" y="-13.0"/>
    </contour>
    <contour>
      <point x="256.0" y="71.0" type="curve" smooth="yes"/>
      <point x="226.0" y="71.0"/>
      <point x="215.0" y="120.0"/>
      <point x="215.0" y="243.0" type="curve" smooth="yes"/>
      <point x="215.0" y="303.0"/>
      <point x="215.0" y="355.0"/>
      <point x="225.0" y="389.0" type="curve"/>
      <point x="243.0" y="399.0"/>
      <point x="269.0" y="406.0"/>
      <point x="293.0" y="406.0" type="curve" smooth="yes"/>
      <point x="323.0" y="406.0"/>
      <point x="338.0" y="362.0"/>
      <point x="338.0" y="243.0" type="curve" smooth="yes"/>
      <point x="338.0" y="164.0"/>
      <point x="335.0" y="120.0"/>
      <point x="326.0" y="88.0" type="curve"/>
      <point x="305.0" y="78.0"/>
      <point x="282.0" y="71.0"/>
    </contour>
  </outline>
</glyph>
<glyph name="one" format="2">
  <advance width="392.0"/>
  <unicode hex="0031"/>
  <outline>
    <contour>
      <point x="44.0" y="0.0" type="line"/>
      <point x="377.0" y="0.0" type="line"/>
      <point x="377.0" y="72.0" type="line"/>
      <point x="302.0" y="97.0" type="line"/>
      <point x="302.0" y="467.0" type="line"/>
      <point x="229.0" y="494.0" type="line"/>
      <point x="35.0" y="433.0" type="line"/>
      <point x="35.0" y="348.0" type="line"/>
      <point x="129.0" y="358.0" type="line"/>
      <point x="129.0" y="97.0" type="line"/>
      <point x="44.0" y="72.0" type="line"/>
    </contour>
  </outline>
</glyph>
<glyph name="two" format="2">
  <advance width="472.0"/>
  <unicode hex="0032"/>
  <outline>
    <contour>
      <point x="26.0" y="0.0" type="line"/>
      <point x="447.0" y="0.0" type="line"/>
      <point x="443.0" y="173.0" type="line"/>
      <point x="359.0" y="173.0" type="line"/>
      <point x="345.0" y="102.0" type="line"/>
      <point x="273.0" y="102.0" type="line"/>
      <point x="273.0" y="116.0" type="line"/>
      <point x="370.0" y="241.0" type="line" smooth="yes"/>
      <point x="409.0" y="291.0"/>
      <point x="422.0" y="325.0"/>
      <point x="422.0" y="374.0" type="curve" smooth="yes"/>
      <point x="422.0" y="463.0"/>
      <point x="339.0" y="494.0"/>
      <point x="268.0" y="494.0" type="curve" smooth="yes"/>
      <point x="241.0" y="494.0"/>
      <point x="106.0" y="483.0"/>
      <point x="41.0" y="473.0" type="curve"/>
      <point x="48.0" y="310.0" type="line"/>
      <point x="132.0" y="310.0" type="line"/>
      <point x="142.0" y="393.0" type="line"/>
      <point x="152.0" y="395.0"/>
      <point x="194.0" y="404.0"/>
      <point x="204.0" y="404.0" type="curve" smooth="yes"/>
      <point x="216.0" y="404.0"/>
      <point x="224.0" y="378.0"/>
      <point x="224.0" y="360.0" type="curve" smooth="yes"/>
      <point x="224.0" y="328.0"/>
      <point x="202.0" y="293.0"/>
      <point x="164.0" y="246.0" type="curve" smooth="yes"/>
      <point x="15.0" y="65.0" type="line"/>
    </contour>
  </outline>
</glyph>
<glyph name="three" format="2">
  <advance width="450.0"/>
  <unicode hex="0033"/>
  <outline>
    <contour>
      <point x="55.0" y="-104.0" type="line"/>
      <point x="235.0" y="-85.0"/>
      <point x="425.0" y="9.0"/>
      <point x="425.0" y="128.0" type="curve" smooth="yes"/>
      <point x="425.0" y="196.0"/>
      <point x="383.0" y="238.0"/>
      <point x="294.0" y="242.0" type="curve"/>
      <point x="294.0" y="251.0" type="line"/>
      <point x="337.0" y="260.0"/>
      <point x="399.0" y="305.0"/>
      <point x="399.0" y="369.0" type="curve" smooth="yes"/>
      <point x="399.0" y="458.0"/>
      <point x="324.0" y="494.0"/>
      <point x="223.0" y="494.0" type="curve" smooth="yes"/>
      <point x="196.0" y="494.0"/>
      <point x="93.0" y="483.0"/>
      <point x="35.0" y="473.0" type="curve"/>
      <point x="42.0" y="324.0" type="line"/>
      <point x="126.0" y="324.0" type="line"/>
      <point x="136.0" y="393.0" type="line"/>
      <point x="146.0" y="394.0"/>
      <point x="195.0" y="404.0"/>
      <point x="202.0" y="404.0" type="curve" smooth="yes"/>
      <point x="214.0" y="404.0"/>
      <point x="222.0" y="379.0"/>
      <point x="222.0" y="361.0" type="curve" smooth="yes"/>
      <point x="222.0" y="302.0"/>
      <point x="192.0" y="270.0"/>
      <point x="104.0" y="249.0" type="curve"/>
      <point x="104.0" y="177.0" type="line"/>
      <point x="201.0" y="177.0" type="line" smooth="yes"/>
      <point x="220.0" y="177.0"/>
      <point x="238.0" y="154.0"/>
      <point x="238.0" y="122.0" type="curve" smooth="yes"/>
      <point x="238.0" y="45.0"/>
      <point x="141.0" y="-6.0"/>
      <point x="55.0" y="-25.0" type="curve"/>
    </contour>
  </outline>
</glyph>
<glyph name="four" format="2">
  <advance width="519.0"/>
  <unicode hex="0034"/>
  <outline>
    <contour>
      <point x="275.0" y="-103.0" type="line"/>
      <point x="437.0" y="-103.0" type="line"/>
      <point x="437.0" y="34.0" type="line"/>
      <point x="494.0" y="34.0" type="line"/>
      <point x="494.0" y="132.0" type="line"/>
      <point x="437.0" y="132.0" type="line"/>
      <point x="437.0" y="248.0" type="line"/>
      <point x="402.0" y="264.0" type="line"/>
      <point x="275.0" y="218.0" type="line"/>
      <point x="275.0" y="132.0" type="line"/>
      <point x="159.0" y="132.0" type="line"/>
      <point x="159.0" y="146.0" type="line"/>
      <point x="199.0" y="209.0"/>
      <point x="286.0" y="353.0"/>
      <point x="309.0" y="398.0" type="curve"/>
      <point x="309.0" y="437.0" type="line"/>
      <point x="152.0" y="497.0" type="line"/>
      <point x="112.0" y="379.0"/>
      <point x="56.0" y="227.0"/>
      <point x="10.0" y="105.0" type="curve"/>
      <point x="16.0" y="34.0" type="line"/>
      <point x="275.0" y="34.0" type="line"/>
    </contour>
  </outline>
</glyph>
<glyph name="five" format="2">
  <advance width="435.0"/>
  <unicode hex="0035"/>
  <outline>
    <contour>
      <point x="37.0" y="-104.0" type="line"/>
      <point x="236.0" y="-89.0"/>
      <point x="405.0" y="6.0"/>
      <point x="405.0" y="153.0" type="curve" smooth="yes"/>
      <point x="405.0" y="246.0"/>
      <point x="346.0" y="298.0"/>
      <point x="237.0" y="298.0" type="curve" smooth="yes"/>
      <point x="229.0" y="298.0"/>
      <point x="164.0" y="273.0"/>
      <point x="147.0" y="266.0" type="curve"/>
      <point x="158.0" y="380.0" type="line"/>
      <point x="372.0" y="380.0" type="line"/>
      <point x="372.0" y="537.0" type="line"/>
      <point x="281.0" y="537.0" type="line"/>
      <point x="272.0" y="482.0" type="line"/>
      <point x="60.0" y="482.0" type="line"/>
      <point x="30.0" y="204.0" type="line"/>
      <point x="65.0" y="163.0" type="line"/>
      <point x="93.0" y="172.0"/>
      <point x="157.0" y="192.0"/>
      <point x="163.0" y="192.0" type="curve" smooth="yes"/>
      <point x="198.0" y="192.0"/>
      <point x="228.0" y="175.0"/>
      <point x="228.0" y="127.0" type="curve" smooth="yes"/>
      <point x="228.0" y="29.0"/>
      <point x="134.0" y="-3.0"/>
      <point x="37.0" y="-25.0" type="curve"/>
    </contour>
  </outline>
</glyph>
<glyph name="six" format="2">
  <advance width="498.0"/>
  <unicode hex="0036"/>
  <outline>
    <contour>
      <point x="267.0" y="-13.0" type="curve" smooth="yes"/>
      <point x="312.0" y="-13.0"/>
      <point x="402.0" y="38.0"/>
      <point x="457.0" y="105.0" type="curve"/>
      <point x="462.0" y="123.0"/>
      <point x="468.0" y="156.0"/>
      <point x="468.0" y="181.0" type="curve" smooth="yes"/>
      <point x="468.0" y="269.0"/>
      <point x="426.0" y="371.0"/>
      <point x="293.0" y="371.0" type="curve" smooth="yes"/>
      <point x="286.0" y="371.0"/>
      <point x="254.0" y="352.0"/>
      <point x="223.0" y="335.0" type="curve"/>
      <point x="218.0" y="337.0" type="line"/>
      <point x="247.0" y="427.0"/>
      <point x="300.0" y="476.0"/>
      <point x="411.0" y="504.0" type="curve"/>
      <point x="411.0" y="584.0" type="line"/>
      <point x="218.0" y="565.0"/>
      <point x="30.0" y="447.0"/>
      <point x="30.0" y="226.0" type="curve" smooth="yes"/>
      <point x="30.0" y="77.0"/>
      <point x="128.0" y="-13.0"/>
    </contour>
    <contour>
      <point x="268.0" y="74.0" type="curve" smooth="yes"/>
      <point x="202.0" y="74.0"/>
      <point x="206.0" y="173.0"/>
      <point x="212.0" y="255.0" type="curve"/>
      <point x="233.0" y="263.0"/>
      <point x="254.0" y="269.0"/>
      <point x="256.0" y="269.0" type="curve" smooth="yes"/>
      <point x="273.0" y="269.0"/>
      <point x="288.0" y="246.0"/>
      <point x="288.0" y="174.0" type="curve" smooth="yes"/>
      <point x="288.0" y="125.0"/>
      <point x="279.0" y="74.0"/>
    </contour>
  </outline>
</glyph>
<glyph name="seven" format="2">
  <advance width="475.0"/>
  <unicode hex="0037"/>
  <outline>
    <contour>
      <point x="208.0" y="-110.0" type="curve" smooth="yes"/>
      <point x="218.0" y="-110.0"/>
      <point x="241.0" y="-97.0"/>
      <point x="251.0" y="-89.0" type="curve"/>
      <point x="455.0" y="410.0" type="line"/>
      <point x="443.0" y="482.0" type="line"/>
      <point x="25.0" y="482.0" type="line"/>
      <point x="33.0" y="303.0" type="line"/>
      <point x="117.0" y="303.0" type="line"/>
      <point x="129.0" y="380.0" type="line"/>
      <point x="302.0" y="380.0" type="line"/>
      <point x="304.0" y="368.0" type="line"/>
      <point x="69.0" y="-54.0" type="line"/>
      <point x="105.0" y="-73.0"/>
      <point x="194.0" y="-110.0"/>
    </contour>
  </outline>
</glyph>
<glyph name="eight" format="2">
  <advance width="498.0"/>
  <unicode hex="0038"/>
  <outline>
    <contour>
      <point x="264.0" y="-13.0" type="curve" smooth="yes"/>
      <point x="324.0" y="-13.0"/>
      <point x="439.0" y="76.0"/>
      <point x="459.0" y="105.0" type="curve"/>
      <point x="463.0" y="117.0"/>
      <point x="468.0" y="139.0"/>
      <point x="468.0" y="161.0" type="curve" smooth="yes"/>
      <point x="468.0" y="231.0"/>
      <point x="426.0" y="273.0"/>
      <point x="375.0" y="305.0" type="curve"/>
      <point x="375.0" y="312.0" type="line"/>
      <point x="417.0" y="344.0"/>
      <point x="454.0" y="375.0"/>
      <point x="454.0" y="443.0" type="curve" smooth="yes"/>
      <point x="454.0" y="521.0"/>
      <point x="375.0" y="584.0"/>
      <point x="245.0" y="584.0" type="curve" smooth="yes"/>
      <point x="185.0" y="584.0"/>
      <point x="68.0" y="493.0"/>
      <point x="49.0" y="466.0" type="curve"/>
      <point x="49.0" y="466.0"/>
      <point x="43.0" y="451.0"/>
      <point x="43.0" y="414.0" type="curve" smooth="yes"/>
      <point x="43.0" y="356.0"/>
      <point x="77.0" y="314.0"/>
      <point x="122.0" y="281.0" type="curve"/>
      <point x="122.0" y="273.0" type="line"/>
      <point x="56.0" y="235.0"/>
      <point x="30.0" y="199.0"/>
      <point x="30.0" y="137.0" type="curve" smooth="yes"/>
      <point x="30.0" y="56.0"/>
      <point x="87.0" y="-13.0"/>
    </contour>
    <contour>
      <point x="277.0" y="74.0" type="curve" smooth="yes"/>
      <point x="190.0" y="74.0"/>
      <point x="181.0" y="132.0"/>
      <point x="181.0" y="176.0" type="curve" smooth="yes"/>
      <point x="181.0" y="193.0"/>
      <point x="185.0" y="210.0"/>
      <point x="192.0" y="227.0" type="curve"/>
      <point x="246.0" y="194.0"/>
      <point x="295.0" y="165.0"/>
      <point x="295.0" y="128.0" type="curve" smooth="yes"/>
      <point x="295.0" y="98.0"/>
      <point x="282.0" y="74.0"/>
    </contour>
    <contour>
      <point x="296.0" y="354.0" type="curve"/>
      <point x="252.0" y="378.0"/>
      <point x="216.0" y="402.0"/>
      <point x="216.0" y="443.0" type="curve" smooth="yes"/>
      <point x="216.0" y="473.0"/>
      <point x="233.0" y="497.0"/>
      <point x="235.0" y="497.0" type="curve" smooth="yes"/>
      <point x="290.0" y="497.0"/>
      <point x="303.0" y="459.0"/>
      <point x="303.0" y="418.0" type="curve" smooth="yes"/>
      <point x="303.0" y="397.0"/>
      <point x="300.0" y="374.0"/>
    </contour>
  </outline>
</glyph>
<glyph name="nine" format="2">
  <advance width="498.0"/>
  <unicode hex="0039"/>
  <outline>
    <contour>
      <point x="87.0" y="-103.0" type="line"/>
      <point x="280.0" y="-84.0"/>
      <point x="468.0" y="34.0"/>
      <point x="468.0" y="255.0" type="curve" smooth="yes"/>
      <point x="468.0" y="404.0"/>
      <point x="370.0" y="494.0"/>
      <point x="231.0" y="494.0" type="curve" smooth="yes"/>
      <point x="186.0" y="494.0"/>
      <point x="96.0" y="443.0"/>
      <point x="41.0" y="376.0" type="curve"/>
      <point x="36.0" y="358.0"/>
      <point x="30.0" y="325.0"/>
      <point x="30.0" y="300.0" type="curve" smooth="yes"/>
      <point x="30.0" y="212.0"/>
      <point x="72.0" y="110.0"/>
      <point x="205.0" y="110.0" type="curve" smooth="yes"/>
      <point x="212.0" y="110.0"/>
      <point x="244.0" y="129.0"/>
      <point x="275.0" y="146.0" type="curve"/>
      <point x="280.0" y="144.0" type="line"/>
      <point x="251.0" y="54.0"/>
      <point x="198.0" y="5.0"/>
      <point x="87.0" y="-23.0" type="curve"/>
    </contour>
    <contour>
      <point x="242.0" y="212.0" type="curve" smooth="yes"/>
      <point x="225.0" y="212.0"/>
      <point x="210.0" y="235.0"/>
      <point x="210.0" y="307.0" type="curve" smooth="yes"/>
      <point x="210.0" y="356.0"/>
      <point x="219.0" y="407.0"/>
      <point x="230.0" y="407.0" type="curve" smooth="yes"/>
      <point x="296.0" y="407.0"/>
      <point x="292.0" y="308.0"/>
      <point x="286.0" y="226.0" type="curve"/>
      <point x="265.0" y="218.0"/>
      <point x="244.0" y="212.0"/>
    </contour>
  </outline>
</glyph>
<glyph name="less" format="2">
  <advance width="570.0"/>
  <unicode hex="003C"/>
  <outline>
    <contour>
      <point x="495.0" y="-24.0" type="line"/>
      <point x="495.0" y="110.0" type="line"/>
      <point x="190.0" y="235.0" type="line"/>
      <point x="495.0" y="360.0" type="line"/>
      <point x="495.0" y="494.0" type="line"/>
      <point x="75.0" y="313.0" type="line"/>
      <point x="75.0" y="157.0" type="line"/>
    </contour>
  </outline>
</glyph>
<glyph name="equal" format="2">
  <advance width="572.0"/>
  <unicode hex="003D"/>
  <outline>
    <contour>
      <point x="90.0" y="291.0" type="line"/>
      <point x="482.0" y="291.0" type="line"/>
      <point x="482.0" y="399.0" type="line"/>
      <point x="90.0" y="399.0" type="line"/>
    </contour>
    <contour>
      <point x="90.0" y="109.0" type="line"/>
      <point x="482.0" y="109.0" type="line"/>
      <point x="482.0" y="217.0" type="line"/>
      <point x="90.0" y="217.0" type="line"/>
    </contour>
  </outline>
</glyph>
<glyph name="greater" format="2">
  <advance width="570.0"/>
  <unicode hex="003E"/>
  <outline>
    <contour>
      <point x="75.0" y="-24.0" type="line"/>
      <point x="495.0" y="157.0" type="line"/>
      <point x="495.0" y="313.0" type="line"/>
      <point x="75.0" y="494.0" type="line"/>
      <point x="75.0" y="360.0" type="line"/>
      <point x="380.0" y="235.0" type="line"/>
      <point x="75.0" y="110.0" type="line"/>
    </contour>
  </outline>
</glyph>
<glyph name="question" format="2">
  <advance width="528.0"/>
  <unicode hex="003F"/>
  <outline>
    <contour>
      <point x="190.0" y="174.0" type="curve" smooth="yes"/>
      <point x="208.0" y="174.0"/>
      <point x="254.0" y="182.0"/>
      <point x="285.0" y="187.0" type="curve"/>
      <point x="287.0" y="254.0"/>
      <point x="310.0" y="282.0"/>
      <point x="348.0" y="318.0" type="curve" smooth="yes"/>
      <point x="415.0" y="380.0"/>
      <point x="480.0" y="425.0"/>
      <point x="480.0" y="512.0" type="curve" smooth="yes"/>
      <point x="480.0" y="622.0"/>
      <point x="408.0" y="661.0"/>
      <point x="300.0" y="661.0" type="curve" smooth="yes"/>
      <point x="237.0" y="661.0"/>
      <point x="157.0" y="647.0"/>
      <point x="76.0" y="627.0" type="curve"/>
      <point x="154.0" y="536.0" type="line"/>
      <point x="207.0" y="553.0"/>
      <point x="273.0" y="572.0"/>
      <point x="290.0" y="572.0" type="curve" smooth="yes"/>
      <point x="308.0" y="572.0"/>
      <point x="313.0" y="548.0"/>
      <point x="313.0" y="533.0" type="curve" smooth="yes"/>
      <point x="313.0" y="504.0"/>
      <point x="296.0" y="476.0"/>
      <point x="236.0" y="422.0" type="curve" smooth="yes"/>
      <point x="193.0" y="384.0"/>
      <point x="155.0" y="344.0"/>
      <point x="158.0" y="282.0" type="curve" smooth="yes"/>
      <point x="163.0" y="193.0" type="line" smooth="yes"/>
      <point x="163.0" y="188.0"/>
      <point x="184.0" y="174.0"/>
    </contour>
    <contour>
      <point x="181.0" y="-9.0" type="curve" smooth="yes"/>
      <point x="229.0" y="-9.0"/>
      <point x="260.0" y="-7.0"/>
      <point x="304.0" y="-2.0" type="curve"/>
      <point x="295.0" y="127.0" type="line"/>
      <point x="154.0" y="127.0" type="line"/>
      <point x="141.0" y="30.0" type="line" smooth="yes"/>
      <point x="140.0" y="21.0"/>
      <point x="171.0" y="-9.0"/>
    </contour>
    <contour>
      <point x="82.0" y="436.0" type="line"/>
      <point x="170.0" y="436.0" type="line"/>
      <point x="209.0" y="627.0" type="line"/>
      <point x="76.0" y="627.0" type="line"/>
    </contour>
  </outline>
</glyph>
<glyph name="at" format="2">
  <advance width="975.0"/>
  <unicode hex="0040"/>
  <outline>
    <contour>
      <point x="441.0" y="-238.0" type="curve" smooth="yes"/>
      <point x="484.0" y="-238.0"/>
      <point x="530.0" y="-232.0"/>
      <point x="578.0" y="-221.0" type="curve"/>
      <point x="566.0" y="-148.0" type="line"/>
      <point x="543.0" y="-150.0"/>
      <point x="521.0" y="-151.0"/>
      <point x="501.0" y="-151.0" type="curve" smooth="yes"/>
      <point x="278.0" y="-151.0"/>
      <point x="183.0" y="-10.0"/>
      <point x="183.0" y="220.0" type="curve" smooth="yes"/>
      <point x="183.0" y="348.0"/>
      <point x="219.0" y="492.0"/>
      <point x="274.0" y="550.0" type="curve"/>
      <point x="333.0" y="587.0"/>
      <point x="420.0" y="612.0"/>
      <point x="505.0" y="612.0" type="curve" smooth="yes"/>
      <point x="707.0" y="612.0"/>
      <point x="796.0" y="498.0"/>
      <point x="796.0" y="293.0" type="curve" smooth="yes"/>
      <point x="796.0" y="220.556"/>
      <point x="782.88" y="151.391"/>
      <point x="758.866" y="84.022" type="curve"/>
      <point x="692.0" y="95.0" type="line"/>
      <point x="692.0" y="443.0" type="line"/>
      <point x="692.0" y="443.0"/>
      <point x="495.0" y="476.0"/>
      <point x="479.0" y="476.0" type="curve" smooth="yes"/>
      <point x="447.0" y="476.0"/>
      <point x="312.0" y="395.0"/>
      <point x="284.0" y="364.0" type="curve"/>
      <point x="271.0" y="331.0"/>
      <point x="257.0" y="266.0"/>
      <point x="257.0" y="205.0" type="curve" smooth="yes"/>
      <point x="257.0" y="75.0"/>
      <point x="319.0" y="-13.0"/>
      <point x="438.0" y="-13.0" type="curve" smooth="yes"/>
      <point x="443.0" y="-13.0"/>
      <point x="502.0" y="32.0"/>
      <point x="526.0" y="51.0" type="curve"/>
      <point x="526.0" y="30.0" type="line" smooth="yes"/>
      <point x="526.0" y="22.0"/>
      <point x="559.0" y="-13.0"/>
      <point x="566.0" y="-13.0" type="curve" smooth="yes"/>
      <point x="599.0" y="-13.0"/>
      <point x="739.0" y="0.0"/>
      <point x="823.0" y="15.0" type="curve"/>
      <point x="894.0" y="84.0"/>
      <point x="949.0" y="212.0"/>
      <point x="949.0" y="339.0" type="curve" smooth="yes"/>
      <point x="949.0" y="589.0"/>
      <point x="774.0" y="712.0"/>
      <point x="502.0" y="712.0" type="curve" smooth="yes"/>
      <point x="208.0" y="712.0"/>
      <point x="26.0" y="507.0"/>
      <point x="26.0" y="227.0" type="curve" smooth="yes"/>
      <point x="26.0" y="-47.0"/>
      <point x="180.0" y="-238.0"/>
    </contour>
    <contour>
      <point x="475.0" y="103.0" type="curve" smooth="yes"/>
      <point x="452.0" y="103.0"/>
      <point x="442.0" y="163.0"/>
      <point x="442.0" y="220.0" type="curve" smooth="yes"/>
      <point x="442.0" y="326.0"/>
      <point x="455.0" y="402.0"/>
      <point x="464.0" y="402.0" type="curve" smooth="yes"/>
      <point x="473.0" y="402.0"/>
      <point x="519.0" y="363.0"/>
      <point x="519.0" y="363.0" type="curve"/>
      <point x="519.0" y="124.0" type="line"/>
      <point x="519.0" y="124.0"/>
      <point x="481.0" y="103.0"/>
    </contour>
  </outline>
</glyph>
<glyph name="A" format="2">
  <advance width="664.0"/>
  <unicode hex="0041"/>
  <anchor x="328.0" y="0.0" name="bottom"/>
  <anchor x="530.0" y="0.0" name="ogonek"/>
  <anchor x="329.0" y="612.0" name="top"/>
  <outline>
    <contour>
      <point x="-6.0" y="0.0" type="line"/>
      <point x="281.0" y="0.0" type="line"/>
      <point x="281.0" y="80.0" type="line"/>
      <point x="212.0" y="97.0" type="line"/>
      <point x="227.0" y="171.0" type="line"/>
      <point x="384.0" y="171.0" type="line"/>
      <point x="404.0" y="97.0" type="line"/>
      <point x="336.0" y="80.0" type="line"/>
      <point x="336.0" y="0.0" type="line"/>
      <point x="666.0" y="0.0" type="line"/>
      <point x="666.0" y="72.0" type="line"/>
      <point x="604.0" y="92.0" type="line"/>
      <point x="433.0" y="612.0" type="line"/>
      <point x="433.0" y="612.0"/>
      <point x="412.0" y="625.0"/>
      <point x="409.0" y="625.0" type="curve" smooth="yes"/>
      <point x="402.0" y="625.0"/>
      <point x="267.0" y="612.0"/>
      <point x="225.0" y="606.0" type="curve"/>
      <point x="56.0" y="92.0" type="line"/>
      <point x="-6.0" y="72.0" type="line"/>
    </contour>
    <contour>
      <point x="249.0" y="266.0" type="line"/>
      <point x="300.0" y="471.0" type="line"/>
      <point x="310.0" y="471.0" type="line"/>
      <point x="359.0" y="266.0" type="line"/>
    </contour>
  </outline>
</glyph>
<glyph name="B" format="2">
  <advance width="594.0"/>
  <unicode hex="0042"/>
  <outline>
    <contour>
      <point x="20.0" y="0.0" type="line"/>
      <point x="397.0" y="0.0" type="line" smooth="yes"/>
      <point x="496.0" y="0.0"/>
      <point x="579.0" y="40.0"/>
      <point x="579.0" y="174.0" type="curve" smooth="yes"/>
      <point x="579.0" y="252.0"/>
      <point x="529.0" y="304.0"/>
      <point x="459.0" y="317.0" type="curve"/>
      <point x="459.0" y="323.0" type="line"/>
      <point x="489.0" y="338.0"/>
      <point x="553.0" y="367.0"/>
      <point x="553.0" y="457.0" type="curve" smooth="yes"/>
      <point x="553.0" y="575.0"/>
      <point x="498.0" y="612.0"/>
      <point x="399.0" y="612.0" type="curve" smooth="yes"/>
      <point x="20.0" y="612.0" type="line"/>
      <point x="20.0" y="540.0" type="line"/>
      <point x="80.0" y="515.0" type="line"/>
      <point x="80.0" y="97.0" type="line"/>
      <point x="20.0" y="72.0" type="line"/>
    </contour>
    <contour>
      <point x="331.0" y="89.0" type="curve"/>
      <point x="271.0" y="98.0" type="line"/>
      <point x="271.0" y="257.0" type="line"/>
      <point x="322.0" y="257.0" type="line" smooth="yes"/>
      <point x="362.0" y="257.0"/>
      <point x="387.0" y="253.0"/>
      <point x="387.0" y="186.0" type="curve" smooth="yes"/>
      <point x="387.0" y="112.0"/>
      <point x="371.0" y="89.0"/>
    </contour>
    <contour>
      <point x="271.0" y="352.0" type="line"/>
      <point x="271.0" y="515.0" type="line"/>
      <point x="322.0" y="522.0" type="line"/>
      <point x="355.0" y="522.0"/>
      <point x="365.0" y="495.0"/>
      <point x="365.0" y="432.0" type="curve" smooth="yes"/>
      <point x="365.0" y="366.0"/>
      <point x="343.0" y="352.0"/>
      <point x="302.0" y="352.0" type="curve" smooth="yes"/>
    </contour>
  </outline>
</glyph>
<glyph name="C" format="2">
  <advance width="496.0"/>
  <unicode hex="0043"/>
  <anchor x="272.0" y="0.0" name="bottom"/>
  <anchor x="281.0" y="612.0" name="top"/>
  <outline>
    <contour>
      <point x="276.0" y="-13.0" type="curve" smooth="yes"/>
      <point x="291.0" y="-13.0"/>
      <point x="418.0" y="2.0"/>
      <point x="472.0" y="14.0" type="curve"/>
      <point x="466.0" y="224.0" type="line"/>
      <point x="379.0" y="224.0" type="line"/>
      <point x="360.257" y="101.0" type="line"/>
      <point x="323.0" y="101.0" type="line" smooth="yes"/>
      <point x="249.0" y="101.0"/>
      <point x="214.0" y="151.0"/>
      <point x="214.0" y="308.0" type="curve" smooth="yes"/>
      <point x="214.0" y="428.0"/>
      <point x="228.0" y="515.0"/>
      <point x="242.0" y="524.0" type="curve" smooth="yes"/>
      <point x="248.0" y="528.0"/>
      <point x="255.0" y="529.0"/>
      <point x="265.0" y="529.0" type="curve" smooth="yes"/>
      <point x="289.0" y="529.0"/>
      <point x="330.0" y="519.0"/>
      <point x="355.0" y="510.0" type="curve"/>
      <point x="370.0" y="384.0" type="line"/>
      <point x="459.0" y="384.0" type="line"/>
      <point x="471.0" y="601.0" type="line"/>
      <point x="416.0" y="609.0"/>
      <point x="312.0" y="625.0"/>
      <point x="292.0" y="625.0" type="curve" smooth="yes"/>
      <point x="246.0" y="625.0"/>
      <point x="97.0" y="540.0"/>
      <point x="48.0" y="485.0" type="curve"/>
      <point x="32.0" y="442.0"/>
      <point x="15.0" y="374.0"/>
      <point x="15.0" y="287.0" type="curve" smooth="yes"/>
      <point x="15.0" y="77.0"/>
      <point x="95.0" y="-13.0"/>
    </contour>
  </outline>
</glyph>
<glyph name="D" format="2">
  <advance width="614.0"/>
  <unicode hex="0044"/>
  <anchor x="307.0" y="0.0" name="bottom"/>
  <anchor x="190.0" y="308.0" name="center"/>
  <anchor x="308.0" y="612.0" name="top"/>
  <outline>
    <contour>
      <point x="20.0" y="0.0" type="line"/>
      <point x="388.0" y="0.0" type="line" smooth="yes"/>
      <point x="519.0" y="0.0"/>
      <point x="599.0" y="97.0"/>
      <point x="599.0" y="322.0" type="curve" smooth="yes"/>
      <point x="599.0" y="542.0"/>
      <point x="489.0" y="612.0"/>
      <point x="388.0" y="612.0" type="curve" smooth="yes"/>
      <point x="20.0" y="612.0" type="line"/>
      <point x="20.0" y="540.0" type="line"/>
      <point x="80.0" y="515.0" type="line"/>
      <point x="80.0" y="97.0" type="line"/>
      <point x="20.0" y="72.0" type="line"/>
    </contour>
    <contour>
      <point x="337.0" y="91.0" type="curve"/>
      <point x="271.0" y="98.0" type="line"/>
      <point x="271.0" y="515.0" type="line"/>
      <point x="337.0" y="522.0" type="line"/>
      <point x="380.0" y="522.0"/>
      <point x="404.0" y="427.0"/>
      <point x="404.0" y="312.0" type="curve" smooth="yes"/>
      <point x="404.0" y="174.0"/>
      <point x="380.0" y="91.0"/>
    </contour>
  </outline>
</glyph>
<glyph name="E" format="2">
  <advance width="558.0"/>
  <unicode hex="0045"/>
  <anchor x="294.0" y="0.0" name="bottom"/>
  <anchor x="483.0" y="0.0" name="ogonek"/>
  <anchor x="291.0" y="612.0" name="top"/>
  <outline>
    <contour>
      <point x="20.0" y="0.0" type="line"/>
      <point x="533.0" y="0.0" type="line"/>
      <point x="529.0" y="199.0" type="line"/>
      <point x="440.0" y="199.0" type="line"/>
      <point x="422.0" y="88.0" type="line"/>
      <point x="271.0" y="104.0" type="line"/>
      <point x="271.0" y="259.0" type="line"/>
      <point x="404.0" y="266.0" type="line"/>
      <point x="404.0" y="360.0" type="line"/>
      <point x="271.0" y="365.0" type="line"/>
      <point x="271.0" y="510.0" type="line"/>
      <point x="413.0" y="524.0" type="line"/>
      <point x="426.0" y="417.0" type="line"/>
      <point x="515.0" y="417.0" type="line"/>
      <point x="528.0" y="612.0" type="line"/>
      <point x="20.0" y="612.0" type="line"/>
      <point x="20.0" y="540.0" type="line"/>
      <point x="80.0" y="515.0" type="line"/>
      <point x="80.0" y="97.0" type="line"/>
      <point x="20.0" y="72.0" type="line"/>
    </contour>
  </outline>
</glyph>
<glyph name="F" format="2">
  <advance width="520.0"/>
  <unicode hex="0046"/>
  <outline>
    <contour>
      <point x="20.0" y="0.0" type="line"/>
      <point x="371.0" y="0.0" type="line"/>
      <point x="371.0" y="74.0" type="line"/>
      <point x="271.0" y="105.0" type="line"/>
      <point x="271.0" y="240.0" type="line"/>
      <point x="424.0" y="247.0" type="line"/>
      <point x="424.0" y="341.0" type="line"/>
      <point x="271.0" y="346.0" type="line"/>
      <point x="271.0" y="510.0" type="line"/>
      <point x="393.0" y="524.0" type="line"/>
      <point x="406.0" y="407.0" type="line"/>
      <point x="495.0" y="407.0" type="line"/>
      <point x="508.0" y="612.0" type="line"/>
      <point x="20.0" y="612.0" type="line"/>
      <point x="20.0" y="540.0" type="line"/>
      <point x="80.0" y="515.0" type="line"/>
      <point x="80.0" y="97.0" type="line"/>
      <point x="20.0" y="72.0" type="line"/>
    </contour>
  </outline>
</glyph>
<glyph name="G" format="2">
  <advance width="599.0"/>
  <unicode hex="0047"/>
  <anchor x="307.0" y="0.0" name="bottom"/>
  <anchor x="307.0" y="612.0" name="top"/>
  <outline>
    <contour>
      <point x="318.0" y="-13.0" type="curve" smooth="yes"/>
      <point x="338.0" y="-13.0"/>
      <point x="509.0" y="35.0"/>
      <point x="539.0" y="51.0" type="curve"/>
      <point x="539.0" y="230.0" type="line"/>
      <point x="599.0" y="243.0" type="line"/>
      <point x="599.0" y="316.0" type="line"/>
      <point x="290.0" y="316.0" type="line"/>
      <point x="290.0" y="239.0" type="line"/>
      <point x="383.0" y="222.0" type="line"/>
      <point x="383.0" y="104.0" type="line"/>
      <point x="311.0" y="97.0" type="line"/>
      <point x="237.0" y="97.0"/>
      <point x="214.0" y="147.0"/>
      <point x="214.0" y="308.0" type="curve" smooth="yes"/>
      <point x="214.0" y="428.0"/>
      <point x="228.0" y="515.0"/>
      <point x="242.0" y="524.0" type="curve" smooth="yes"/>
      <point x="248.0" y="528.0"/>
      <point x="255.0" y="529.0"/>
      <point x="265.0" y="529.0" type="curve" smooth="yes"/>
      <point x="306.0" y="529.0"/>
      <point x="384.0" y="514.0"/>
      <point x="411.0" y="509.0" type="curve"/>
      <point x="423.0" y="396.0" type="line"/>
      <point x="516.0" y="396.0" type="line"/>
      <point x="528.0" y="601.0" type="line"/>
      <point x="468.0" y="612.0"/>
      <point x="312.0" y="625.0"/>
      <point x="292.0" y="625.0" type="curve" smooth="yes"/>
      <point x="246.0" y="625.0"/>
      <point x="97.0" y="540.0"/>
      <point x="48.0" y="485.0" type="curve"/>
      <point x="32.0" y="442.0"/>
      <point x="15.0" y="374.0"/>
      <point x="15.0" y="287.0" type="curve" smooth="yes"/>
      <point x="15.0" y="77.0"/>
      <point x="117.0" y="-13.0"/>
    </contour>
  </outline>
</glyph>
<glyph name="H" format="2">
  <advance width="693.0"/>
  <unicode hex="0048"/>
  <anchor x="348.0" y="0.0" name="bottom"/>
  <anchor x="346.0" y="447.0" name="center"/>
  <anchor x="347.0" y="612.0" name="top"/>
  <outline>
    <contour>
      <point x="20.0" y="0.0" type="line"/>
      <point x="325.0" y="0.0" type="line"/>
      <point x="325.0" y="84.0" type="line"/>
      <point x="267.0" y="107.0" type="line"/>
      <point x="267.0" y="265.0" type="line"/>
      <point x="426.0" y="265.0" type="line"/>
      <point x="426.0" y="107.0" type="line"/>
      <point x="368.0" y="84.0" type="line"/>
      <point x="368.0" y="0.0" type="line"/>
      <point x="673.0" y="0.0" type="line"/>
      <point x="673.0" y="72.0" type="line"/>
      <point x="613.0" y="97.0" type="line"/>
      <point x="613.0" y="515.0" type="line"/>
      <point x="673.0" y="540.0" type="line"/>
      <point x="673.0" y="612.0" type="line"/>
      <point x="368.0" y="612.0" type="line"/>
      <point x="368.0" y="532.0" type="line"/>
      <point x="426.0" y="505.0" type="line"/>
      <point x="426.0" y="360.0" type="line"/>
      <point x="267.0" y="360.0" type="line"/>
      <point x="267.0" y="505.0" type="line"/>
      <point x="325.0" y="532.0" type="line"/>
      <point x="325.0" y="612.0" type="line"/>
      <point x="20.0" y="612.0" type="line"/>
      <point x="20.0" y="540.0" type="line"/>
      <point x="80.0" y="515.0" type="line"/>
      <point x="80.0" y="97.0" type="line"/>
      <point x="20.0" y="72.0" type="line"/>
    </contour>
  </outline>
</glyph>
<glyph name="I" format="2">
  <advance width="361.0"/>
  <unicode hex="0049"/>
  <anchor x="184.0" y="0.0" name="bottom"/>
  <anchor x="291.0" y="0.0" name="ogonek"/>
  <anchor x="180.0" y="612.0" name="top"/>
  <outline>
    <contour>
      <point x="20.0" y="0.0" type="line"/>
      <point x="341.0" y="0.0" type="line"/>
      <point x="341.0" y="72.0" type="line"/>
      <point x="276.0" y="97.0" type="line"/>
      <point x="276.0" y="515.0" type="line"/>
      <point x="341.0" y="540.0" type="line"/>
      <point x="341.0" y="612.0" type="line"/>
      <point x="20.0" y="612.0" type="line"/>
      <point x="20.0" y="540.0" type="line"/>
      <point x="85.0" y="515.0" type="line"/>
      <point x="85.0" y="97.0" type="line"/>
      <point x="20.0" y="72.0" type="line"/>
    </contour>
  </outline>
</glyph>
<glyph name="J" format="2">
  <advance width="344.0"/>
  <unicode hex="004A"/>
  <anchor x="172.0" y="612.0" name="top"/>
  <outline>
    <contour>
      <point x="95.0" y="-153.0" type="curve" smooth="yes"/>
      <point x="134.0" y="-153.0"/>
      <point x="269.0" y="-24.0"/>
      <point x="269.0" y="58.0" type="curve" smooth="yes"/>
      <point x="269.0" y="515.0" type="line"/>
      <point x="334.0" y="540.0" type="line"/>
      <point x="334.0" y="612.0" type="line"/>
      <point x="13.0" y="612.0" type="line"/>
      <point x="13.0" y="540.0" type="line"/>
      <point x="78.0" y="515.0" type="line"/>
      <point x="78.0" y="70.0" type="line" smooth="yes"/>
      <point x="78.0" y="38.0"/>
      <point x="77.0" y="-34.0"/>
      <point x="46.0" y="-39.0" type="curve" smooth="yes"/>
      <point x="31.0" y="-42.0"/>
      <point x="-32.0" y="-42.0"/>
      <point x="-60.0" y="-42.0" type="curve"/>
      <point x="-60.0" y="-129.0" type="line"/>
      <point x="0.0" y="-138.0"/>
      <point x="67.0" y="-153.0"/>
    </contour>
  </outline>
</glyph>
<glyph name="K" format="2">
  <advance width="668.0"/>
  <unicode hex="004B"/>
  <anchor x="354.0" y="0.0" name="bottom"/>
  <outline>
    <contour>
      <point x="440.0" y="0.0" type="curve"/>
      <point x="666.0" y="0.0" type="line"/>
      <point x="666.0" y="72.0" type="line"/>
      <point x="610.0" y="97.0" type="line"/>
      <point x="576.0" y="146.0"/>
      <point x="484.0" y="280.0"/>
      <point x="448.0" y="334.0" type="curve"/>
      <point x="597.0" y="520.0" type="line"/>
      <point x="654.0" y="540.0" type="line"/>
      <point x="654.0" y="612.0" type="line"/>
      <point x="366.0" y="612.0" type="line"/>
      <point x="366.0" y="532.0" type="line"/>
      <point x="423.0" y="512.0" type="line"/>
      <point x="284.0" y="333.0" type="line"/>
      <point x="284.0" y="272.0" type="line"/>
      <point x="323.0" y="204.0"/>
      <point x="405.0" y="59.0"/>
    </contour>
    <contour>
      <point x="20.0" y="0.0" type="line"/>
      <point x="325.0" y="0.0" type="line"/>
      <point x="325.0" y="84.0" type="line"/>
      <point x="267.0" y="107.0" type="line"/>
      <point x="267.0" y="505.0" type="line"/>
      <point x="323.0" y="532.0" type="line"/>
      <point x="323.0" y="612.0" type="line"/>
      <point x="20.0" y="612.0" type="line"/>
      <point x="20.0" y="540.0" type="line"/>
      <point x="80.0" y="515.0" type="line"/>
      <point x="80.0" y="97.0" type="line"/>
      <point x="20.0" y="72.0" type="line"/>
    </contour>
  </outline>
</glyph>
<glyph name="L" format="2">
  <advance width="523.0"/>
  <unicode hex="004C"/>
  <anchor x="271.0" y="0.0" name="bottom"/>
  <anchor x="204.0" y="307.0" name="center"/>
  <anchor x="177.0" y="612.0" name="top"/>
  <anchor x="365.0" y="448.0" name="topright"/>
  <outline>
    <contour>
      <point x="20.0" y="0.0" type="line"/>
      <point x="513.0" y="0.0" type="line"/>
      <point x="509.0" y="219.0" type="line"/>
      <point x="420.0" y="219.0" type="line"/>
      <point x="398.0" y="88.0" type="line"/>
      <point x="271.0" y="104.0" type="line"/>
      <point x="271.0" y="515.0" type="line"/>
      <point x="341.0" y="540.0" type="line"/>
      <point x="341.0" y="612.0" type="line"/>
      <point x="20.0" y="612.0" type="line"/>
      <point x="20.0" y="540.0" type="line"/>
      <point x="80.0" y="515.0" type="line"/>
      <point x="80.0" y="97.0" type="line"/>
      <point x="20.0" y="72.0" type="line"/>
    </contour>
  </outline>
</glyph>
<glyph name="M" format="2">
  <advance width="855.0"/>
  <unicode hex="004D"/>
  <outline>
    <contour>
      <point x="10.0" y="0.0" type="line"/>
      <point x="278.0" y="0.0" type="line"/>
      <point x="278.0" y="80.0" type="line"/>
      <point x="208.0" y="105.0" type="line"/>
      <point x="218.0" y="360.0" type="line"/>
      <point x="228.0" y="360.0" type="line"/>
      <point x="228.0" y="360.0"/>
      <point x="242.0" y="293.0"/>
      <point x="261.0" y="240.0" type="curve" smooth="yes"/>
      <point x="336.0" y="32.0" type="line"/>
      <point x="336.0" y="32.0"/>
      <point x="357.0" y="19.0"/>
      <point x="360.0" y="19.0" type="curve" smooth="yes"/>
      <point x="369.0" y="19.0"/>
      <point x="476.0" y="35.0"/>
      <point x="476.0" y="35.0" type="curve"/>
      <point x="549.0" y="235.0" type="line" smooth="yes"/>
      <point x="561.0" y="269.0"/>
      <point x="574.0" y="320.0"/>
      <point x="582.0" y="360.0" type="curve"/>
      <point x="592.0" y="360.0" type="line"/>
      <point x="599.0" y="105.0" type="line"/>
      <point x="529.0" y="80.0" type="line"/>
      <point x="529.0" y="0.0" type="line"/>
      <point x="849.0" y="0.0" type="line"/>
      <point x="849.0" y="72.0" type="line"/>
      <point x="789.0" y="97.0" type="line"/>
      <point x="769.0" y="515.0" type="line"/>
      <point x="829.0" y="540.0" type="line"/>
      <point x="829.0" y="612.0" type="line"/>
      <point x="541.0" y="612.0" type="line"/>
      <point x="435.0" y="253.0" type="line"/>
      <point x="422.0" y="253.0" type="line"/>
      <point x="317.0" y="612.0" type="line"/>
      <point x="30.0" y="612.0" type="line"/>
      <point x="30.0" y="540.0" type="line"/>
      <point x="90.0" y="515.0" type="line"/>
      <point x="70.0" y="97.0" type="line"/>
      <point x="10.0" y="72.0" type="line"/>
    </contour>
  </outline>
</glyph>
<glyph name="N" format="2">
  <advance width="669.0"/>
  <unicode hex="004E"/>
  <anchor x="335.0" y="0.0" name="bottom"/>
  <anchor x="338.0" y="612.0" name="top"/>
  <outline>
    <contour>
      <point x="421.0" y="-13.0" type="curve" smooth="yes"/>
      <point x="430.0" y="-13.0"/>
      <point x="599.0" y="6.0"/>
      <point x="599.0" y="6.0" type="curve"/>
      <point x="599.0" y="515.0" type="line"/>
      <point x="659.0" y="540.0" type="line"/>
      <point x="659.0" y="612.0" type="line"/>
      <point x="392.0" y="612.0" type="line"/>
      <point x="392.0" y="532.0" type="line"/>
      <point x="461.0" y="507.0" type="line"/>
      <point x="461.0" y="476.0" type="line"/>
      <point x="470.0" y="250.0" type="line"/>
      <point x="460.0" y="250.0" type="line"/>
      <point x="460.0" y="250.0"/>
      <point x="442.0" y="320.0"/>
      <point x="412.0" y="376.0" type="curve" smooth="yes"/>
      <point x="287.0" y="612.0" type="line"/>
      <point x="20.0" y="612.0" type="line"/>
      <point x="20.0" y="540.0" type="line"/>
      <point x="80.0" y="515.0" type="line"/>
      <point x="80.0" y="97.0" type="line"/>
      <point x="20.0" y="72.0" type="line"/>
      <point x="20.0" y="0.0" type="line"/>
      <point x="288.0" y="0.0" type="line"/>
      <point x="288.0" y="80.0" type="line"/>
      <point x="218.0" y="105.0" type="line"/>
      <point x="218.0" y="140.0" type="line"/>
      <point x="209.0" y="360.0" type="line"/>
      <point x="219.0" y="360.0" type="line"/>
      <point x="219.0" y="360.0"/>
      <point x="240.0" y="281.0"/>
      <point x="289.0" y="193.0" type="curve" smooth="yes"/>
      <point x="397.0" y="0.0" type="line"/>
      <point x="397.0" y="0.0"/>
      <point x="418.0" y="-13.0"/>
    </contour>
  </outline>
</glyph>
<glyph name="O" format="2">
  <advance width="610.0"/>
  <unicode hex="004F"/>
  <anchor x="310.0" y="0.0" name="bottom"/>
  <anchor x="296.0" y="296.0" name="center"/>
  <anchor x="318.0" y="0.0" name="ogonek"/>
  <anchor x="309.0" y="612.0" name="top"/>
  <anchor x="404.0" y="612.0" name="topright"/>
  <outline>
    <contour>
      <point x="318.0" y="-13.0" type="curve" smooth="yes"/>
      <point x="362.0" y="-13.0"/>
      <point x="514.0" y="66.0"/>
      <point x="562.0" y="117.0" type="curve"/>
      <point x="578.0" y="162.0"/>
      <point x="595.0" y="233.0"/>
      <point x="595.0" y="324.0" type="curve" smooth="yes"/>
      <point x="595.0" y="536.0"/>
      <point x="493.0" y="625.0"/>
      <point x="292.0" y="625.0" type="curve" smooth="yes"/>
      <point x="246.0" y="625.0"/>
      <point x="97.0" y="540.0"/>
      <point x="48.0" y="485.0" type="curve"/>
      <point x="32.0" y="442.0"/>
      <point x="15.0" y="374.0"/>
      <point x="15.0" y="287.0" type="curve" smooth="yes"/>
      <point x="15.0" y="77.0"/>
      <point x="117.0" y="-13.0"/>
    </contour>
    <contour>
      <point x="311.0" y="81.0" type="curve" smooth="yes"/>
      <point x="237.0" y="81.0"/>
      <point x="214.0" y="135.0"/>
      <point x="214.0" y="308.0" type="curve" smooth="yes"/>
      <point x="214.0" y="428.0"/>
      <point x="228.0" y="517.0"/>
      <point x="242.0" y="524.0" type="curve" smooth="yes"/>
      <point x="256.0" y="531.0"/>
      <point x="282.0" y="532.0"/>
      <point x="298.0" y="532.0" type="curve" smooth="yes"/>
      <point x="386.0" y="532.0"/>
      <point x="395.0" y="449.0"/>
      <point x="395.0" y="305.0" type="curve" smooth="yes"/>
      <point x="395.0" y="203.0"/>
      <point x="390.0" y="143.0"/>
      <point x="384.0" y="100.0" type="curve"/>
      <point x="379.0" y="97.0"/>
      <point x="325.0" y="81.0"/>
    </contour>
  </outline>
</glyph>
<glyph name="P" format="2">
  <advance width="581.0"/>
  <unicode hex="0050"/>
  <outline>
    <contour>
      <point x="20.0" y="0.0" type="line"/>
      <point x="371.0" y="0.0" type="line"/>
      <point x="371.0" y="74.0" type="line"/>
      <point x="271.0" y="105.0" type="line"/>
      <point x="271.0" y="209.0" type="line"/>
      <point x="381.0" y="209.0" type="line" smooth="yes"/>
      <point x="480.0" y="209.0"/>
      <point x="571.0" y="263.0"/>
      <point x="571.0" y="418.0" type="curve" smooth="yes"/>
      <point x="571.0" y="560.0"/>
      <point x="509.0" y="612.0"/>
      <point x="410.0" y="612.0" type="curve" smooth="yes"/>
      <point x="20.0" y="612.0" type="line"/>
      <point x="20.0" y="540.0" type="line"/>
      <point x="80.0" y="515.0" type="line"/>
      <point x="80.0" y="97.0" type="line"/>
      <point x="20.0" y="72.0" type="line"/>
    </contour>
    <contour>
      <point x="271.0" y="310.0" type="line"/>
      <point x="271.0" y="510.0" type="line"/>
      <point x="338.0" y="519.0" type="line"/>
      <point x="376.0" y="519.0"/>
      <point x="395.0" y="479.0"/>
      <point x="395.0" y="405.0" type="curve" smooth="yes"/>
      <point x="395.0" y="316.0"/>
      <point x="367.0" y="310.0"/>
      <point x="315.0" y="310.0" type="curve" smooth="yes"/>
    </contour>
  </outline>
</glyph>
<glyph name="R" format="2">
  <advance width="626.0"/>
  <unicode hex="0052"/>
  <anchor x="328.0" y="0.0" name="bottom"/>
  <anchor x="292.0" y="612.0" name="top"/>
  <outline>
    <contour>
      <point x="20.0" y="0.0" type="line"/>
      <point x="331.0" y="0.0" type="line"/>
      <point x="331.0" y="74.0" type="line"/>
      <point x="271.0" y="105.0" type="line"/>
      <point x="271.0" y="236.0" type="line"/>
      <point x="314.0" y="236.0" type="line"/>
      <point x="343.0" y="166.0"/>
      <point x="391.0" y="32.0"/>
      <point x="404.0" y="0.0" type="curve"/>
      <point x="626.0" y="0.0" type="line"/>
      <point x="626.0" y="71.0" type="line"/>
      <point x="572.0" y="97.0" type="line"/>
      <point x="548.0" y="136.0"/>
      <point x="501.0" y="220.0"/>
      <point x="476.0" y="259.0" type="curve"/>
      <point x="476.0" y="265.0" type="line"/>
      <point x="527.0" y="298.0"/>
      <point x="564.0" y="354.0"/>
      <point x="564.0" y="439.0" type="curve" smooth="yes"/>
      <point x="564.0" y="566.0"/>
      <point x="502.0" y="612.0"/>
      <point x="403.0" y="612.0" type="curve" smooth="yes"/>
      <point x="20.0" y="612.0" type="line"/>
      <point x="20.0" y="540.0" type="line"/>
      <point x="80.0" y="515.0" type="line"/>
      <point x="80.0" y="97.0" type="line"/>
      <point x="20.0" y="72.0" type="line"/>
    </contour>
    <contour>
      <point x="271.0" y="332.0" type="line"/>
      <point x="271.0" y="510.0" type="line"/>
      <point x="326.0" y="519.0" type="line"/>
      <point x="357.0" y="519.0"/>
      <point x="373.0" y="483.0"/>
      <point x="373.0" y="416.0" type="curve" smooth="yes"/>
      <point x="373.0" y="335.0"/>
      <point x="348.0" y="332.0"/>
      <point x="303.0" y="332.0" type="curve" smooth="yes"/>
    </contour>
  </outline>
</glyph>
<glyph name="S" format="2">
  <advance width="463.0"/>
  <unicode hex="0053"/>
  <anchor x="231.0" y="0.0" name="bottom"/>
  <anchor x="240.0" y="612.0" name="top"/>
  <outline>
    <contour>
      <point x="250.0" y="-13.0" type="curve" smooth="yes"/>
      <point x="297.0" y="-13.0"/>
      <point x="419.0" y="68.0"/>
      <point x="452.0" y="126.0" type="curve"/>
      <point x="454.0" y="139.0"/>
      <point x="457.0" y="161.0"/>
      <point x="457.0" y="179.0" type="curve" smooth="yes"/>
      <point x="457.0" y="286.0"/>
      <point x="356.0" y="330.0"/>
      <point x="279.0" y="378.0" type="curve" smooth="yes"/>
      <point x="232.0" y="407.0"/>
      <point x="195.0" y="439.0"/>
      <point x="195.0" y="487.0" type="curve" smooth="yes"/>
      <point x="195.0" y="505.0"/>
      <point x="202.0" y="527.0"/>
      <point x="209.0" y="527.0" type="curve" smooth="yes"/>
      <point x="231.0" y="527.0"/>
      <point x="296.0" y="514.0"/>
      <point x="329.0" y="508.0" type="curve"/>
      <point x="342.0" y="417.0" type="line"/>
      <point x="431.0" y="417.0" type="line"/>
      <point x="439.0" y="601.0" type="line"/>
      <point x="361.0" y="613.0"/>
      <point x="251.0" y="625.0"/>
      <point x="226.0" y="625.0" type="curve" smooth="yes"/>
      <point x="183.0" y="625.0"/>
      <point x="51.0" y="535.0"/>
      <point x="23.0" y="484.0" type="curve"/>
      <point x="20.0" y="466.0"/>
      <point x="19.0" y="451.0"/>
      <point x="19.0" y="436.0" type="curve" smooth="yes"/>
      <point x="19.0" y="326.0"/>
      <point x="104.0" y="276.0"/>
      <point x="176.0" y="233.0" type="curve" smooth="yes"/>
      <point x="228.0" y="201.0"/>
      <point x="274.0" y="172.0"/>
      <point x="275.0" y="125.0" type="curve" smooth="yes"/>
      <point x="275.0" y="108.0"/>
      <point x="262.0" y="86.0"/>
      <point x="260.0" y="86.0" type="curve" smooth="yes"/>
      <point x="245.0" y="86.0"/>
      <point x="185.0" y="94.0"/>
      <point x="134.0" y="103.0" type="curve"/>
      <point x="113.0" y="203.0" type="line"/>
      <point x="23.0" y="203.0" type="line"/>
      <point x="16.0" y="5.0" type="line"/>
      <point x="88.0" y="-1.0"/>
      <point x="188.0" y="-13.0"/>
    </contour>
  </outline>
</glyph>
<glyph name="T" format="2">
  <advance width="589.0"/>
  <unicode hex="0054"/>
  <anchor x="297.0" y="0.0" name="bottom"/>
  <anchor x="295.0" y="283.0" name="center"/>
  <anchor x="297.0" y="612.0" name="top"/>
  <outline>
    <contour>
      <point x="114.0" y="0.0" type="line"/>
      <point x="475.0" y="0.0" type="line"/>
      <point x="475.0" y="72.0" type="line"/>
      <point x="390.0" y="97.0" type="line"/>
      <point x="390.0" y="517.0" type="line"/>
      <point x="464.0" y="508.0" type="line"/>
      <point x="477.0" y="394.0" type="line"/>
      <point x="566.0" y="394.0" type="line"/>
      <point x="579.0" y="612.0" type="line"/>
      <point x="10.0" y="612.0" type="line"/>
      <point x="23.0" y="394.0" type="line"/>
      <point x="112.0" y="394.0" type="line"/>
      <point x="125.0" y="508.0" type="line"/>
      <point x="199.0" y="517.0" type="line"/>
      <point x="199.0" y="97.0" type="line"/>
      <point x="114.0" y="72.0" type="line"/>
    </contour>
  </outline>
</glyph>
<glyph name="U" format="2">
  <advance width="673.0"/>
  <unicode hex="0055"/>
  <anchor x="348.0" y="0.0" name="bottom"/>
  <anchor x="603.0" y="-1.0" name="ogonek"/>
  <anchor x="331.0" y="612.0" name="top"/>
  <outline>
    <contour>
      <point x="269.0" y="-13.0" type="curve" smooth="yes"/>
      <point x="278.0" y="-13.0"/>
      <point x="376.0" y="40.0"/>
      <point x="413.0" y="61.0" type="curve"/>
      <point x="436.0" y="0.0" type="line"/>
      <point x="653.0" y="0.0" type="line"/>
      <point x="653.0" y="72.0" type="line"/>
      <point x="593.0" y="97.0" type="line"/>
      <point x="593.0" y="515.0" type="line"/>
      <point x="653.0" y="540.0" type="line"/>
      <point x="653.0" y="612.0" type="line"/>
      <point x="353.0" y="612.0" type="line"/>
      <point x="353.0" y="532.0" type="line"/>
      <point x="406.0" y="505.0" type="line"/>
      <point x="406.0" y="161.0" type="line"/>
      <point x="373.0" y="152.0"/>
      <point x="340.0" y="142.0"/>
      <point x="316.0" y="142.0" type="curve" smooth="yes"/>
      <point x="279.0" y="142.0"/>
      <point x="257.0" y="153.0"/>
      <point x="257.0" y="240.0" type="curve" smooth="yes"/>
      <point x="257.0" y="505.0" type="line"/>
      <point x="310.0" y="532.0" type="line"/>
      <point x="310.0" y="612.0" type="line"/>
      <point x="10.0" y="612.0" type="line"/>
      <point x="10.0" y="540.0" type="line"/>
      <point x="70.0" y="515.0" type="line"/>
      <point x="70.0" y="205.0" type="line" smooth="yes"/>
      <point x="70.0" y="57.0"/>
      <point x="115.0" y="-13.0"/>
    </contour>
  </outline>
</glyph>
<glyph name="V" format="2">
  <advance width="652.0"/>
  <unicode hex="0056"/>
  <outline>
    <contour>
      <point x="249.0" y="-13.0" type="curve" smooth="yes"/>
      <point x="258.0" y="-13.0"/>
      <point x="433.0" y="6.0"/>
      <point x="433.0" y="6.0" type="curve"/>
      <point x="461.0" y="100.0"/>
      <point x="568.0" y="451.0"/>
      <point x="588.0" y="520.0" type="curve"/>
      <point x="650.0" y="540.0" type="line"/>
      <point x="650.0" y="612.0" type="line"/>
      <point x="371.0" y="612.0" type="line"/>
      <point x="371.0" y="532.0" type="line"/>
      <point x="432.0" y="515.0" type="line"/>
      <point x="417.0" y="430.0"/>
      <point x="374.0" y="234.0"/>
      <point x="358.0" y="171.0" type="curve"/>
      <point x="348.0" y="171.0" type="line"/>
      <point x="348.0" y="171.0"/>
      <point x="321.0" y="294.0"/>
      <point x="307.0" y="351.0" type="curve" smooth="yes"/>
      <point x="268.0" y="515.0" type="line"/>
      <point x="328.0" y="532.0" type="line"/>
      <point x="328.0" y="612.0" type="line"/>
      <point x="6.0" y="612.0" type="line"/>
      <point x="6.0" y="540.0" type="line"/>
      <point x="68.0" y="520.0" type="line"/>
      <point x="225.0" y="0.0" type="line"/>
      <point x="225.0" y="0.0"/>
      <point x="246.0" y="-13.0"/>
    </contour>
  </outline>
</glyph>
<glyph name="W" format="2">
  <advance width="977.0"/>
  <unicode hex="0057"/>
  <anchor x="508.0" y="612.0" name="top"/>
  <outline>
    <contour>
      <point x="229.0" y="-13.0" type="curve" smooth="yes"/>
      <point x="238.0" y="-13.0"/>
      <point x="413.0" y="6.0"/>
      <point x="413.0" y="6.0" type="curve"/>
      <point x="479.0" y="228.0" type="line"/>
      <point x="490.0" y="228.0" type="line"/>
      <point x="550.0" y="0.0" type="line"/>
      <point x="550.0" y="0.0"/>
      <point x="571.0" y="-13.0"/>
      <point x="574.0" y="-13.0" type="curve" smooth="yes"/>
      <point x="583.0" y="-13.0"/>
      <point x="758.0" y="6.0"/>
      <point x="758.0" y="6.0" type="curve"/>
      <point x="786.0" y="100.0"/>
      <point x="893.0" y="451.0"/>
      <point x="913.0" y="520.0" type="curve"/>
      <point x="975.0" y="540.0" type="line"/>
      <point x="975.0" y="612.0" type="line"/>
      <point x="706.0" y="612.0" type="line"/>
      <point x="706.0" y="532.0" type="line"/>
      <point x="757.0" y="515.0" type="line"/>
      <point x="742.0" y="430.0"/>
      <point x="699.0" y="234.0"/>
      <point x="683.0" y="171.0" type="curve"/>
      <point x="673.0" y="171.0" type="line"/>
      <point x="673.0" y="171.0"/>
      <point x="648.0" y="295.0"/>
      <point x="636.0" y="351.0" type="curve" smooth="yes"/>
      <point x="602.0" y="515.0" type="line"/>
      <point x="663.0" y="532.0" type="line"/>
      <point x="663.0" y="612.0" type="line"/>
      <point x="361.0" y="612.0" type="line"/>
      <point x="361.0" y="540.0" type="line"/>
      <point x="413.0" y="520.0" type="line"/>
      <point x="428.0" y="463.0" type="line"/>
      <point x="401.0" y="367.0"/>
      <point x="357.0" y="229.0"/>
      <point x="338.0" y="171.0" type="curve"/>
      <point x="328.0" y="171.0" type="line"/>
      <point x="328.0" y="171.0"/>
      <point x="307.0" y="294.0"/>
      <point x="297.0" y="351.0" type="curve" smooth="yes"/>
      <point x="268.0" y="515.0" type="line"/>
      <point x="318.0" y="532.0" type="line"/>
      <point x="318.0" y="612.0" type="line"/>
      <point x="6.0" y="612.0" type="line"/>
      <point x="6.0" y="540.0" type="line"/>
      <point x="68.0" y="520.0" type="line"/>
      <point x="205.0" y="0.0" type="line"/>
      <point x="205.0" y="0.0"/>
      <point x="226.0" y="-13.0"/>
    </contour>
  </outline>
</glyph>
<glyph name="X" format="2">
  <advance width="683.0"/>
  <unicode hex="0058"/>
  <outline>
    <contour>
      <point x="0.0" y="0.0" type="line"/>
      <point x="297.0" y="0.0" type="line"/>
      <point x="297.0" y="84.0" type="line"/>
      <point x="232.0" y="99.0" type="line"/>
      <point x="307.0" y="243.0" type="line"/>
      <point x="317.0" y="243.0" type="line"/>
      <point x="408.0" y="99.0" type="line"/>
      <point x="340.0" y="84.0" type="line"/>
      <point x="340.0" y="0.0" type="line"/>
      <point x="683.0" y="0.0" type="line"/>
      <point x="683.0" y="72.0" type="line"/>
      <point x="632.0" y="97.0" type="line"/>
      <point x="457.0" y="327.0" type="line"/>
      <point x="593.0" y="515.0" type="line"/>
      <point x="653.0" y="540.0" type="line"/>
      <point x="653.0" y="612.0" type="line"/>
      <point x="383.0" y="612.0" type="line"/>
      <point x="383.0" y="532.0" type="line"/>
      <point x="428.0" y="523.0" type="line"/>
      <point x="372.0" y="401.0" type="line"/>
      <point x="362.0" y="401.0" type="line"/>
      <point x="295.0" y="523.0" type="line"/>
      <point x="340.0" y="532.0" type="line"/>
      <point x="340.0" y="612.0" type="line"/>
      <point x="30.0" y="612.0" type="line"/>
      <point x="30.0" y="540.0" type="line"/>
      <point x="80.0" y="515.0" type="line"/>
      <point x="221.0" y="321.0" type="line"/>
      <point x="61.0" y="97.0" type="line"/>
      <point x="0.0" y="72.0" type="line"/>
    </contour>
  </outline>
</glyph>
<glyph name="Y" format="2">
  <advance width="595.0"/>
  <unicode hex="0059"/>
  <anchor x="302.0" y="0.0" name="bottom"/>
  <anchor x="316.0" y="612.0" name="top"/>
  <outline>
    <contour>
      <point x="137.0" y="0.0" type="line"/>
      <point x="458.0" y="0.0" type="line"/>
      <point x="458.0" y="72.0" type="line"/>
      <point x="393.0" y="97.0" type="line"/>
      <point x="393.0" y="245.0" type="line"/>
      <point x="431.0" y="314.0"/>
      <point x="520.0" y="480.0"/>
      <point x="538.0" y="520.0" type="curve"/>
      <point x="600.0" y="540.0" type="line"/>
      <point x="600.0" y="612.0" type="line"/>
      <point x="341.0" y="612.0" type="line"/>
      <point x="341.0" y="532.0" type="line"/>
      <point x="392.0" y="515.0" type="line"/>
      <point x="376.0" y="472.0"/>
      <point x="337.0" y="378.0"/>
      <point x="324.0" y="351.0" type="curve"/>
      <point x="314.0" y="351.0" type="line"/>
      <point x="314.0" y="351.0"/>
      <point x="292.0" y="406.0"/>
      <point x="247.0" y="515.0" type="curve"/>
      <point x="297.0" y="532.0" type="line"/>
      <point x="297.0" y="612.0" type="line"/>
      <point x="-5.0" y="612.0" type="line"/>
      <point x="-5.0" y="540.0" type="line"/>
      <point x="57.0" y="520.0" type="line"/>
      <point x="202.0" y="243.0" type="line"/>
      <point x="202.0" y="97.0" type="line"/>
      <point x="137.0" y="72.0" type="line"/>
    </contour>
  </outline>
</glyph>
<glyph name="Z" format="2">
  <advance width="516.0"/>
  <unicode hex="005A"/>
  <anchor x="258.0" y="0.0" name="bottom"/>
  <anchor x="259.0" y="612.0" name="top"/>
  <outline>
    <contour>
      <point x="10.0" y="0.0" type="line"/>
      <point x="506.0" y="0.0" type="line"/>
      <point x="495.0" y="209.0" type="line"/>
      <point x="408.0" y="209.0" type="line"/>
      <point x="388.0" y="88.0" type="line"/>
      <point x="236.0" y="104.0" type="line"/>
      <point x="483.0" y="540.0" type="line"/>
      <point x="483.0" y="612.0" type="line"/>
      <point x="19.0" y="612.0" type="line"/>
      <point x="32.0" y="417.0" type="line"/>
      <point x="122.0" y="417.0" type="line"/>
      <point x="135.0" y="524.0" type="line"/>
      <point x="259.0" y="510.0" type="line"/>
      <point x="10.0" y="72.0" type="line"/>
    </contour>
  </outline>
</glyph>
<glyph name="bracketleft" format="2">
  <advance width="299.0"/>
  <unicode hex="005B"/>
  <outline>
    <contour>
      <point x="270.0" y="-123.0" type="line"/>
      <point x="276.0" y="-39.0" type="line"/>
      <point x="202.0" y="-21.0" type="line"/>
      <point x="202.0" y="599.0" type="line"/>
      <point x="276.0" y="616.0" type="line"/>
      <point x="269.0" y="691.0" type="line"/>
      <point x="50.0" y="679.0" type="line"/>
      <point x="50.0" y="-111.0" type="line"/>
    </contour>
  </outline>
</glyph>
<glyph name="backslash" format="2">
  <advance width="348.0"/>
  <unicode hex="005C"/>
  <outline>
    <contour>
      <point x="209.0" y="-118.0" type="line"/>
      <point x="342.0" y="-118.0" type="line"/>
      <point x="139.0" y="687.0" type="line"/>
      <point x="6.0" y="687.0" type="line"/>
    </contour>
  </outline>
</glyph>
<glyph name="bracketright" format="2">
  <advance width="299.0"/>
  <unicode hex="005D"/>
  <outline>
    <contour>
      <point x="30.0" y="-123.0" type="line"/>
      <point x="249.0" y="-111.0" type="line"/>
      <point x="249.0" y="679.0" type="line"/>
      <point x="29.0" y="691.0" type="line"/>
      <point x="23.0" y="607.0" type="line"/>
      <point x="97.0" y="589.0" type="line"/>
      <point x="97.0" y="-31.0" type="line"/>
      <point x="23.0" y="-48.0" type="line"/>
    </contour>
  </outline>
</glyph>
<glyph name="asciicircum" format="2">
  <advance width="543.0"/>
  <unicode hex="005E"/>
  <outline>
    <contour>
      <point x="147.0" y="231.0" type="line"/>
      <point x="272.0" y="479.0" type="line"/>
      <point x="396.0" y="231.0" type="line"/>
      <point x="503.0" y="283.0" type="line"/>
      <point x="339.0" y="603.0" type="line"/>
      <point x="204.0" y="603.0" type="line"/>
      <point x="40.0" y="283.0" type="line"/>
    </contour>
  </outline>
</glyph>
<glyph name="underscore" format="2">
  <advance width="408.0"/>
  <unicode hex="005F"/>
  <outline>
    <contour>
      <point x="15.0" y="-193.0" type="line"/>
      <point x="393.0" y="-193.0" type="line"/>
      <point x="393.0" y="-73.0" type="line"/>
      <point x="15.0" y="-73.0" type="line"/>
    </contour>
  </outline>
</glyph>
<glyph name="grave" format="2">
  <advance width="234.0"/>
  <unicode hex="0060"/>
  <outline>
    <contour>
      <point x="185.0" y="516.0" type="line"/>
      <point x="234.0" y="574.0" type="line"/>
      <point x="89.0" y="732.0" type="line"/>
      <point x="0.0" y="653.0" type="line"/>
      <point x="7.0" y="599.0" type="line"/>
    </contour>
  </outline>
</glyph>
<glyph name="a" format="2">
  <advance width="507.0"/>
  <unicode hex="0061"/>
  <anchor x="258.0" y="0.0" name="bottom"/>
  <anchor x="449.0" y="10.0" name="ogonek"/>
  <anchor x="258.0" y="462.0" name="top"/>
  <outline>
    <contour>
      <point x="201.0" y="-13.0" type="curve" smooth="yes"/>
      <point x="206.0" y="-13.0"/>
      <point x="265.0" y="32.0"/>
      <point x="289.0" y="51.0" type="curve"/>
      <point x="289.0" y="30.0" type="line" smooth="yes"/>
      <point x="289.0" y="22.0"/>
      <point x="322.0" y="-13.0"/>
      <point x="329.0" y="-13.0" type="curve" smooth="yes"/>
      <point x="347.0" y="-13.0"/>
      <point x="499.0" y="10.0"/>
      <point x="499.0" y="10.0" type="curve"/>
      <point x="499.0" y="79.0" type="line"/>
      <point x="455.0" y="94.0" type="line"/>
      <point x="455.0" y="443.0" type="line"/>
      <point x="455.0" y="443.0"/>
      <point x="258.0" y="476.0"/>
      <point x="242.0" y="476.0" type="curve" smooth="yes"/>
      <point x="210.0" y="476.0"/>
      <point x="75.0" y="395.0"/>
      <point x="47.0" y="364.0" type="curve"/>
      <point x="34.0" y="331.0"/>
      <point x="20.0" y="266.0"/>
      <point x="20.0" y="205.0" type="curve" smooth="yes"/>
      <point x="20.0" y="75.0"/>
      <point x="82.0" y="-13.0"/>
    </contour>
    <contour>
      <point x="238.0" y="103.0" type="curve" smooth="yes"/>
      <point x="215.0" y="103.0"/>
      <point x="205.0" y="163.0"/>
      <point x="205.0" y="220.0" type="curve" smooth="yes"/>
      <point x="205.0" y="326.0"/>
      <point x="212.0" y="389.0"/>
      <point x="226.0" y="399.0" type="curve" smooth="yes"/>
      <point x="234.0" y="405.0"/>
      <point x="265.0" y="378.0"/>
      <point x="282.0" y="363.0" type="curve"/>
      <point x="282.0" y="124.0" type="line"/>
      <point x="282.0" y="124.0"/>
      <point x="244.0" y="103.0"/>
    </contour>
  </outline>
</glyph>
<glyph name="b" format="2">
  <advance width="495.0"/>
  <unicode hex="0062"/>
  <outline>
    <contour>
      <point x="253.0" y="-13.0" type="curve" smooth="yes"/>
      <point x="285.0" y="-13.0"/>
      <point x="420.0" y="68.0"/>
      <point x="448.0" y="99.0" type="curve"/>
      <point x="461.0" y="130.0"/>
      <point x="475.0" y="192.0"/>
      <point x="475.0" y="249.0" type="curve" smooth="yes"/>
      <point x="475.0" y="385.0"/>
      <point x="413.0" y="476.0"/>
      <point x="294.0" y="476.0" type="curve" smooth="yes"/>
      <point x="289.0" y="476.0"/>
      <point x="237.0" y="436.0"/>
      <point x="211.0" y="416.0" type="curve"/>
      <point x="204.0" y="418.0" type="line"/>
      <point x="213.0" y="621.0" type="line" smooth="yes"/>
      <point x="213.0" y="629.0"/>
      <point x="180.0" y="664.0"/>
      <point x="173.0" y="664.0" type="curve" smooth="yes"/>
      <point x="156.0" y="664.0"/>
      <point x="31.0" y="647.0"/>
      <point x="-4.0" y="641.0" type="curve"/>
      <point x="-4.0" y="572.0" type="line"/>
      <point x="40.0" y="557.0" type="line"/>
      <point x="40.0" y="28.0" type="line"/>
      <point x="86.0" y="18.0"/>
      <point x="240.0" y="-13.0"/>
    </contour>
    <contour>
      <point x="270.0" y="65.0" type="curve" smooth="yes"/>
      <point x="262.0" y="57.0"/>
      <point x="233.0" y="82.0"/>
      <point x="213.0" y="100.0" type="curve"/>
      <point x="213.0" y="339.0" type="line"/>
      <point x="213.0" y="339.0"/>
      <point x="251.0" y="360.0"/>
      <point x="257.0" y="360.0" type="curve" smooth="yes"/>
      <point x="280.0" y="360.0"/>
      <point x="290.0" y="296.0"/>
      <point x="290.0" y="234.0" type="curve" smooth="yes"/>
      <point x="290.0" y="134.0"/>
      <point x="282.0" y="76.0"/>
    </contour>
  </outline>
</glyph>
<glyph name="c" format="2">
  <advance width="399.0"/>
  <unicode hex="0063"/>
  <anchor x="208.0" y="0.0" name="bottom"/>
  <anchor x="205.0" y="462.0" name="top"/>
  <outline>
    <contour>
      <point x="207.0" y="-13.0" type="curve" smooth="yes"/>
      <point x="252.0" y="-13.0"/>
      <point x="351.0" y="30.0"/>
      <point x="380.0" y="41.0" type="curve"/>
      <point x="380.0" y="111.0" type="line"/>
      <point x="266.0" y="111.0" type="line" smooth="yes"/>
      <point x="214.0" y="111.0"/>
      <point x="201.0" y="170.0"/>
      <point x="201.0" y="235.0" type="curve" smooth="yes"/>
      <point x="201.0" y="316.0"/>
      <point x="208.0" y="376.0"/>
      <point x="220.0" y="386.0" type="curve" smooth="yes"/>
      <point x="223.0" y="389.0"/>
      <point x="227.0" y="390.0"/>
      <point x="231.0" y="390.0" type="curve" smooth="yes"/>
      <point x="241.0" y="390.0"/>
      <point x="253.0" y="383.0"/>
      <point x="266.0" y="375.0" type="curve"/>
      <point x="284.0" y="291.0" type="line"/>
      <point x="377.0" y="291.0" type="line"/>
      <point x="380.0" y="452.0" type="line"/>
      <point x="336.0" y="467.0"/>
      <point x="276.0" y="476.0"/>
      <point x="238.0" y="476.0" type="curve" smooth="yes"/>
      <point x="207.0" y="476.0"/>
      <point x="74.0" y="391.0"/>
      <point x="47.0" y="360.0" type="curve"/>
      <point x="34.0" y="327.0"/>
      <point x="20.0" y="266.0"/>
      <point x="20.0" y="205.0" type="curve" smooth="yes"/>
      <point x="20.0" y="75.0"/>
      <point x="84.0" y="-13.0"/>
    </contour>
  </outline>
</glyph>
<glyph name="d" format="2">
  <advance width="507.0"/>
  <unicode hex="0064"/>
  <anchor x="253.0" y="0.0" name="bottom"/>
  <anchor x="325.0" y="520.0" name="center"/>
  <anchor x="253.0" y="750.0" name="top"/>
  <anchor x="468.0" y="462.0" name="topright"/>
  <outline>
    <contour>
      <point x="201.0" y="-13.0" type="curve" smooth="yes"/>
      <point x="206.0" y="-13.0"/>
      <point x="265.0" y="32.0"/>
      <point x="289.0" y="51.0" type="curve"/>
      <point x="289.0" y="30.0" type="line" smooth="yes"/>
      <point x="289.0" y="22.0"/>
      <point x="322.0" y="-13.0"/>
      <point x="329.0" y="-13.0" type="curve" smooth="yes"/>
      <point x="347.0" y="-13.0"/>
      <point x="499.0" y="10.0"/>
      <point x="499.0" y="10.0" type="curve"/>
      <point x="499.0" y="79.0" type="line"/>
      <point x="455.0" y="94.0" type="line"/>
      <point x="455.0" y="440.0" type="line"/>
      <point x="462.0" y="622.0" type="line" smooth="yes"/>
      <point x="462.0" y="630.0"/>
      <point x="429.0" y="665.0"/>
      <point x="422.0" y="665.0" type="curve" smooth="yes"/>
      <point x="403.0" y="665.0"/>
      <point x="238.0" y="642.0"/>
      <point x="238.0" y="642.0" type="curve"/>
      <point x="238.0" y="573.0" type="line"/>
      <point x="282.0" y="558.0" type="line"/>
      <point x="282.0" y="472.0" type="line"/>
      <point x="261.0" y="475.0"/>
      <point x="246.0" y="477.0"/>
      <point x="242.0" y="477.0" type="curve" smooth="yes"/>
      <point x="210.0" y="477.0"/>
      <point x="75.0" y="396.0"/>
      <point x="47.0" y="365.0" type="curve"/>
      <point x="34.0" y="332.0"/>
      <point x="20.0" y="266.0"/>
      <point x="20.0" y="205.0" type="curve" smooth="yes"/>
      <point x="20.0" y="75.0"/>
      <point x="82.0" y="-13.0"/>
    </contour>
    <contour>
      <point x="238.0" y="103.0" type="curve" smooth="yes"/>
      <point x="215.0" y="103.0"/>
      <point x="205.0" y="163.0"/>
      <point x="205.0" y="220.0" type="curve" smooth="yes"/>
      <point x="205.0" y="326.0"/>
      <point x="212.0" y="389.0"/>
      <point x="226.0" y="399.0" type="curve" smooth="yes"/>
      <point x="235.0" y="406.0"/>
      <point x="273.0" y="372.0"/>
      <point x="282.0" y="363.0" type="curve"/>
      <point x="282.0" y="124.0" type="line"/>
      <point x="282.0" y="124.0"/>
      <point x="244.0" y="103.0"/>
    </contour>
  </outline>
</glyph>
<glyph name="e" format="2">
  <advance width="447.0"/>
  <unicode hex="0065"/>
  <anchor x="240.0" y="0.0" name="bottom"/>
  <anchor x="365.0" y="44.0" name="ogonek"/>
  <anchor x="219.0" y="462.0" name="top"/>
  <outline>
    <contour>
      <point x="227.0" y="-14.0" type="curve" smooth="yes"/>
      <point x="251.0" y="-14.0"/>
      <point x="384.0" y="32.0"/>
      <point x="415.0" y="44.0" type="curve"/>
      <point x="415.0" y="114.0" type="line"/>
      <point x="377.0" y="112.0"/>
      <point x="255.0" y="106.0"/>
      <point x="255.0" y="106.0" type="curve"/>
      <point x="216.0" y="106.0"/>
      <point x="197.0" y="154.0"/>
      <point x="197.0" y="201.0" type="curve"/>
      <point x="432.0" y="221.0" type="line"/>
      <point x="432.0" y="416.0"/>
      <point x="364.0" y="476.0"/>
      <point x="242.0" y="476.0" type="curve" smooth="yes"/>
      <point x="210.0" y="476.0"/>
      <point x="75.0" y="395.0"/>
      <point x="47.0" y="364.0" type="curve"/>
      <point x="34.0" y="331.0"/>
      <point x="20.0" y="265.0"/>
      <point x="20.0" y="204.0" type="curve" smooth="yes"/>
      <point x="20.0" y="74.0"/>
      <point x="91.0" y="-14.0"/>
    </contour>
    <contour>
      <point x="196.0" y="277.0" type="line"/>
      <point x="200.0" y="352.0"/>
      <point x="212.0" y="402.0"/>
      <point x="219.0" y="402.0" type="curve" smooth="yes"/>
      <point x="221.0" y="402.0"/>
      <point x="240.0" y="400.0"/>
      <point x="246.0" y="397.0" type="curve" smooth="yes"/>
      <point x="260.0" y="388.0"/>
      <point x="270.0" y="342.0"/>
      <point x="270.0" y="288.0" type="curve"/>
    </contour>
  </outline>
</glyph>
<glyph name="f" format="2">
  <advance width="329.0"/>
  <unicode hex="0066"/>
  <anchor x="203.0" y="640.0" name="top"/>
  <outline>
    <contour>
      <point x="106.0" y="-13.0" type="curve" smooth="yes"/>
      <point x="123.0" y="-13.0"/>
      <point x="290.0" y="16.0"/>
      <point x="290.0" y="16.0" type="curve"/>
      <point x="290.0" y="76.0" type="line"/>
      <point x="226.0" y="100.0" type="line"/>
      <point x="226.0" y="375.0" type="line"/>
      <point x="335.0" y="375.0" type="line"/>
      <point x="335.0" y="462.0" type="line"/>
      <point x="226.0" y="462.0" type="line"/>
      <point x="226.0" y="528.0" type="line" smooth="yes"/>
      <point x="226.0" y="557.0"/>
      <point x="233.0" y="569.0"/>
      <point x="238.0" y="569.0" type="curve" smooth="yes"/>
      <point x="252.0" y="569.0"/>
      <point x="333.0" y="529.0"/>
      <point x="352.0" y="520.0" type="curve"/>
      <point x="355.0" y="520.0"/>
      <point x="389.0" y="602.0"/>
      <point x="389.0" y="609.0" type="curve" smooth="yes"/>
      <point x="389.0" y="616.0"/>
      <point x="376.0" y="651.0"/>
      <point x="369.0" y="658.0" type="curve"/>
      <point x="326.0" y="661.0"/>
      <point x="234.0" y="665.0"/>
      <point x="220.0" y="665.0" type="curve" smooth="yes"/>
      <point x="175.0" y="665.0"/>
      <point x="53.0" y="548.0"/>
      <point x="53.0" y="506.0" type="curve" smooth="yes"/>
      <point x="53.0" y="467.0" type="line"/>
      <point x="-5.0" y="448.0" type="line"/>
      <point x="-5.0" y="376.0" type="line"/>
      <point x="53.0" y="376.0" type="line"/>
      <point x="53.0" y="31.0" type="line" smooth="yes"/>
      <point x="53.0" y="24.0"/>
      <point x="98.0" y="-13.0"/>
    </contour>
  </outline>
</glyph>
<glyph name="g" format="2">
  <advance width="469.0"/>
  <unicode hex="0067"/>
  <anchor x="241.0" y="462.0" name="top"/>
  <outline>
    <contour>
      <point x="215.0" y="-186.0" type="curve" smooth="yes"/>
      <point x="280.0" y="-186.0"/>
      <point x="434.0" y="-89.0"/>
      <point x="434.0" y="-22.0" type="curve" smooth="yes"/>
      <point x="434.0" y="436.0" type="line"/>
      <point x="434.0" y="436.0"/>
      <point x="237.0" y="477.0"/>
      <point x="221.0" y="477.0" type="curve" smooth="yes"/>
      <point x="193.0" y="477.0"/>
      <point x="72.0" y="396.0"/>
      <point x="46.0" y="365.0" type="curve"/>
      <point x="33.0" y="336.0"/>
      <point x="19.0" y="278.0"/>
      <point x="19.0" y="225.0" type="curve" smooth="yes"/>
      <point x="19.0" y="133.0"/>
      <point x="61.0" y="66.0"/>
      <point x="141.0" y="44.0" type="curve"/>
      <point x="19.0" y="-65.0" type="line"/>
      <point x="10.0" y="-156.0" type="line"/>
      <point x="49.0" y="-167.0"/>
      <point x="166.0" y="-186.0"/>
    </contour>
    <contour>
      <point x="245.0" y="-112.0" type="curve" smooth="yes"/>
      <point x="229.0" y="-112.0"/>
      <point x="165.0" y="-92.0"/>
      <point x="154.0" y="-85.0" type="curve"/>
      <point x="154.0" y="-77.0" type="line"/>
      <point x="171.0" y="-58.0"/>
      <point x="236.0" y="11.0"/>
      <point x="265.0" y="42.0" type="curve"/>
      <point x="271.0" y="39.0" type="line"/>
      <point x="271.0" y="-6.0" type="line" smooth="yes"/>
      <point x="271.0" y="-54.0"/>
      <point x="261.0" y="-112.0"/>
    </contour>
    <contour>
      <point x="232.0" y="131.0" type="curve" smooth="yes"/>
      <point x="209.0" y="131.0"/>
      <point x="199.0" y="186.0"/>
      <point x="199.0" y="250.0" type="curve" smooth="yes"/>
      <point x="199.0" y="339.0"/>
      <point x="207.0" y="393.0"/>
      <point x="221.0" y="401.0" type="curve" smooth="yes"/>
      <point x="228.0" y="405.0"/>
      <point x="266.0" y="364.0"/>
      <point x="266.0" y="364.0" type="curve"/>
      <point x="266.0" y="154.0" type="line"/>
      <point x="266.0" y="154.0"/>
      <point x="238.0" y="131.0"/>
    </contour>
  </outline>
</glyph>
<glyph name="h" format="2">
  <advance width="509.0"/>
  <unicode hex="0068"/>
  <anchor x="270.0" y="0.0" name="bottom"/>
  <anchor x="172.0" y="520.0" name="center"/>
  <anchor x="111.0" y="640.0" name="top"/>
  <outline>
    <contour>
      <point x="92.0" y="-13.0" type="curve" smooth="yes"/>
      <point x="109.0" y="-13.0"/>
      <point x="256.0" y="12.0"/>
      <point x="256.0" y="12.0" type="curve"/>
      <point x="256.0" y="80.0" type="line"/>
      <point x="213.0" y="95.0" type="line"/>
      <point x="213.0" y="341.0" type="line"/>
      <point x="227.0" y="348.0"/>
      <point x="251.0" y="360.0"/>
      <point x="257.0" y="360.0" type="curve" smooth="yes"/>
      <point x="266.0" y="360.0"/>
      <point x="285.0" y="355.0"/>
      <point x="285.0" y="331.0" type="curve" smooth="yes"/>
      <point x="285.0" y="31.0" type="line" smooth="yes"/>
      <point x="285.0" y="22.0"/>
      <point x="329.0" y="-13.0"/>
      <point x="338.0" y="-13.0" type="curve" smooth="yes"/>
      <point x="353.0" y="-13.0"/>
      <point x="501.0" y="12.0"/>
      <point x="501.0" y="12.0" type="curve"/>
      <point x="501.0" y="80.0" type="line"/>
      <point x="458.0" y="95.0" type="line"/>
      <point x="458.0" y="333.0" type="line" smooth="yes"/>
      <point x="458.0" y="443.0"/>
      <point x="399.0" y="476.0"/>
      <point x="298.0" y="476.0" type="curve" smooth="yes"/>
      <point x="290.0" y="476.0"/>
      <point x="242.0" y="441.0"/>
      <point x="212.0" y="417.0" type="curve"/>
      <point x="204.0" y="419.0" type="line"/>
      <point x="213.0" y="622.0" type="line" smooth="yes"/>
      <point x="213.0" y="630.0"/>
      <point x="180.0" y="665.0"/>
      <point x="173.0" y="665.0" type="curve" smooth="yes"/>
      <point x="155.0" y="665.0"/>
      <point x="-4.0" y="642.0"/>
      <point x="-4.0" y="642.0" type="curve"/>
      <point x="-4.0" y="573.0" type="line"/>
      <point x="40.0" y="558.0" type="line"/>
      <point x="40.0" y="31.0" type="line" smooth="yes"/>
      <point x="40.0" y="22.0"/>
      <point x="83.0" y="-13.0"/>
    </contour>
  </outline>
</glyph>
<glyph name="k" format="2">
  <advance width="511.0"/>
  <unicode hex="006B"/>
  <anchor x="251.0" y="0.0" name="bottom"/>
  <outline>
    <contour>
      <point x="360.0" y="-13.0" type="curve" smooth="yes"/>
      <point x="370.0" y="-13.0"/>
      <point x="507.0" y="12.0"/>
      <point x="507.0" y="12.0" type="curve"/>
      <point x="507.0" y="80.0" type="line"/>
      <point x="464.0" y="95.0" type="line"/>
      <point x="368.0" y="258.0" type="line"/>
      <point x="499.0" y="405.0" type="line"/>
      <point x="499.0" y="416.0"/>
      <point x="480.0" y="473.0"/>
      <point x="472.0" y="473.0" type="curve" smooth="yes"/>
      <point x="462.0" y="473.0"/>
      <point x="261.0" y="462.0"/>
      <point x="261.0" y="462.0" type="curve"/>
      <point x="261.0" y="388.0" type="line"/>
      <point x="332.0" y="378.0" type="line"/>
      <point x="230.0" y="263.0" type="line"/>
      <point x="230.0" y="202.0" type="line"/>
      <point x="311.0" y="17.0" type="line"/>
      <point x="317.0" y="8.0"/>
      <point x="352.0" y="-13.0"/>
    </contour>
    <contour>
      <point x="92.0" y="-13.0" type="curve" smooth="yes"/>
      <point x="109.0" y="-13.0"/>
      <point x="252.0" y="12.0"/>
      <point x="252.0" y="12.0" type="curve"/>
      <point x="252.0" y="80.0" type="line"/>
      <point x="213.0" y="95.0" type="line"/>
      <point x="213.0" y="622.0" type="line" smooth="yes"/>
      <point x="213.0" y="630.0"/>
      <point x="180.0" y="665.0"/>
      <point x="173.0" y="665.0" type="curve" smooth="yes"/>
      <point x="155.0" y="665.0"/>
      <point x="-4.0" y="642.0"/>
      <point x="-4.0" y="642.0" type="curve"/>
      <point x="-4.0" y="573.0" type="line"/>
      <point x="40.0" y="558.0" type="line"/>
      <point x="40.0" y="31.0" type="line" smooth="yes"/>
      <point x="40.0" y="22.0"/>
      <point x="83.0" y="-13.0"/>
    </contour>
  </outline>
</glyph>
<glyph name="l" format="2">
  <advance width="264.0"/>
  <unicode hex="006C"/>
  <anchor x="134.0" y="0.0" name="bottom"/>
  <anchor x="134.0" y="329.0" name="center"/>
  <anchor x="130.0" y="642.0" name="top"/>
  <anchor x="245.0" y="462.0" name="topright"/>
  <outline>
    <contour>
      <point x="92.0" y="-13.0" type="curve" smooth="yes"/>
      <point x="109.0" y="-13.0"/>
      <point x="256.0" y="12.0"/>
      <point x="256.0" y="12.0" type="curve"/>
      <point x="256.0" y="80.0" type="line"/>
      <point x="213.0" y="95.0" type="line"/>
      <point x="213.0" y="622.0" type="line" smooth="yes"/>
      <point x="213.0" y="630.0"/>
      <point x="180.0" y="665.0"/>
      <point x="173.0" y="665.0" type="curve" smooth="yes"/>
      <point x="155.0" y="665.0"/>
      <point x="-4.0" y="642.0"/>
      <point x="-4.0" y="642.0" type="curve"/>
      <point x="-4.0" y="573.0" type="line"/>
      <point x="40.0" y="558.0" type="line"/>
      <point x="40.0" y="31.0" type="line" smooth="yes"/>
      <point x="40.0" y="22.0"/>
      <point x="83.0" y="-13.0"/>
    </contour>
  </outline>
</glyph>
<glyph name="m" format="2">
  <advance width="752.0"/>
  <unicode hex="006D"/>
  <outline>
    <contour>
      <point x="106.0" y="-13.0" type="curve" smooth="yes"/>
      <point x="122.0" y="-13.0"/>
      <point x="265.0" y="12.0"/>
      <point x="265.0" y="12.0" type="curve"/>
      <point x="265.0" y="80.0" type="line"/>
      <point x="227.0" y="95.0" type="line"/>
      <point x="227.0" y="340.0" type="line"/>
      <point x="227.0" y="340.0"/>
      <point x="259.0" y="359.0"/>
      <point x="263.0" y="359.0" type="curve" smooth="yes"/>
      <point x="272.0" y="359.0"/>
      <point x="291.0" y="355.0"/>
      <point x="291.0" y="330.0" type="curve" smooth="yes"/>
      <point x="291.0" y="31.0" type="line" smooth="yes"/>
      <point x="291.0" y="22.0"/>
      <point x="335.0" y="-13.0"/>
      <point x="344.0" y="-13.0" type="curve" smooth="yes"/>
      <point x="359.0" y="-13.0"/>
      <point x="502.0" y="12.0"/>
      <point x="502.0" y="12.0" type="curve"/>
      <point x="502.0" y="80.0" type="line"/>
      <point x="464.0" y="95.0" type="line"/>
      <point x="464.0" y="340.0" type="line"/>
      <point x="464.0" y="340.0"/>
      <point x="496.0" y="359.0"/>
      <point x="500.0" y="359.0" type="curve" smooth="yes"/>
      <point x="509.0" y="359.0"/>
      <point x="528.0" y="355.0"/>
      <point x="528.0" y="330.0" type="curve" smooth="yes"/>
      <point x="528.0" y="31.0" type="line" smooth="yes"/>
      <point x="528.0" y="22.0"/>
      <point x="572.0" y="-13.0"/>
      <point x="581.0" y="-13.0" type="curve" smooth="yes"/>
      <point x="596.0" y="-13.0"/>
      <point x="744.0" y="12.0"/>
      <point x="744.0" y="12.0" type="curve"/>
      <point x="744.0" y="80.0" type="line"/>
      <point x="701.0" y="95.0" type="line"/>
      <point x="701.0" y="332.0" type="line" smooth="yes"/>
      <point x="701.0" y="442.0"/>
      <point x="642.0" y="475.0"/>
      <point x="529.0" y="475.0" type="curve" smooth="yes"/>
      <point x="521.0" y="475.0"/>
      <point x="477.0" y="437.0"/>
      <point x="449.0" y="413.0" type="curve"/>
      <point x="425.0" y="458.0"/>
      <point x="373.0" y="475.0"/>
      <point x="304.0" y="475.0" type="curve" smooth="yes"/>
      <point x="296.0" y="475.0"/>
      <point x="248.0" y="437.0"/>
      <point x="220.0" y="413.0" type="curve"/>
      <point x="220.0" y="432.0" type="line" smooth="yes"/>
      <point x="220.0" y="440.0"/>
      <point x="187.0" y="475.0"/>
      <point x="180.0" y="475.0" type="curve" smooth="yes"/>
      <point x="162.0" y="475.0"/>
      <point x="10.0" y="452.0"/>
      <point x="10.0" y="452.0" type="curve"/>
      <point x="10.0" y="383.0" type="line"/>
      <point x="54.0" y="368.0" type="line"/>
      <point x="54.0" y="31.0" type="line" smooth="yes"/>
      <point x="54.0" y="22.0"/>
      <point x="97.0" y="-13.0"/>
    </contour>
  </outline>
</glyph>
<glyph name="n" format="2">
  <advance width="523.0"/>
  <unicode hex="006E"/>
  <anchor x="276.0" y="0.0" name="bottom"/>
  <anchor x="256.0" y="462.0" name="top"/>
  <anchor x="-47.0" y="462.0" name="topleft"/>
  <outline>
    <contour>
      <point x="106.0" y="-13.0" type="curve" smooth="yes"/>
      <point x="123.0" y="-13.0"/>
      <point x="270.0" y="12.0"/>
      <point x="270.0" y="12.0" type="curve"/>
      <point x="270.0" y="80.0" type="line"/>
      <point x="227.0" y="95.0" type="line"/>
      <point x="227.0" y="341.0" type="line"/>
      <point x="246.0" y="350.0"/>
      <point x="268.0" y="360.0"/>
      <point x="271.0" y="360.0" type="curve" smooth="yes"/>
      <point x="280.0" y="360.0"/>
      <point x="299.0" y="356.0"/>
      <point x="299.0" y="331.0" type="curve" smooth="yes"/>
      <point x="299.0" y="31.0" type="line" smooth="yes"/>
      <point x="299.0" y="22.0"/>
      <point x="343.0" y="-13.0"/>
      <point x="352.0" y="-13.0" type="curve" smooth="yes"/>
      <point x="367.0" y="-13.0"/>
      <point x="515.0" y="12.0"/>
      <point x="515.0" y="12.0" type="curve"/>
      <point x="515.0" y="80.0" type="line"/>
      <point x="472.0" y="95.0" type="line"/>
      <point x="472.0" y="333.0" type="line" smooth="yes"/>
      <point x="472.0" y="443.0"/>
      <point x="413.0" y="476.0"/>
      <point x="312.0" y="476.0" type="curve" smooth="yes"/>
      <point x="304.0" y="476.0"/>
      <point x="250.0" y="438.0"/>
      <point x="220.0" y="414.0" type="curve"/>
      <point x="220.0" y="433.0" type="line" smooth="yes"/>
      <point x="220.0" y="441.0"/>
      <point x="187.0" y="476.0"/>
      <point x="180.0" y="476.0" type="curve" smooth="yes"/>
      <point x="162.0" y="476.0"/>
      <point x="10.0" y="453.0"/>
      <point x="10.0" y="453.0" type="curve"/>
      <point x="10.0" y="384.0" type="line"/>
      <point x="54.0" y="369.0" type="line"/>
      <point x="54.0" y="31.0" type="line" smooth="yes"/>
      <point x="54.0" y="22.0"/>
      <point x="97.0" y="-13.0"/>
    </contour>
  </outline>
</glyph>
<glyph name="o" format="2">
  <advance width="511.0"/>
  <unicode hex="006F"/>
  <anchor x="256.0" y="0.0" name="bottom"/>
  <anchor x="254.0" y="231.0" name="center"/>
  <anchor x="260.0" y="0.0" name="ogonek"/>
  <anchor x="261.0" y="462.0" name="top"/>
  <anchor x="348.0" y="462.0" name="topright"/>
  <outline>
    <contour>
      <point x="270.0" y="-13.0" type="curve" smooth="yes"/>
      <point x="302.0" y="-13.0"/>
      <point x="436.0" y="67.0"/>
      <point x="464.0" y="99.0" type="curve"/>
      <point x="477.0" y="130.0"/>
      <point x="491.0" y="189.0"/>
      <point x="491.0" y="255.0" type="curve" smooth="yes"/>
      <point x="491.0" y="396.0"/>
      <point x="408.0" y="476.0"/>
      <point x="246.0" y="476.0" type="curve" smooth="yes"/>
      <point x="214.0" y="476.0"/>
      <point x="75.0" y="392.0"/>
      <point x="47.0" y="360.0" type="curve"/>
      <point x="34.0" y="329.0"/>
      <point x="20.0" y="264.0"/>
      <point x="20.0" y="207.0" type="curve" smooth="yes"/>
      <point x="20.0" y="56.0"/>
      <point x="112.0" y="-13.0"/>
    </contour>
    <contour>
      <point x="269.0" y="69.0" type="curve"/>
      <point x="239.0" y="69.0"/>
      <point x="205.0" y="101.0"/>
      <point x="205.0" y="222.0" type="curve" smooth="yes"/>
      <point x="205.0" y="322.0"/>
      <point x="214.0" y="390.0"/>
      <point x="227.0" y="394.0" type="curve" smooth="yes"/>
      <point x="233.0" y="396.0"/>
      <point x="238.0" y="396.0"/>
      <point x="243.0" y="396.0" type="curve" smooth="yes"/>
      <point x="295.0" y="396.0"/>
      <point x="306.0" y="314.0"/>
      <point x="306.0" y="240.0" type="curve" smooth="yes"/>
      <point x="306.0" y="159.0"/>
      <point x="301.0" y="111.0"/>
      <point x="297.0" y="81.0" type="curve"/>
      <point x="297.0" y="81.0"/>
      <point x="273.0" y="70.0"/>
    </contour>
  </outline>
</glyph>
<glyph name="q" format="2">
  <advance width="499.0"/>
  <unicode hex="0071"/>
  <outline>
    <contour>
      <point x="322.0" y="-186.0" type="curve" smooth="yes"/>
      <point x="340.0" y="-186.0"/>
      <point x="499.0" y="-163.0"/>
      <point x="499.0" y="-163.0" type="curve"/>
      <point x="499.0" y="-94.0" type="line"/>
      <point x="455.0" y="-79.0" type="line"/>
      <point x="455.0" y="436.0" type="line"/>
      <point x="455.0" y="436.0"/>
      <point x="258.0" y="477.0"/>
      <point x="242.0" y="477.0" type="curve" smooth="yes"/>
      <point x="210.0" y="477.0"/>
      <point x="75.0" y="395.0"/>
      <point x="47.0" y="364.0" type="curve"/>
      <point x="34.0" y="331.0"/>
      <point x="20.0" y="266.0"/>
      <point x="20.0" y="205.0" type="curve" smooth="yes"/>
      <point x="20.0" y="75.0"/>
      <point x="82.0" y="-13.0"/>
      <point x="201.0" y="-13.0" type="curve" smooth="yes"/>
      <point x="206.0" y="-13.0"/>
      <point x="258.0" y="27.0"/>
      <point x="284.0" y="47.0" type="curve"/>
      <point x="291.0" y="45.0" type="line"/>
      <point x="282.0" y="-143.0" type="line" smooth="yes"/>
      <point x="282.0" y="-151.0"/>
      <point x="315.0" y="-186.0"/>
    </contour>
    <contour>
      <point x="238.0" y="103.0" type="curve" smooth="yes"/>
      <point x="215.0" y="103.0"/>
      <point x="205.0" y="163.0"/>
      <point x="205.0" y="220.0" type="curve" smooth="yes"/>
      <point x="205.0" y="326.0"/>
      <point x="212.0" y="388.0"/>
      <point x="226.0" y="399.0" type="curve" smooth="yes"/>
      <point x="234.0" y="405.0"/>
      <point x="265.0" y="378.0"/>
      <point x="282.0" y="363.0" type="curve"/>
      <point x="282.0" y="124.0" type="line"/>
      <point x="282.0" y="124.0"/>
      <point x="244.0" y="103.0"/>
    </contour>
  </outline>
</glyph>
<glyph name="r" format="2">
  <advance width="393.0"/>
  <unicode hex="0072"/>
  <anchor x="190.0" y="-10.0" name="bottom"/>
  <anchor x="195.0" y="462.0" name="top"/>
  <outline>
    <contour>
      <point x="106.0" y="-13.0" type="curve" smooth="yes"/>
      <point x="126.0" y="-13.0"/>
      <point x="300.0" y="16.0"/>
      <point x="300.0" y="16.0" type="curve"/>
      <point x="300.0" y="88.0" type="line"/>
      <point x="227.0" y="109.0" type="line"/>
      <point x="227.0" y="307.0" type="line"/>
      <point x="227.0" y="307.0"/>
      <point x="269.0" y="320.0"/>
      <point x="276.0" y="320.0" type="curve" smooth="yes"/>
      <point x="293.0" y="320.0"/>
      <point x="343.0" y="291.0"/>
      <point x="343.0" y="291.0" type="curve" smooth="yes"/>
      <point x="350.0" y="291.0"/>
      <point x="398.0" y="389.0"/>
      <point x="398.0" y="412.0" type="curve" smooth="yes"/>
      <point x="398.0" y="433.0"/>
      <point x="385.0" y="460.0"/>
      <point x="383.0" y="467.0" type="curve"/>
      <point x="370.0" y="471.0"/>
      <point x="338.0" y="480.0"/>
      <point x="307.0" y="480.0" type="curve" smooth="yes"/>
      <point x="300.0" y="480.0"/>
      <point x="249.0" y="421.0"/>
      <point x="220.0" y="385.0" type="curve"/>
      <point x="220.0" y="433.0" type="line" smooth="yes"/>
      <point x="220.0" y="441.0"/>
      <point x="187.0" y="476.0"/>
      <point x="180.0" y="476.0" type="curve" smooth="yes"/>
      <point x="162.0" y="476.0"/>
      <point x="10.0" y="453.0"/>
      <point x="10.0" y="453.0" type="curve"/>
      <point x="10.0" y="384.0" type="line"/>
      <point x="54.0" y="369.0" type="line"/>
      <point x="54.0" y="31.0" type="line" smooth="yes"/>
      <point x="54.0" y="22.0"/>
      <point x="97.0" y="-13.0"/>
    </contour>
  </outline>
</glyph>
<glyph name="s" format="2">
  <advance width="402.0"/>
  <unicode hex="0073"/>
  <anchor x="197.0" y="0.0" name="bottom"/>
  <anchor x="199.0" y="462.0" name="top"/>
  <outline>
    <contour>
      <point x="246.0" y="-13.0" type="curve" smooth="yes"/>
      <point x="284.0" y="-13.0"/>
      <point x="361.0" y="66.0"/>
      <point x="383.0" y="102.0" type="curve"/>
      <point x="390.0" y="119.0"/>
      <point x="392.0" y="146.0"/>
      <point x="392.0" y="165.0" type="curve" smooth="yes"/>
      <point x="392.0" y="232.0"/>
      <point x="306.0" y="276.0"/>
      <point x="244.0" y="311.0" type="curve" smooth="yes"/>
      <point x="218.0" y="325.0"/>
      <point x="160.0" y="354.0"/>
      <point x="160.0" y="378.0" type="curve" smooth="yes"/>
      <point x="160.0" y="379.0"/>
      <point x="161.0" y="395.0"/>
      <point x="170.0" y="395.0" type="curve" smooth="yes"/>
      <point x="183.0" y="395.0"/>
      <point x="256.0" y="379.0"/>
      <point x="267.0" y="375.0" type="curve"/>
      <point x="273.0" y="319.0" type="line"/>
      <point x="362.0" y="319.0" type="line"/>
      <point x="365.0" y="468.0" type="line"/>
      <point x="321.0" y="473.0"/>
      <point x="200.0" y="476.0"/>
      <point x="162.0" y="476.0" type="curve" smooth="yes"/>
      <point x="133.0" y="476.0"/>
      <point x="53.0" y="415.0"/>
      <point x="26.0" y="381.0" type="curve"/>
      <point x="20.0" y="365.0"/>
      <point x="18.0" y="345.0"/>
      <point x="18.0" y="327.0" type="curve" smooth="yes"/>
      <point x="18.0" y="276.0"/>
      <point x="35.0" y="238.0"/>
      <point x="134.0" y="181.0" type="curve" smooth="yes"/>
      <point x="192.0" y="147.0"/>
      <point x="238.0" y="137.0"/>
      <point x="238.0" y="102.0" type="curve" smooth="yes"/>
      <point x="238.0" y="101.0"/>
      <point x="235.0" y="68.0"/>
      <point x="225.0" y="68.0" type="curve" smooth="yes"/>
      <point x="205.0" y="68.0"/>
      <point x="151.0" y="82.0"/>
      <point x="119.0" y="93.0" type="curve"/>
      <point x="98.0" y="174.0" type="line"/>
      <point x="18.0" y="174.0" type="line"/>
      <point x="15.0" y="0.0" type="line"/>
      <point x="75.0" y="-6.0"/>
      <point x="213.0" y="-13.0"/>
    </contour>
  </outline>
</glyph>
<glyph name="t" format="2">
  <advance width="363.0"/>
  <unicode hex="0074"/>
  <anchor x="228.0" y="0.0" name="bottom"/>
  <anchor x="171.0" y="243.0" name="center"/>
  <anchor x="246.0" y="462.0" name="topright"/>
  <outline>
    <contour>
      <point x="155.0" y="-13.0" type="curve" smooth="yes"/>
      <point x="174.0" y="-13.0"/>
      <point x="289.0" y="-2.0"/>
      <point x="359.0" y="7.0" type="curve"/>
      <point x="359.0" y="90.0" type="line"/>
      <point x="266.0" y="96.0" type="line" smooth="yes"/>
      <point x="254.0" y="97.0"/>
      <point x="244.0" y="103.0"/>
      <point x="244.0" y="129.0" type="curve" smooth="yes"/>
      <point x="244.0" y="375.0" type="line"/>
      <point x="347.0" y="375.0" type="line"/>
      <point x="347.0" y="462.0" type="line"/>
      <point x="244.0" y="462.0" type="line"/>
      <point x="244.0" y="579.0" type="line"/>
      <point x="244.0" y="579.0"/>
      <point x="189.0" y="600.0"/>
      <point x="181.0" y="594.0" type="curve" smooth="yes"/>
      <point x="71.0" y="467.0" type="line"/>
      <point x="-4.0" y="442.0" type="line"/>
      <point x="-4.0" y="376.0" type="line"/>
      <point x="71.0" y="376.0" type="line"/>
      <point x="71.0" y="88.0" type="line" smooth="yes"/>
      <point x="71.0" y="55.0"/>
      <point x="134.0" y="-13.0"/>
    </contour>
  </outline>
</glyph>
<glyph name="u" format="2">
  <advance width="525.0"/>
  <unicode hex="0075"/>
  <anchor x="262.0" y="0.0" name="bottom"/>
  <anchor x="465.0" y="10.0" name="ogonek"/>
  <anchor x="245.0" y="462.0" name="top"/>
  <anchor x="372.0" y="462.0" name="topright"/>
  <outline>
    <contour>
      <point x="213.0" y="-13.0" type="curve" smooth="yes"/>
      <point x="221.0" y="-13.0"/>
      <point x="275.0" y="25.0"/>
      <point x="305.0" y="49.0" type="curve"/>
      <point x="305.0" y="30.0" type="line" smooth="yes"/>
      <point x="305.0" y="22.0"/>
      <point x="338.0" y="-13.0"/>
      <point x="345.0" y="-13.0" type="curve" smooth="yes"/>
      <point x="363.0" y="-13.0"/>
      <point x="515.0" y="10.0"/>
      <point x="515.0" y="10.0" type="curve"/>
      <point x="515.0" y="79.0" type="line"/>
      <point x="471.0" y="94.0" type="line"/>
      <point x="471.0" y="432.0" type="line" smooth="yes"/>
      <point x="471.0" y="441.0"/>
      <point x="428.0" y="476.0"/>
      <point x="419.0" y="476.0" type="curve" smooth="yes"/>
      <point x="402.0" y="476.0"/>
      <point x="255.0" y="451.0"/>
      <point x="255.0" y="451.0" type="curve"/>
      <point x="255.0" y="383.0" type="line"/>
      <point x="298.0" y="368.0" type="line"/>
      <point x="298.0" y="122.0" type="line"/>
      <point x="298.0" y="122.0"/>
      <point x="260.0" y="103.0"/>
      <point x="254.0" y="103.0" type="curve" smooth="yes"/>
      <point x="245.0" y="103.0"/>
      <point x="226.0" y="107.0"/>
      <point x="226.0" y="132.0" type="curve" smooth="yes"/>
      <point x="226.0" y="432.0" type="line" smooth="yes"/>
      <point x="226.0" y="441.0"/>
      <point x="182.0" y="476.0"/>
      <point x="173.0" y="476.0" type="curve" smooth="yes"/>
      <point x="158.0" y="476.0"/>
      <point x="10.0" y="451.0"/>
      <point x="10.0" y="451.0" type="curve"/>
      <point x="10.0" y="383.0" type="line"/>
      <point x="53.0" y="368.0" type="line"/>
      <point x="53.0" y="130.0" type="line" smooth="yes"/>
      <point x="53.0" y="20.0"/>
      <point x="112.0" y="-13.0"/>
    </contour>
  </outline>
</glyph>
<glyph name="v" format="2">
  <advance width="471.0"/>
  <unicode hex="0076"/>
  <outline>
    <contour>
      <point x="163.0" y="-13.0" type="curve" smooth="yes"/>
      <point x="172.0" y="-13.0"/>
      <point x="345.0" y="6.0"/>
      <point x="345.0" y="6.0" type="curve"/>
      <point x="476.0" y="425.0" type="line"/>
      <point x="476.0" y="435.0"/>
      <point x="451.0" y="476.0"/>
      <point x="443.0" y="476.0" type="curve" smooth="yes"/>
      <point x="433.0" y="476.0"/>
      <point x="254.0" y="462.0"/>
      <point x="254.0" y="462.0" type="curve"/>
      <point x="254.0" y="389.0" type="line"/>
      <point x="320.0" y="380.0" type="line"/>
      <point x="265.0" y="134.0" type="line"/>
      <point x="255.0" y="134.0" type="line"/>
      <point x="248.0" y="219.0" type="line"/>
      <point x="211.0" y="437.0" type="line"/>
      <point x="208.0" y="447.0"/>
      <point x="169.0" y="476.0"/>
      <point x="162.0" y="476.0" type="curve" smooth="yes"/>
      <point x="151.0" y="476.0"/>
      <point x="0.0" y="452.0"/>
      <point x="0.0" y="452.0" type="curve"/>
      <point x="0.0" y="383.0" type="line"/>
      <point x="47.0" y="369.0" type="line"/>
      <point x="139.0" y="0.0" type="line"/>
      <point x="139.0" y="0.0"/>
      <point x="160.0" y="-13.0"/>
    </contour>
  </outline>
</glyph>
<glyph name="w" format="2">
  <advance width="727.0"/>
  <unicode hex="0077"/>
  <anchor x="367.0" y="462.0" name="top"/>
  <outline>
    <contour>
      <point x="143.0" y="-13.0" type="curve" smooth="yes"/>
      <point x="152.0" y="-13.0"/>
      <point x="313.0" y="6.0"/>
      <point x="313.0" y="6.0" type="curve"/>
      <point x="368.0" y="159.0" type="line"/>
      <point x="377.0" y="159.0" type="line"/>
      <point x="426.0" y="0.0" type="line"/>
      <point x="426.0" y="0.0"/>
      <point x="446.0" y="-13.0"/>
      <point x="450.0" y="-13.0" type="curve" smooth="yes"/>
      <point x="459.0" y="-13.0"/>
      <point x="620.0" y="6.0"/>
      <point x="620.0" y="6.0" type="curve"/>
      <point x="720.0" y="425.0" type="line"/>
      <point x="720.0" y="435.0"/>
      <point x="694.0" y="476.0"/>
      <point x="686.0" y="476.0" type="curve" smooth="yes"/>
      <point x="676.0" y="476.0"/>
      <point x="508.0" y="462.0"/>
      <point x="508.0" y="462.0" type="curve"/>
      <point x="508.0" y="389.0" type="line"/>
      <point x="576.0" y="380.0" type="line"/>
      <point x="537.0" y="146.0" type="line"/>
      <point x="527.0" y="146.0" type="line"/>
      <point x="511.0" y="219.0" type="line"/>
      <point x="465.0" y="437.0" type="line"/>
      <point x="462.0" y="447.0"/>
      <point x="422.0" y="476.0"/>
      <point x="415.0" y="476.0" type="curve" smooth="yes"/>
      <point x="404.0" y="476.0"/>
      <point x="255.0" y="452.0"/>
      <point x="255.0" y="452.0" type="curve"/>
      <point x="255.0" y="383.0" type="line"/>
      <point x="305.0" y="369.0" type="line"/>
      <point x="329.0" y="306.0" type="line"/>
      <point x="262.0" y="146.0" type="line"/>
      <point x="252.0" y="146.0" type="line"/>
      <point x="241.0" y="219.0" type="line"/>
      <point x="208.0" y="437.0" type="line"/>
      <point x="205.0" y="447.0"/>
      <point x="165.0" y="476.0"/>
      <point x="158.0" y="476.0" type="curve" smooth="yes"/>
      <point x="147.0" y="476.0"/>
      <point x="-2.0" y="452.0"/>
      <point x="-2.0" y="452.0" type="curve"/>
      <point x="-2.0" y="383.0" type="line"/>
      <point x="45.0" y="369.0" type="line"/>
      <point x="119.0" y="0.0" type="line"/>
      <point x="119.0" y="0.0"/>
      <point x="140.0" y="-13.0"/>
    </contour>
  </outline>
</glyph>
<glyph name="x" format="2">
  <advance width="501.0"/>
  <unicode hex="0078"/>
  <outline>
    <contour>
      <point x="29.0" y="-13.0" type="curve" smooth="yes"/>
      <point x="43.0" y="-13.0"/>
      <point x="225.0" y="0.0"/>
      <point x="225.0" y="0.0" type="curve"/>
      <point x="225.0" y="74.0" type="line"/>
      <point x="174.0" y="82.0" type="line"/>
      <point x="216.0" y="162.0" type="line"/>
      <point x="291.0" y="23.0" type="line" smooth="yes"/>
      <point x="296.0" y="13.0"/>
      <point x="320.0" y="-13.0"/>
      <point x="331.0" y="-13.0" type="curve" smooth="yes"/>
      <point x="341.0" y="-13.0"/>
      <point x="496.0" y="10.0"/>
      <point x="496.0" y="10.0" type="curve"/>
      <point x="496.0" y="83.0" type="line"/>
      <point x="446.0" y="94.0" type="line"/>
      <point x="355.0" y="236.0" type="line"/>
      <point x="491.0" y="417.0" type="line"/>
      <point x="491.0" y="427.0"/>
      <point x="479.0" y="476.0"/>
      <point x="473.0" y="476.0" type="curve" smooth="yes"/>
      <point x="461.0" y="476.0"/>
      <point x="286.0" y="462.0"/>
      <point x="286.0" y="462.0" type="curve"/>
      <point x="286.0" y="392.0" type="line"/>
      <point x="329.0" y="385.0" type="line"/>
      <point x="295.0" y="310.0" type="line"/>
      <point x="225.0" y="440.0" type="line" smooth="yes"/>
      <point x="219.0" y="451.0"/>
      <point x="197.0" y="476.0"/>
      <point x="187.0" y="476.0" type="curve" smooth="yes"/>
      <point x="177.0" y="476.0"/>
      <point x="22.0" y="453.0"/>
      <point x="22.0" y="453.0" type="curve"/>
      <point x="22.0" y="380.0" type="line"/>
      <point x="69.0" y="369.0" type="line"/>
      <point x="154.0" y="238.0" type="line"/>
      <point x="10.0" y="44.0" type="line"/>
      <point x="10.0" y="34.0"/>
      <point x="23.0" y="-13.0"/>
    </contour>
  </outline>
</glyph>
<glyph name="y" format="2">
  <advance width="471.0"/>
  <unicode hex="0079"/>
  <anchor x="492.0" y="44.0" name="bottom"/>
  <anchor x="250.0" y="462.0" name="top"/>
  <outline>
    <contour>
      <point x="214.0" y="-186.0" type="curve" smooth="yes"/>
      <point x="232.0" y="-186.0"/>
      <point x="380.0" y="-166.0"/>
      <point x="380.0" y="-166.0" type="curve"/>
      <point x="382.0" y="-103.0" type="line"/>
      <point x="327.0" y="-85.0" type="line"/>
      <point x="347.0" y="20.0" type="line"/>
      <point x="476.0" y="425.0" type="line"/>
      <point x="478.0" y="435.0"/>
      <point x="451.0" y="476.0"/>
      <point x="443.0" y="476.0" type="curve" smooth="yes"/>
      <point x="433.0" y="476.0"/>
      <point x="256.0" y="462.0"/>
      <point x="256.0" y="462.0" type="curve"/>
      <point x="256.0" y="389.0" type="line"/>
      <point x="322.0" y="380.0" type="line"/>
      <point x="265.0" y="124.0" type="line"/>
      <point x="255.0" y="124.0" type="line"/>
      <point x="250.0" y="219.0" type="line"/>
      <point x="213.0" y="437.0" type="line"/>
      <point x="210.0" y="447.0"/>
      <point x="169.0" y="476.0"/>
      <point x="162.0" y="476.0" type="curve" smooth="yes"/>
      <point x="151.0" y="476.0"/>
      <point x="2.0" y="452.0"/>
      <point x="2.0" y="452.0" type="curve"/>
      <point x="2.0" y="383.0" type="line"/>
      <point x="47.0" y="369.0" type="line"/>
      <point x="141.0" y="9.0" type="line"/>
      <point x="141.0" y="9.0"/>
      <point x="162.0" y="-4.0"/>
      <point x="165.0" y="-4.0" type="curve" smooth="yes"/>
      <point x="168.0" y="-4.0"/>
      <point x="191.0" y="-1.0"/>
      <point x="219.0" y="2.0" type="curve"/>
      <point x="176.0" y="-119.0" type="line" smooth="yes"/>
      <point x="174.0" y="-127.0"/>
      <point x="207.0" y="-186.0"/>
    </contour>
  </outline>
</glyph>
<glyph name="z" format="2">
  <advance width="423.0"/>
  <unicode hex="007A"/>
  <anchor x="220.0" y="0.0" name="bottom"/>
  <anchor x="205.0" y="462.0" name="top"/>
  <outline>
    <contour>
      <point x="32.0" y="0.0" type="curve"/>
      <point x="410.0" y="0.0" type="line"/>
      <point x="406.0" y="169.0" type="line"/>
      <point x="322.0" y="169.0" type="line"/>
      <point x="307.0" y="81.0" type="line"/>
      <point x="224.0" y="88.0" type="line"/>
      <point x="224.0" y="102.0" type="line"/>
      <point x="283.0" y="207.0"/>
      <point x="340.0" y="308.0"/>
      <point x="398.0" y="415.0" type="curve"/>
      <point x="393.0" y="429.0"/>
      <point x="377.0" y="453.0"/>
      <point x="369.0" y="462.0" type="curve"/>
      <point x="13.0" y="462.0" type="line"/>
      <point x="23.0" y="316.0" type="line"/>
      <point x="105.0" y="316.0" type="line"/>
      <point x="116.0" y="385.0" type="line"/>
      <point x="187.0" y="378.0" type="line"/>
      <point x="190.0" y="366.0" type="line"/>
      <point x="125.0" y="249.0"/>
      <point x="67.0" y="155.0"/>
      <point x="3.0" y="48.0" type="curve"/>
      <point x="6.0" y="40.0"/>
      <point x="23.0" y="10.0"/>
    </contour>
  </outline>
</glyph>
<glyph name="braceleft" format="2">
  <advance width="345.0"/>
  <unicode hex="007B"/>
  <outline>
    <contour>
      <point x="315.0" y="-123.0" type="line"/>
      <point x="321.0" y="-39.0" type="line"/>
      <point x="247.0" y="-21.0" type="line"/>
      <point x="247.0" y="229.0" type="line"/>
      <point x="170.0" y="284.0" type="line"/>
      <point x="247.0" y="339.0" type="line"/>
      <point x="247.0" y="599.0" type="line"/>
      <point x="321.0" y="616.0" type="line"/>
      <point x="314.0" y="691.0" type="line"/>
      <point x="95.0" y="680.0" type="line"/>
      <point x="95.0" y="405.0" type="line"/>
      <point x="23.0" y="339.0" type="line"/>
      <point x="23.0" y="229.0" type="line"/>
      <point x="95.0" y="163.0" type="line"/>
      <point x="95.0" y="-111.0" type="line"/>
    </contour>
  </outline>
</glyph>
<glyph name="bar" format="2">
  <advance width="249.0"/>
  <unicode hex="007C"/>
  <outline>
    <contour>
      <point x="60.0" y="-180.0" type="line"/>
      <point x="189.0" y="-180.0" type="line"/>
      <point x="189.0" y="679.0" type="line"/>
      <point x="60.0" y="679.0" type="line"/>
    </contour>
  </outline>
</glyph>
<glyph name="braceright" format="2">
  <advance width="345.0"/>
  <unicode hex="007D"/>
  <outline>
    <contour>
      <point x="31.0" y="-123.0" type="line"/>
      <point x="250.0" y="-112.0" type="line"/>
      <point x="250.0" y="163.0" type="line"/>
      <point x="322.0" y="229.0" type="line"/>
      <point x="322.0" y="339.0" type="line"/>
      <point x="250.0" y="405.0" type="line"/>
      <point x="250.0" y="679.0" type="line"/>
      <point x="30.0" y="691.0" type="line"/>
      <point x="24.0" y="607.0" type="line"/>
      <point x="98.0" y="589.0" type="line"/>
      <point x="98.0" y="339.0" type="line"/>
      <point x="175.0" y="284.0" type="line"/>
      <point x="98.0" y="229.0" type="line"/>
      <point x="98.0" y="-31.0" type="line"/>
      <point x="24.0" y="-48.0" type="line"/>
    </contour>
  </outline>
</glyph>
<glyph name="asciitilde" format="2">
  <advance width="609.0"/>
  <unicode hex="007E"/>
  <outline>
    <contour>
      <point x="406.0" y="246.0" type="curve" smooth="yes"/>
      <point x="434.0" y="246.0"/>
      <point x="502.0" y="306.0"/>
      <point x="534.0" y="347.0" type="curve"/>
      <point x="484.0" y="410.0" type="line"/>
      <point x="461.0" y="392.0"/>
      <point x="441.0" y="375.0"/>
      <point x="417.0" y="375.0" type="curve" smooth="yes"/>
      <point x="378.0" y="375.0"/>
      <point x="282.0" y="414.0"/>
      <point x="203.0" y="414.0" type="curve" smooth="yes"/>
      <point x="175.0" y="414.0"/>
      <point x="107.0" y="354.0"/>
      <point x="75.0" y="313.0" type="curve"/>
      <point x="125.0" y="250.0" type="line"/>
      <point x="148.0" y="268.0"/>
      <point x="168.0" y="285.0"/>
      <point x="192.0" y="285.0" type="curve" smooth="yes"/>
      <point x="231.0" y="285.0"/>
      <point x="327.0" y="246.0"/>
    </contour>
  </outline>
</glyph>
<glyph name="exclamdown" format="2">
  <advance width="324.0"/>
  <unicode hex="00A1"/>
  <outline>
    <contour>
      <point x="104.0" y="-196.0" type="curve" smooth="yes"/>
      <point x="123.0" y="-196.0"/>
      <point x="198.0" y="-182.0"/>
      <point x="252.0" y="-172.0" type="curve"/>
      <point x="224.0" y="252.0" type="line" smooth="yes"/>
      <point x="224.0" y="257.0"/>
      <point x="203.0" y="271.0"/>
      <point x="197.0" y="271.0" type="curve" smooth="yes"/>
      <point x="179.0" y="271.0"/>
      <point x="133.0" y="263.0"/>
      <point x="102.0" y="258.0" type="curve"/>
      <point x="72.0" y="-166.0" type="line" smooth="yes"/>
      <point x="72.0" y="-172.0"/>
      <point x="97.0" y="-196.0"/>
    </contour>
    <contour>
      <point x="88.0" y="334.0" type="line"/>
      <point x="234.0" y="334.0" type="line"/>
      <point x="244.0" y="436.0" type="line" smooth="yes"/>
      <point x="245.0" y="445.0"/>
      <point x="219.0" y="471.0"/>
      <point x="209.0" y="471.0" type="curve" smooth="yes"/>
      <point x="163.0" y="471.0"/>
      <point x="125.0" y="467.0"/>
      <point x="79.0" y="461.0" type="curve"/>
    </contour>
  </outline>
</glyph>
<glyph name="cent" format="2">
  <advance width="425.0"/>
  <unicode hex="00A2"/>
  <anchor x="228.0" y="41.0" name="bottom"/>
  <anchor x="225.0" y="503.0" name="top"/>
  <outline>
    <contour>
      <point x="172.0" y="460.0" type="line"/>
      <point x="278.0" y="460.0" type="line"/>
      <point x="279.0" y="602.0" type="line"/>
      <point x="172.0" y="602.0" type="line"/>
    </contour>
    <contour>
      <point x="173.0" y="-62.0" type="line"/>
      <point x="280.0" y="-62.0" type="line"/>
      <point x="280.0" y="55.0" type="line"/>
      <point x="173.0" y="55.0" type="line"/>
    </contour>
    <component base="c" xOffset="20.0" yOffset="41.0"/>
  </outline>
</glyph>
<glyph name="sterling" format="2">
  <advance width="589.0"/>
  <unicode hex="00A3"/>
  <outline>
    <contour>
      <point x="67.0" y="-15.0" type="line"/>
      <point x="89.0" y="-12.0"/>
      <point x="174.0" y="0.0"/>
      <point x="227.0" y="0.0" type="curve" smooth="yes"/>
      <point x="549.0" y="0.0" type="line"/>
      <point x="539.0" y="205.0" type="line"/>
      <point x="452.0" y="205.0" type="line"/>
      <point x="438.138" y="86.593" type="line"/>
      <point x="256.0" y="105.0" type="line"/>
      <point x="282.0" y="140.0"/>
      <point x="304.0" y="175.0"/>
      <point x="300.0" y="289.0" type="curve" smooth="yes"/>
      <point x="295.0" y="431.0"/>
      <point x="294.0" y="476.0"/>
      <point x="327.0" y="476.0" type="curve" smooth="yes"/>
      <point x="337.0" y="476.0"/>
      <point x="386.0" y="466.0"/>
      <point x="441.0" y="455.0" type="curve"/>
      <point x="445.0" y="356.0" type="line"/>
      <point x="531.0" y="356.0" type="line"/>
      <point x="546.0" y="553.0" type="line"/>
      <point x="450.0" y="565.0"/>
      <point x="375.0" y="575.0"/>
      <point x="315.0" y="575.0" type="curve" smooth="yes"/>
      <point x="168.0" y="575.0"/>
      <point x="118.0" y="517.0"/>
      <point x="119.0" y="288.0" type="curve" smooth="yes"/>
      <point x="120.0" y="119.0"/>
      <point x="123.0" y="89.0"/>
      <point x="48.0" y="69.0" type="curve"/>
    </contour>
    <contour>
      <point x="51.0" y="233.0" type="line"/>
      <point x="400.0" y="233.0" type="line"/>
      <point x="409.0" y="320.0" type="line"/>
      <point x="58.0" y="320.0" type="line"/>
    </contour>
  </outline>
</glyph>
<glyph name="currency" format="2">
  <advance width="714.0"/>
  <unicode hex="00A4"/>
  <outline>
    <contour>
      <point x="139.0" y="87.0" type="line"/>
      <point x="211.507" y="163.917" type="line"/>
      <point x="249.471" y="135.507"/>
      <point x="298.262" y="119.0"/>
      <point x="356.0" y="119.0" type="curve" smooth="yes"/>
      <point x="411.375" y="119.0"/>
      <point x="460.752" y="136.545"/>
      <point x="500.473" y="166.059" type="curve"/>
      <point x="575.0" y="87.0" type="line"/>
      <point x="639.0" y="152.0" type="line"/>
      <point x="562.055" y="232.968" type="line"/>
      <point x="587.586" y="273.689"/>
      <point x="602.0" y="322.375"/>
      <point x="602.0" y="374.0" type="curve" smooth="yes"/>
      <point x="602.0" y="423.643"/>
      <point x="589.609" y="469.688"/>
      <point x="566.917" y="508.148" type="curve"/>
      <point x="639.0" y="584.0" type="line"/>
      <point x="575.0" y="649.0" type="line"/>
      <point x="505.862" y="575.658" type="line"/>
      <point x="468.182" y="603.018"/>
      <point x="420.757" y="619.0"/>
      <point x="366.0" y="619.0" type="curve" smooth="yes"/>
      <point x="307.486" y="619.0"/>
      <point x="255.907" y="600.011"/>
      <point x="215.288" y="568.073" type="curve"/>
      <point x="139.0" y="649.0" type="line"/>
      <point x="75.0" y="584.0" type="line"/>
      <point x="155.615" y="499.169" type="line"/>
      <point x="132.756" y="459.893"/>
      <point x="120.0" y="413.51"/>
      <point x="120.0" y="364.0" type="curve" smooth="yes"/>
      <point x="120.0" y="315.324"/>
      <point x="131.073" y="270.504"/>
      <point x="151.859" y="232.877" type="curve"/>
      <point x="75.0" y="152.0" type="line"/>
    </contour>
    <contour>
      <point x="360.0" y="250.0" type="curve" smooth="yes"/>
      <point x="288.0" y="250.0"/>
      <point x="257.0" y="305.0"/>
      <point x="257.0" y="369.0" type="curve" smooth="yes"/>
      <point x="257.0" y="440.0"/>
      <point x="291.0" y="488.0"/>
      <point x="363.0" y="488.0" type="curve" smooth="yes"/>
      <point x="434.0" y="488.0"/>
      <point x="465.0" y="434.0"/>
      <point x="465.0" y="369.0" type="curve" smooth="yes"/>
      <point x="465.0" y="298.0"/>
      <point x="431.0" y="250.0"/>
    </contour>
  </outline>
</glyph>
<glyph name="yen" format="2">
  <advance width="635.0"/>
  <unicode hex="00A5"/>
  <outline>
    <contour>
      <point x="150.0" y="-1.0" type="line"/>
      <point x="489.0" y="-1.0" type="line"/>
      <point x="488.0" y="79.0" type="line"/>
      <point x="409.0" y="93.0" type="line"/>
      <point x="409.0" y="134.0" type="line"/>
      <point x="532.0" y="134.0" type="line"/>
      <point x="540.0" y="221.0" type="line"/>
      <point x="409.0" y="221.0" type="line"/>
      <point x="409.0" y="231.0" type="line"/>
      <point x="423.0" y="257.0" type="line"/>
      <point x="532.0" y="257.0" type="line"/>
      <point x="540.0" y="344.0" type="line"/>
      <point x="470.0" y="344.0" type="line"/>
      <point x="529.0" y="466.0" type="line"/>
      <point x="610.0" y="485.0" type="line"/>
      <point x="610.0" y="557.0" type="line"/>
      <point x="348.0" y="557.0" type="line"/>
      <point x="348.0" y="477.0" type="line"/>
      <point x="395.0" y="465.0" type="line"/>
      <point x="345.0" y="334.0" type="line"/>
      <point x="333.0" y="334.0" type="line"/>
      <point x="285.0" y="470.0" type="line"/>
      <point x="324.0" y="477.0" type="line"/>
      <point x="323.0" y="557.0" type="line"/>
      <point x="25.0" y="557.0" type="line"/>
      <point x="25.0" y="485.0" type="line"/>
      <point x="109.0" y="464.0" type="line"/>
      <point x="164.0" y="344.0" type="line"/>
      <point x="111.0" y="344.0" type="line"/>
      <point x="103.0" y="257.0" type="line"/>
      <point x="207.0" y="257.0" type="line"/>
      <point x="225.0" y="221.0" type="line"/>
      <point x="111.0" y="221.0" type="line"/>
      <point x="103.0" y="134.0" type="line"/>
      <point x="225.0" y="134.0" type="line"/>
      <point x="225.0" y="86.0" type="line"/>
      <point x="149.0" y="71.0" type="line"/>
    </contour>
  </outline>
</glyph>
<glyph name="brokenbar" format="2">
  <advance width="249.0"/>
  <unicode hex="00A6"/>
  <outline>
    <contour>
      <point x="60.0" y="307.0" type="line"/>
      <point x="189.0" y="307.0" type="line"/>
      <point x="189.0" y="679.0" type="line"/>
      <point x="60.0" y="679.0" type="line"/>
    </contour>
    <contour>
      <point x="60.0" y="-181.0" type="line"/>
      <point x="189.0" y="-181.0" type="line"/>
      <point x="189.0" y="185.0" type="line"/>
      <point x="60.0" y="185.0" type="line"/>
    </contour>
  </outline>
</glyph>
<glyph name="section" format="2">
  <advance width="554.0"/>
  <unicode hex="00A7"/>
  <outline>
    <contour>
      <point x="302.0" y="-104.0" type="curve" smooth="yes"/>
      <point x="332.0" y="-104.0"/>
      <point x="425.0" y="-59.0"/>
      <point x="446.0" y="-21.0" type="curve"/>
      <point x="450.0" y="-10.0"/>
      <point x="454.0" y="12.0"/>
      <point x="454.0" y="35.0" type="curve" smooth="yes"/>
      <point x="454.0" y="73.641"/>
      <point x="434.979" y="103.757"/>
      <point x="408.331" y="129.489" type="curve"/>
      <point x="438.198" y="156.081"/>
      <point x="473.65" y="189.522"/>
      <point x="483.0" y="209.0" type="curve"/>
      <point x="488.0" y="223.0"/>
      <point x="492.0" y="243.0"/>
      <point x="492.0" y="262.0" type="curve" smooth="yes"/>
      <point x="492.0" y="327.0"/>
      <point x="421.0" y="375.0"/>
      <point x="357.0" y="418.0" type="curve" smooth="yes"/>
      <point x="305.0" y="452.0"/>
      <point x="258.0" y="483.0"/>
      <point x="258.0" y="515.0" type="curve" smooth="yes"/>
      <point x="258.0" y="530.0"/>
      <point x="276.0" y="548.0"/>
      <point x="285.0" y="548.0" type="curve" smooth="yes"/>
      <point x="298.733" y="548.0"/>
      <point x="340.0" y="536.0"/>
      <point x="373.0" y="526.0" type="curve"/>
      <point x="385.0" y="446.0" type="line"/>
      <point x="459.0" y="446.0" type="line"/>
      <point x="467.0" y="614.0" type="line"/>
      <point x="418.0" y="619.0"/>
      <point x="306.0" y="627.0"/>
      <point x="290.0" y="627.0" type="curve" smooth="yes"/>
      <point x="259.0" y="627.0"/>
      <point x="145.0" y="559.0"/>
      <point x="125.0" y="522.0" type="curve"/>
      <point x="121.0" y="510.0"/>
      <point x="119.0" y="496.0"/>
      <point x="119.0" y="480.0" type="curve" smooth="yes"/>
      <point x="119.0" y="432.975"/>
      <point x="137.446" y="400.307"/>
      <point x="163.217" y="374.738" type="curve"/>
      <point x="126.365" y="350.045"/>
      <point x="99.459" y="325.633"/>
      <point x="82.0" y="305.0" type="curve"/>
      <point x="77.0" y="291.0"/>
      <point x="75.0" y="274.0"/>
      <point x="75.0" y="259.0" type="curve" smooth="yes"/>
      <point x="75.0" y="186.0"/>
      <point x="138.0" y="145.0"/>
      <point x="192.0" y="107.0" type="curve" smooth="yes"/>
      <point x="233.0" y="78.0"/>
      <point x="269.0" y="50.0"/>
      <point x="269.0" y="10.0" type="curve" smooth="yes"/>
      <point x="269.0" y="-6.0"/>
      <point x="260.0" y="-20.0"/>
      <point x="253.0" y="-20.0" type="curve" smooth="yes"/>
      <point x="226.624" y="-20.0"/>
      <point x="203.0" y="-15.0"/>
      <point x="174.0" y="-9.0" type="curve"/>
      <point x="165.0" y="77.0" type="line"/>
      <point x="90.0" y="77.0" type="line"/>
      <point x="78.0" y="-95.0" type="line"/>
      <point x="133.0" y="-100.0"/>
      <point x="258.0" y="-104.0"/>
    </contour>
    <contour>
      <point x="316.88" y="197.687" type="curve"/>
      <point x="276.062" y="225.924"/>
      <point x="242.0" y="253.722"/>
      <point x="242.0" y="291.0" type="curve" smooth="yes"/>
      <point x="242.0" y="298.893"/>
      <point x="243.385" y="307.063"/>
      <point x="247.319" y="314.636" type="curve"/>
      <point x="287.712" y="289.233"/>
      <point x="322.0" y="264.153"/>
      <point x="322.0" y="221.0" type="curve" smooth="yes"/>
      <point x="322.0" y="211.516"/>
      <point x="320.13" y="204.072"/>
    </contour>
  </outline>
</glyph>
<glyph name="dieresis" format="2">
  <advance width="383.0"/>
  <unicode hex="00A8"/>
  <outline>
    <contour>
      <point x="225.0" y="537.0" type="line"/>
      <point x="371.0" y="537.0" type="line"/>
      <point x="383.0" y="641.0" type="line"/>
      <point x="357.0" y="671.0" type="line"/>
      <point x="214.0" y="664.0" type="line"/>
    </contour>
    <contour>
      <point x="11.0" y="537.0" type="line"/>
      <point x="157.0" y="537.0" type="line"/>
      <point x="169.0" y="641.0" type="line"/>
      <point x="143.0" y="671.0" type="line"/>
      <point x="0.0" y="664.0" type="line"/>
    </contour>
  </outline>
</glyph>
<glyph name="copyright" format="2">
  <advance width="876.0"/>
  <unicode hex="00A9"/>
  <outline>
    <contour>
      <point x="433.0" y="49.0" type="curve" smooth="yes"/>
      <point x="692.0" y="49.0"/>
      <point x="806.0" y="225.0"/>
      <point x="806.0" y="431.0" type="curve" smooth="yes"/>
      <point x="806.0" y="637.0"/>
      <point x="702.0" y="813.0"/>
      <point x="443.0" y="813.0" type="curve" smooth="yes"/>
      <point x="184.0" y="813.0"/>
      <point x="70.0" y="637.0"/>
      <point x="70.0" y="431.0" type="curve" smooth="yes"/>
      <point x="70.0" y="225.0"/>
      <point x="174.0" y="49.0"/>
    </contour>
    <contour>
      <point x="419.0" y="256.0" type="curve" smooth="yes"/>
      <point x="443.0" y="256.0"/>
      <point x="492.0" y="262.0"/>
      <point x="537.0" y="273.0" type="curve"/>
      <point x="533.0" y="324.0" type="line"/>
      <point x="454.0" y="318.0" type="line" smooth="yes"/>
      <point x="398.0" y="314.0"/>
      <point x="392.0" y="373.0"/>
      <point x="392.0" y="447.0" type="curve" smooth="yes"/>
      <point x="392.0" y="501.0"/>
      <point x="400.0" y="560.0"/>
      <point x="420.0" y="560.0" type="curve" smooth="yes"/>
      <point x="434.0" y="560.0"/>
      <point x="463.0" y="553.0"/>
      <point x="485.0" y="548.0" type="curve"/>
      <point x="494.0" y="470.0" type="line"/>
      <point x="543.0" y="470.0" type="line"/>
      <point x="548.0" y="613.0" type="line"/>
      <point x="518.0" y="616.0"/>
      <point x="442.0" y="622.0"/>
      <point x="427.0" y="622.0" type="curve" smooth="yes"/>
      <point x="407.0" y="622.0"/>
      <point x="323.0" y="572.0"/>
      <point x="300.0" y="541.0" type="curve"/>
      <point x="291.0" y="511.0"/>
      <point x="286.0" y="472.0"/>
      <point x="286.0" y="428.0" type="curve" smooth="yes"/>
      <point x="286.0" y="335.0"/>
      <point x="322.0" y="256.0"/>
    </contour>
    <contour>
      <point x="438.0" y="149.0" type="curve" smooth="yes"/>
      <point x="256.0" y="149.0"/>
      <point x="180.0" y="282.0"/>
      <point x="180.0" y="433.0" type="curve" smooth="yes"/>
      <point x="180.0" y="582.0"/>
      <point x="255.0" y="713.0"/>
      <point x="438.0" y="713.0" type="curve" smooth="yes"/>
      <point x="620.0" y="713.0"/>
      <point x="698.0" y="580.0"/>
      <point x="698.0" y="429.0" type="curve" smooth="yes"/>
      <point x="698.0" y="280.0"/>
      <point x="622.0" y="149.0"/>
    </contour>
  </outline>
</glyph>
<glyph name="ordfeminine" format="2">
  <advance width="436.0"/>
  <unicode hex="00AA"/>
  <outline>
    <contour>
      <point x="162.0" y="319.0" type="curve" smooth="yes"/>
      <point x="166.0" y="319.0"/>
      <point x="215.0" y="353.0"/>
      <point x="236.0" y="367.0" type="curve"/>
      <point x="236.0" y="351.0" type="line" smooth="yes"/>
      <point x="236.0" y="345.0"/>
      <point x="261.0" y="319.0"/>
      <point x="266.0" y="319.0" type="curve" smooth="yes"/>
      <point x="277.0" y="319.0"/>
      <point x="385.0" y="332.0"/>
      <point x="410.0" y="336.0" type="curve"/>
      <point x="410.0" y="388.0" type="line"/>
      <point x="377.0" y="399.0" type="line"/>
      <point x="377.0" y="661.0" type="line"/>
      <point x="324.0" y="671.0"/>
      <point x="212.0" y="686.0"/>
      <point x="193.0" y="686.0" type="curve" smooth="yes"/>
      <point x="169.0" y="686.0"/>
      <point x="66.0" y="625.0"/>
      <point x="45.0" y="602.0" type="curve"/>
      <point x="36.0" y="577.0"/>
      <point x="26.0" y="528.0"/>
      <point x="26.0" y="483.0" type="curve" smooth="yes"/>
      <point x="26.0" y="385.0"/>
      <point x="73.0" y="319.0"/>
    </contour>
    <contour>
      <point x="202.0" y="410.0" type="curve" smooth="yes"/>
      <point x="184.0" y="410.0"/>
      <point x="181.0" y="451.0"/>
      <point x="181.0" y="494.0" type="curve" smooth="yes"/>
      <point x="181.0" y="573.0"/>
      <point x="187.0" y="626.0"/>
      <point x="193.0" y="626.0" type="curve" smooth="yes"/>
      <point x="200.0" y="626.0"/>
      <point x="222.0" y="609.0"/>
      <point x="231.0" y="601.0" type="curve"/>
      <point x="231.0" y="426.0" type="line"/>
      <point x="221.0" y="420.0"/>
      <point x="206.0" y="410.0"/>
    </contour>
  </outline>
</glyph>
<glyph name="guillemetleft" format="2">
  <advance width="528.0"/>
  <unicode hex="00AB"/>
  <outline>
    <contour>
      <point x="418.0" y="24.0" type="line"/>
      <point x="483.0" y="70.0" type="line"/>
      <point x="416.0" y="221.0" type="line"/>
      <point x="416.0" y="239.0" type="line"/>
      <point x="483.0" y="390.0" type="line"/>
      <point x="418.0" y="436.0" type="line"/>
      <point x="257.0" y="280.0" type="line"/>
      <point x="257.0" y="180.0" type="line"/>
    </contour>
    <contour>
      <point x="186.0" y="24.0" type="line"/>
      <point x="251.0" y="70.0" type="line"/>
      <point x="184.0" y="221.0" type="line"/>
      <point x="184.0" y="239.0" type="line"/>
      <point x="251.0" y="390.0" type="line"/>
      <point x="186.0" y="436.0" type="line"/>
      <point x="25.0" y="280.0" type="line"/>
      <point x="25.0" y="180.0" type="line"/>
    </contour>
  </outline>
</glyph>
<glyph name="logicalnot" format="2">
  <advance width="463.0"/>
  <unicode hex="00AC"/>
  <outline>
    <contour>
      <point x="10.0" y="226.0" type="line"/>
      <point x="443.0" y="226.0" type="line"/>
      <point x="443.0" y="344.0" type="line"/>
      <point x="10.0" y="344.0" type="line"/>
    </contour>
    <contour>
      <point x="320.0" y="118.0" type="line"/>
      <point x="443.0" y="118.0" type="line"/>
      <point x="443.0" y="344.0" type="line"/>
      <point x="320.0" y="344.0" type="line"/>
    </contour>
  </outline>
</glyph>
<glyph name="registered" format="2">
  <advance width="698.0"/>
  <unicode hex="00AE"/>
  <outline>
    <contour>
      <point x="345.0" y="213.0" type="curve" smooth="yes"/>
      <point x="548.0" y="213.0"/>
      <point x="638.0" y="351.0"/>
      <point x="638.0" y="513.0" type="curve" smooth="yes"/>
      <point x="638.0" y="675.0"/>
      <point x="557.0" y="813.0"/>
      <point x="353.0" y="813.0" type="curve" smooth="yes"/>
      <point x="150.0" y="813.0"/>
      <point x="60.0" y="675.0"/>
      <point x="60.0" y="513.0" type="curve" smooth="yes"/>
      <point x="60.0" y="351.0"/>
      <point x="141.0" y="213.0"/>
    </contour>
    <contour>
      <point x="349.0" y="302.0" type="curve" smooth="yes"/>
      <point x="212.0" y="302.0"/>
      <point x="156.0" y="402.0"/>
      <point x="156.0" y="514.0" type="curve" smooth="yes"/>
      <point x="156.0" y="626.0"/>
      <point x="211.0" y="724.0"/>
      <point x="349.0" y="724.0" type="curve" smooth="yes"/>
      <point x="485.0" y="724.0"/>
      <point x="544.0" y="624.0"/>
      <point x="544.0" y="512.0" type="curve" smooth="yes"/>
      <point x="544.0" y="400.0"/>
      <point x="486.0" y="302.0"/>
    </contour>
    <contour>
      <point x="228.0" y="381.0" type="line"/>
      <point x="351.0" y="381.0" type="line"/>
      <point x="350.0" y="412.0" type="line"/>
      <point x="328.0" y="415.0" type="line"/>
      <point x="328.0" y="485.0" type="line"/>
      <point x="350.0" y="485.0" type="line"/>
      <point x="400.0" y="381.0" type="line"/>
      <point x="487.0" y="381.0" type="line"/>
      <point x="485.0" y="412.0" type="line"/>
      <point x="459.0" y="421.0" type="line"/>
      <point x="420.0" y="488.0" type="line"/>
      <point x="420.0" y="496.0" type="line"/>
      <point x="443.0" y="511.0"/>
      <point x="459.0" y="541.0"/>
      <point x="459.0" y="579.0" type="curve" smooth="yes"/>
      <point x="459.0" y="634.0"/>
      <point x="430.0" y="657.0"/>
      <point x="375.0" y="657.0" type="curve" smooth="yes"/>
      <point x="228.0" y="657.0" type="line"/>
      <point x="228.0" y="626.0" type="line"/>
      <point x="253.0" y="620.0" type="line"/>
      <point x="253.0" y="414.0" type="line"/>
      <point x="228.0" y="411.0" type="line"/>
    </contour>
    <contour>
      <point x="328.0" y="529.0" type="line"/>
      <point x="328.0" y="618.0" type="line"/>
      <point x="356.0" y="620.0" type="line"/>
      <point x="376.0" y="620.0"/>
      <point x="382.0" y="605.0"/>
      <point x="382.0" y="574.0" type="curve" smooth="yes"/>
      <point x="382.0" y="545.0"/>
      <point x="370.0" y="529.0"/>
      <point x="345.0" y="529.0" type="curve" smooth="yes"/>
    </contour>
  </outline>
</glyph>
<glyph name="macron" format="2">
  <advance width="314.0"/>
  <unicode hex="00AF"/>
  <outline>
    <contour>
      <point x="0.0" y="547.0" type="line"/>
      <point x="314.0" y="547.0" type="line"/>
      <point x="314.0" y="652.0" type="line"/>
      <point x="0.0" y="652.0" type="line"/>
    </contour>
  </outline>
</glyph>
<glyph name="degree" format="2">
  <advance width="327.0"/>
  <unicode hex="00B0"/>
  <outline>
    <contour>
      <point x="162.0" y="361.0" type="curve" smooth="yes"/>
      <point x="250.0" y="361.0"/>
      <point x="297.0" y="432.0"/>
      <point x="297.0" y="501.0" type="curve" smooth="yes"/>
      <point x="297.0" y="567.0"/>
      <point x="255.0" y="630.0"/>
      <point x="165.0" y="630.0" type="curve" smooth="yes"/>
      <point x="77.0" y="630.0"/>
      <point x="30.0" y="559.0"/>
      <point x="30.0" y="490.0" type="curve" smooth="yes"/>
      <point x="30.0" y="424.0"/>
      <point x="72.0" y="361.0"/>
    </contour>
    <contour>
      <point x="162.0" y="448.0" type="curve" smooth="yes"/>
      <point x="133.0" y="448.0"/>
      <point x="119.0" y="471.0"/>
      <point x="119.0" y="495.0" type="curve" smooth="yes"/>
      <point x="119.0" y="519.0"/>
      <point x="134.0" y="543.0"/>
      <point x="163.0" y="543.0" type="curve" smooth="yes"/>
      <point x="192.0" y="543.0"/>
      <point x="206.0" y="520.0"/>
      <point x="206.0" y="496.0" type="curve" smooth="yes"/>
      <point x="206.0" y="472.0"/>
      <point x="191.0" y="448.0"/>
    </contour>
  </outline>
</glyph>
<glyph name="plusminus" format="2">
  <advance width="542.0"/>
  <unicode hex="00B1"/>
  <outline>
    <contour>
      <point x="212.0" y="129.0" type="line"/>
      <point x="330.0" y="129.0" type="line"/>
      <point x="331.0" y="540.0" type="line"/>
      <point x="213.0" y="540.0" type="line"/>
    </contour>
    <contour>
      <point x="75.0" y="-27.0" type="line"/>
      <point x="467.0" y="-27.0" type="line"/>
      <point x="467.0" y="83.0" type="line"/>
      <point x="75.0" y="83.0" type="line"/>
    </contour>
    <contour>
      <point x="75.0" y="280.0" type="line"/>
      <point x="467.0" y="280.0" type="line"/>
      <point x="467.0" y="390.0" type="line"/>
      <point x="75.0" y="390.0" type="line"/>
    </contour>
  </outline>
</glyph>
<glyph name="twosuperior" format="2">
  <advance width="439.0"/>
  <unicode hex="00B2"/>
  <outline>
    <contour>
      <point x="53.0" y="363.0" type="line"/>
      <point x="396.0" y="363.0" type="line"/>
      <point x="349.0" y="443.0" type="line"/>
      <point x="271.0" y="443.0" type="line"/>
      <point x="270.0" y="453.0" type="line"/>
      <point x="348.0" y="547.0" type="line" smooth="yes"/>
      <point x="365.0" y="568.0"/>
      <point x="376.0" y="591.0"/>
      <point x="376.0" y="619.0" type="curve" smooth="yes"/>
      <point x="376.0" y="692.0"/>
      <point x="322.0" y="716.0"/>
      <point x="238.0" y="716.0" type="curve" smooth="yes"/>
      <point x="186.0" y="716.0"/>
      <point x="120.0" y="707.0"/>
      <point x="55.0" y="696.0" type="curve"/>
      <point x="100.0" y="600.0" type="line"/>
      <point x="131.0" y="615.0"/>
      <point x="166.0" y="636.0"/>
      <point x="176.0" y="636.0" type="curve" smooth="yes"/>
      <point x="186.0" y="636.0"/>
      <point x="190.0" y="629.0"/>
      <point x="190.0" y="618.0" type="curve" smooth="yes"/>
      <point x="190.0" y="603.0"/>
      <point x="188.0" y="584.0"/>
      <point x="171.0" y="565.0" type="curve" smooth="yes"/>
      <point x="44.0" y="418.0" type="line"/>
    </contour>
    <contour>
      <point x="312.0" y="363.0" type="line"/>
      <point x="396.0" y="363.0" type="line"/>
      <point x="399.0" y="499.0" type="line"/>
      <point x="335.0" y="499.0" type="line"/>
    </contour>
    <contour>
      <point x="60.0" y="552.0" type="line"/>
      <point x="127.0" y="552.0" type="line"/>
      <point x="140.0" y="696.0" type="line"/>
      <point x="55.0" y="696.0" type="line"/>
    </contour>
  </outline>
</glyph>
<glyph name="acute" format="2">
  <advance width="234.0"/>
  <unicode hex="00B4"/>
  <outline>
    <contour>
      <point x="49.0" y="516.0" type="line"/>
      <point x="227.0" y="599.0" type="line"/>
      <point x="234.0" y="653.0" type="line"/>
      <point x="145.0" y="732.0" type="line"/>
      <point x="0.0" y="574.0" type="line"/>
    </contour>
  </outline>
</glyph>
<glyph name="paragraph" format="2">
  <advance width="841.0"/>
  <unicode hex="00B6"/>
  <outline>
    <contour>
      <point x="235.0" y="0.0" type="line"/>
      <point x="450.0" y="0.0" type="line"/>
      <point x="450.0" y="612.0" type="line"/>
      <point x="223.0" y="612.0" type="line" smooth="yes"/>
      <point x="103.0" y="612.0"/>
      <point x="46.0" y="529.0"/>
      <point x="46.0" y="416.0" type="curve" smooth="yes"/>
      <point x="46.0" y="284.0"/>
      <point x="100.0" y="164.0"/>
      <point x="232.0" y="162.0" type="curve" smooth="yes"/>
      <point x="295.0" y="161.0" type="line"/>
      <point x="295.0" y="97.0" type="line"/>
      <point x="235.0" y="72.0" type="line"/>
    </contour>
    <contour>
      <point x="512.0" y="0.0" type="line"/>
      <point x="767.0" y="0.0" type="line"/>
      <point x="767.0" y="74.0" type="line"/>
      <point x="667.0" y="105.0" type="line"/>
      <point x="667.0" y="509.0" type="line"/>
      <point x="767.0" y="526.0" type="line"/>
      <point x="767.0" y="612.0" type="line"/>
      <point x="512.0" y="613.0" type="line"/>
    </contour>
  </outline>
</glyph>
<glyph name="onesuperior" format="2">
  <advance width="437.0"/>
  <unicode hex="00B9"/>
  <outline>
    <contour>
      <point x="155.0" y="363.0" type="line"/>
      <point x="324.0" y="363.0" type="line"/>
      <point x="324.0" y="683.0" type="line"/>
      <point x="155.0" y="687.0" type="line"/>
    </contour>
    <contour>
      <point x="71.0" y="363.0" type="line"/>
      <point x="392.0" y="363.0" type="line"/>
      <point x="392.0" y="427.0" type="line"/>
      <point x="215.0" y="450.0" type="line"/>
      <point x="71.0" y="429.0" type="line"/>
    </contour>
    <contour>
      <point x="66.0" y="603.0" type="line"/>
      <point x="266.0" y="615.0" type="line"/>
      <point x="324.0" y="683.0" type="line"/>
      <point x="246.0" y="721.0" type="line"/>
      <point x="66.0" y="677.0" type="line"/>
    </contour>
  </outline>
</glyph>
<glyph name="ordmasculine" format="2">
  <advance width="425.0"/>
  <unicode hex="00BA"/>
  <outline>
    <contour>
      <point x="227.0" y="317.0" type="curve" smooth="yes"/>
      <point x="252.0" y="317.0"/>
      <point x="358.0" y="378.0"/>
      <point x="379.0" y="402.0" type="curve"/>
      <point x="388.0" y="425.0"/>
      <point x="399.0" y="470.0"/>
      <point x="399.0" y="519.0" type="curve" smooth="yes"/>
      <point x="399.0" y="631.0"/>
      <point x="323.0" y="686.0"/>
      <point x="201.0" y="686.0" type="curve" smooth="yes"/>
      <point x="177.0" y="686.0"/>
      <point x="67.0" y="623.0"/>
      <point x="46.0" y="599.0" type="curve"/>
      <point x="37.0" y="575.0"/>
      <point x="26.0" y="526.0"/>
      <point x="26.0" y="483.0" type="curve" smooth="yes"/>
      <point x="26.0" y="364.0"/>
      <point x="108.0" y="317.0"/>
    </contour>
    <contour>
      <point x="223.0" y="383.0" type="curve"/>
      <point x="200.0" y="383.0"/>
      <point x="181.0" y="403.0"/>
      <point x="181.0" y="495.0" type="curve" smooth="yes"/>
      <point x="181.0" y="570.0"/>
      <point x="189.0" y="623.0"/>
      <point x="196.0" y="623.0" type="curve" smooth="yes"/>
      <point x="200.0" y="623.0"/>
      <point x="217.0" y="620.0"/>
      <point x="223.0" y="615.0" type="curve" smooth="yes"/>
      <point x="238.0" y="603.0"/>
      <point x="244.0" y="574.0"/>
      <point x="244.0" y="508.0" type="curve" smooth="yes"/>
      <point x="244.0" y="454.0"/>
      <point x="242.0" y="415.0"/>
      <point x="239.0" y="392.0" type="curve"/>
      <point x="239.0" y="392.0"/>
      <point x="226.0" y="384.0"/>
    </contour>
  </outline>
</glyph>
<glyph name="guillemetright" format="2">
  <advance width="528.0"/>
  <unicode hex="00BB"/>
  <outline>
    <contour>
      <point x="342.0" y="24.0" type="line"/>
      <point x="503.0" y="180.0" type="line"/>
      <point x="503.0" y="280.0" type="line"/>
      <point x="342.0" y="436.0" type="line"/>
      <point x="277.0" y="390.0" type="line"/>
      <point x="344.0" y="239.0" type="line"/>
      <point x="344.0" y="221.0" type="line"/>
      <point x="277.0" y="70.0" type="line"/>
    </contour>
    <contour>
      <point x="110.0" y="24.0" type="line"/>
      <point x="271.0" y="180.0" type="line"/>
      <point x="271.0" y="280.0" type="line"/>
      <point x="110.0" y="436.0" type="line"/>
      <point x="45.0" y="390.0" type="line"/>
      <point x="112.0" y="239.0" type="line"/>
      <point x="112.0" y="221.0" type="line"/>
      <point x="45.0" y="70.0" type="line"/>
    </contour>
  </outline>
</glyph>
<glyph name="questiondown" format="2">
  <advance width="533.0"/>
  <unicode hex="00BF"/>
  <outline>
    <contour>
      <point x="248.0" y="-206.0" type="curve" smooth="yes"/>
      <point x="311.0" y="-206.0"/>
      <point x="391.0" y="-192.0"/>
      <point x="472.0" y="-172.0" type="curve"/>
      <point x="394.0" y="-81.0" type="line"/>
      <point x="341.0" y="-98.0"/>
      <point x="275.0" y="-117.0"/>
      <point x="258.0" y="-117.0" type="curve" smooth="yes"/>
      <point x="240.0" y="-117.0"/>
      <point x="235.0" y="-93.0"/>
      <point x="235.0" y="-78.0" type="curve" smooth="yes"/>
      <point x="235.0" y="-49.0"/>
      <point x="252.0" y="-20.0"/>
      <point x="312.0" y="33.0" type="curve" smooth="yes"/>
      <point x="355.0" y="71.0"/>
      <point x="393.0" y="111.0"/>
      <point x="390.0" y="173.0" type="curve" smooth="yes"/>
      <point x="385.0" y="262.0" type="line" smooth="yes"/>
      <point x="385.0" y="267.0"/>
      <point x="364.0" y="281.0"/>
      <point x="358.0" y="281.0" type="curve" smooth="yes"/>
      <point x="340.0" y="281.0"/>
      <point x="294.0" y="273.0"/>
      <point x="263.0" y="268.0" type="curve"/>
      <point x="261.0" y="201.0"/>
      <point x="238.0" y="173.0"/>
      <point x="200.0" y="137.0" type="curve" smooth="yes"/>
      <point x="134.0" y="74.0"/>
      <point x="68.0" y="30.0"/>
      <point x="68.0" y="-57.0" type="curve" smooth="yes"/>
      <point x="68.0" y="-167.0"/>
      <point x="140.0" y="-206.0"/>
    </contour>
    <contour>
      <point x="339.0" y="-172.0" type="line"/>
      <point x="472.0" y="-172.0" type="line"/>
      <point x="466.0" y="19.0" type="line"/>
      <point x="378.0" y="19.0" type="line"/>
    </contour>
    <contour>
      <point x="253.0" y="328.0" type="line"/>
      <point x="394.0" y="328.0" type="line"/>
      <point x="407.0" y="425.0" type="line" smooth="yes"/>
      <point x="408.0" y="434.0"/>
      <point x="377.0" y="464.0"/>
      <point x="367.0" y="464.0" type="curve" smooth="yes"/>
      <point x="319.0" y="464.0"/>
      <point x="288.0" y="462.0"/>
      <point x="244.0" y="457.0" type="curve"/>
    </contour>
  </outline>
</glyph>
<glyph name="AE" format="2">
  <advance width="927.0"/>
  <unicode hex="00C6"/>
  <anchor x="578.0" y="612.0" name="top"/>
  <outline>
    <contour>
      <point x="0.0" y="0.0" type="line"/>
      <point x="287.0" y="0.0" type="line"/>
      <point x="287.0" y="80.0" type="line"/>
      <point x="218.0" y="97.0" type="line"/>
      <point x="259.0" y="171.0" type="line"/>
      <point x="449.0" y="171.0" type="line"/>
      <point x="449.0" y="97.0" type="line"/>
      <point x="389.0" y="72.0" type="line"/>
      <point x="389.0" y="0.0" type="line"/>
      <point x="902.0" y="0.0" type="line"/>
      <point x="898.0" y="199.0" type="line"/>
      <point x="809.0" y="199.0" type="line"/>
      <point x="791.0" y="88.0" type="line"/>
      <point x="640.0" y="104.0" type="line"/>
      <point x="640.0" y="259.0" type="line"/>
      <point x="773.0" y="266.0" type="line"/>
      <point x="773.0" y="360.0" type="line"/>
      <point x="640.0" y="365.0" type="line"/>
      <point x="640.0" y="510.0" type="line"/>
      <point x="782.0" y="524.0" type="line"/>
      <point x="795.0" y="417.0" type="line"/>
      <point x="884.0" y="417.0" type="line"/>
      <point x="897.0" y="612.0" type="line"/>
      <point x="267.0" y="612.0" type="line"/>
      <point x="267.0" y="540.0" type="line"/>
      <point x="327.0" y="515.0" type="line"/>
      <point x="63.0" y="92.0" type="line"/>
      <point x="0.0" y="72.0" type="line"/>
    </contour>
    <contour>
      <point x="312.0" y="266.0" type="line"/>
      <point x="437.0" y="500.0" type="line"/>
      <point x="449.0" y="500.0" type="line"/>
      <point x="449.0" y="266.0" type="line"/>
    </contour>
  </outline>
</glyph>
<glyph name="multiply" format="2">
  <advance width="555.0"/>
  <unicode hex="00D7"/>
  <outline>
    <contour>
      <point x="154.0" y="21.0" type="line"/>
      <point x="70.0" y="110.0" type="line"/>
      <point x="398.0" y="448.0" type="line"/>
      <point x="485.0" y="359.0" type="line"/>
    </contour>
    <contour>
      <point x="401.0" y="21.0" type="line"/>
      <point x="70.0" y="359.0" type="line"/>
      <point x="157.0" y="448.0" type="line"/>
      <point x="485.0" y="110.0" type="line"/>
    </contour>
  </outline>
</glyph>
<glyph name="Thorn" format="2">
  <advance width="581.0"/>
  <unicode hex="00DE"/>
  <outline>
    <contour>
      <point x="20.0" y="0.0" type="line"/>
      <point x="341.0" y="0.0" type="line"/>
      <point x="341.0" y="72.0" type="line"/>
      <point x="276.0" y="97.0" type="line"/>
      <point x="276.0" y="515.0" type="line"/>
      <point x="341.0" y="540.0" type="line"/>
      <point x="341.0" y="612.0" type="line"/>
      <point x="20.0" y="612.0" type="line"/>
      <point x="20.0" y="540.0" type="line"/>
      <point x="85.0" y="515.0" type="line"/>
      <point x="85.0" y="97.0" type="line"/>
      <point x="20.0" y="72.0" type="line"/>
    </contour>
    <contour>
      <point x="163.0" y="138.0" type="line"/>
      <point x="394.0" y="138.0" type="line" smooth="yes"/>
      <point x="493.0" y="138.0"/>
      <point x="576.0" y="190.0"/>
      <point x="576.0" y="325.0" type="curve" smooth="yes"/>
      <point x="576.0" y="447.0"/>
      <point x="522.0" y="499.0"/>
      <point x="423.0" y="499.0" type="curve"/>
      <point x="163.0" y="499.0" type="line"/>
      <point x="163.0" y="378.0" type="line"/>
      <point x="346.0" y="406.0" type="line"/>
      <point x="384.0" y="406.0"/>
      <point x="400.0" y="366.0"/>
      <point x="400.0" y="312.0" type="curve" smooth="yes"/>
      <point x="400.0" y="243.0"/>
      <point x="375.0" y="239.0"/>
      <point x="323.0" y="239.0" type="curve" smooth="yes"/>
      <point x="163.0" y="239.0" type="line"/>
    </contour>
  </outline>
</glyph>
<glyph name="germandbls" format="2">
  <advance width="557.0"/>
  <unicode hex="00DF"/>
  <outline>
    <contour>
      <point x="56.0" y="-186.0" type="curve" smooth="yes"/>
      <point x="89.0" y="-186.0"/>
      <point x="217.0" y="-76.0"/>
      <point x="217.0" y="-16.0" type="curve" smooth="yes"/>
      <point x="217.0" y="516.0" type="line" smooth="yes"/>
      <point x="217.0" y="540.0"/>
      <point x="221.0" y="569.0"/>
      <point x="233.0" y="569.0" type="curve" smooth="yes"/>
      <point x="244.0" y="569.0"/>
      <point x="275.0" y="556.0"/>
      <point x="309.0" y="538.0" type="curve" smooth="yes"/>
      <point x="328.0" y="528.0"/>
      <point x="336.0" y="519.0"/>
      <point x="336.0" y="500.0" type="curve" smooth="yes"/>
      <point x="336.0" y="459.0"/>
      <point x="246.0" y="412.0"/>
      <point x="246.0" y="322.0" type="curve" smooth="yes"/>
      <point x="246.0" y="237.0"/>
      <point x="381.0" y="183.0"/>
      <point x="381.0" y="111.0" type="curve" smooth="yes"/>
      <point x="381.0" y="92.0"/>
      <point x="374.0" y="81.0"/>
      <point x="363.0" y="81.0" type="curve" smooth="yes"/>
      <point x="341.0" y="81.0"/>
      <point x="262.0" y="102.0"/>
      <point x="193.0" y="120.0" type="curve"/>
      <point x="201.0" y="4.0" type="line"/>
      <point x="266.0" y="-2.0"/>
      <point x="391.0" y="-9.0"/>
      <point x="429.0" y="-9.0" type="curve" smooth="yes"/>
      <point x="455.0" y="-9.0"/>
      <point x="539.0" y="59.0"/>
      <point x="553.0" y="92.0" type="curve"/>
      <point x="555.0" y="102.0"/>
      <point x="557.0" y="115.0"/>
      <point x="557.0" y="130.0" type="curve" smooth="yes"/>
      <point x="557.0" y="251.0"/>
      <point x="404.0" y="289.0"/>
      <point x="404.0" y="356.0" type="curve" smooth="yes"/>
      <point x="404.0" y="408.0"/>
      <point x="472.0" y="446.0"/>
      <point x="472.0" y="521.0" type="curve" smooth="yes"/>
      <point x="472.0" y="651.0"/>
      <point x="316.0" y="665.0"/>
      <point x="217.0" y="665.0" type="curve" smooth="yes"/>
      <point x="164.0" y="665.0"/>
      <point x="51.0" y="548.0"/>
      <point x="51.0" y="507.0" type="curve" smooth="yes"/>
      <point x="51.0" y="35.0" type="line" smooth="yes"/>
      <point x="51.0" y="-35.0"/>
      <point x="51.0" y="-63.0"/>
      <point x="40.0" y="-68.0" type="curve" smooth="yes"/>
      <point x="29.0" y="-73.0"/>
      <point x="-19.0" y="-73.0"/>
      <point x="-66.0" y="-73.0" type="curve"/>
      <point x="-66.0" y="-151.0" type="line"/>
      <point x="-28.0" y="-166.0"/>
      <point x="29.0" y="-186.0"/>
    </contour>
  </outline>
</glyph>
<glyph name="ae" format="2">
  <advance width="709.0"/>
  <unicode hex="00E6"/>
  <anchor x="369.0" y="462.0" name="top"/>
  <outline>
    <contour>
      <point x="201.0" y="-13.0" type="curve" smooth="yes"/>
      <point x="206.0" y="-13.0"/>
      <point x="297.0" y="53.0"/>
      <point x="321.0" y="72.0" type="curve"/>
      <point x="314.0" y="144.0" type="line"/>
      <point x="314.0" y="144.0"/>
      <point x="244.0" y="103.0"/>
      <point x="238.0" y="103.0" type="curve" smooth="yes"/>
      <point x="215.0" y="103.0"/>
      <point x="205.0" y="163.0"/>
      <point x="205.0" y="220.0" type="curve" smooth="yes"/>
      <point x="205.0" y="326.0"/>
      <point x="212.0" y="389.0"/>
      <point x="226.0" y="399.0" type="curve" smooth="yes"/>
      <point x="234.0" y="405.0"/>
      <point x="289.0" y="364.0"/>
      <point x="306.0" y="349.0" type="curve"/>
      <point x="455.0" y="443.0" type="line"/>
      <point x="455.0" y="443.0"/>
      <point x="258.0" y="476.0"/>
      <point x="242.0" y="476.0" type="curve" smooth="yes"/>
      <point x="210.0" y="476.0"/>
      <point x="75.0" y="395.0"/>
      <point x="47.0" y="364.0" type="curve"/>
      <point x="34.0" y="331.0"/>
      <point x="20.0" y="266.0"/>
      <point x="20.0" y="205.0" type="curve" smooth="yes"/>
      <point x="20.0" y="75.0"/>
      <point x="82.0" y="-13.0"/>
    </contour>
    <contour>
      <point x="489.0" y="-14.0" type="curve" smooth="yes"/>
      <point x="513.0" y="-14.0"/>
      <point x="646.0" y="32.0"/>
      <point x="677.0" y="44.0" type="curve"/>
      <point x="677.0" y="114.0" type="line"/>
      <point x="639.0" y="112.0"/>
      <point x="517.0" y="106.0"/>
      <point x="517.0" y="106.0" type="curve"/>
      <point x="478.0" y="106.0"/>
      <point x="459.0" y="154.0"/>
      <point x="459.0" y="201.0" type="curve"/>
      <point x="694.0" y="221.0" type="line"/>
      <point x="694.0" y="416.0"/>
      <point x="626.0" y="476.0"/>
      <point x="504.0" y="476.0" type="curve" smooth="yes"/>
      <point x="472.0" y="476.0"/>
      <point x="337.0" y="395.0"/>
      <point x="309.0" y="364.0" type="curve"/>
      <point x="296.0" y="331.0"/>
      <point x="282.0" y="265.0"/>
      <point x="282.0" y="204.0" type="curve" smooth="yes"/>
      <point x="282.0" y="74.0"/>
      <point x="353.0" y="-14.0"/>
    </contour>
    <contour>
      <point x="458.0" y="277.0" type="line"/>
      <point x="462.0" y="352.0"/>
      <point x="474.0" y="402.0"/>
      <point x="481.0" y="402.0" type="curve" smooth="yes"/>
      <point x="483.0" y="402.0"/>
      <point x="502.0" y="400.0"/>
      <point x="508.0" y="397.0" type="curve" smooth="yes"/>
      <point x="522.0" y="388.0"/>
      <point x="532.0" y="342.0"/>
      <point x="532.0" y="288.0" type="curve"/>
    </contour>
  </outline>
</glyph>
<glyph name="eth" format="2">
  <advance width="493.0"/>
  <unicode hex="00F0"/>
  <outline>
    <contour>
      <point x="223.0" y="-9.0" type="curve" smooth="yes"/>
      <point x="362.0" y="-9.0"/>
      <point x="471.0" y="104.0"/>
      <point x="471.0" y="305.0" type="curve" smooth="yes"/>
      <point x="471.0" y="530.0"/>
      <point x="350.0" y="658.0"/>
      <point x="131.0" y="634.0" type="curve"/>
      <point x="153.0" y="560.0" type="line"/>
      <point x="284.0" y="557.0"/>
      <point x="295.0" y="430.0"/>
      <point x="295.0" y="247.0" type="curve" smooth="yes"/>
      <point x="295.0" y="145.0"/>
      <point x="279.0" y="72.0"/>
      <point x="231.0" y="72.0" type="curve" smooth="yes"/>
      <point x="210.0" y="72.0"/>
      <point x="193.0" y="161.0"/>
      <point x="193.0" y="207.0" type="curve" smooth="yes"/>
      <point x="193.0" y="257.0"/>
      <point x="206.0" y="302.0"/>
      <point x="245.0" y="302.0" type="curve" smooth="yes"/>
      <point x="263.0" y="302.0"/>
      <point x="314.0" y="278.0"/>
      <point x="336.0" y="262.0" type="curve"/>
      <point x="334.0" y="341.0" type="line"/>
      <point x="306.0" y="359.0"/>
      <point x="198.0" y="392.0"/>
      <point x="189.0" y="392.0" type="curve" smooth="yes"/>
      <point x="85.0" y="392.0"/>
      <point x="18.0" y="304.0"/>
      <point x="18.0" y="199.0" type="curve" smooth="yes"/>
      <point x="18.0" y="168.0"/>
      <point x="28.0" y="122.0"/>
      <point x="40.0" y="93.0" type="curve"/>
      <point x="59.0" y="64.0"/>
      <point x="203.0" y="-9.0"/>
    </contour>
    <contour>
      <point x="221.0" y="421.0" type="line"/>
      <point x="477.0" y="554.0" type="line"/>
      <point x="475.0" y="582.0" type="line"/>
      <point x="435.0" y="615.0" type="line"/>
      <point x="175.0" y="481.0" type="line"/>
      <point x="178.0" y="452.0" type="line"/>
    </contour>
  </outline>
</glyph>
<glyph name="thorn" format="2">
  <advance width="495.0"/>
  <unicode hex="00FE"/>
  <outline>
    <contour>
      <point x="73.0" y="-186.0" type="curve" smooth="yes"/>
      <point x="92.0" y="-186.0"/>
      <point x="257.0" y="-163.0"/>
      <point x="257.0" y="-163.0" type="curve"/>
      <point x="257.0" y="-94.0" type="line"/>
      <point x="213.0" y="-79.0" type="line"/>
      <point x="213.0" y="-8.0" type="line"/>
      <point x="234.0" y="-11.0"/>
      <point x="249.0" y="-13.0"/>
      <point x="253.0" y="-13.0" type="curve" smooth="yes"/>
      <point x="285.0" y="-13.0"/>
      <point x="420.0" y="68.0"/>
      <point x="448.0" y="99.0" type="curve"/>
      <point x="461.0" y="130.0"/>
      <point x="475.0" y="192.0"/>
      <point x="475.0" y="249.0" type="curve" smooth="yes"/>
      <point x="475.0" y="385.0"/>
      <point x="413.0" y="476.0"/>
      <point x="294.0" y="476.0" type="curve" smooth="yes"/>
      <point x="289.435" y="476.0"/>
      <point x="239.857" y="438.489"/>
      <point x="213.0" y="417.503" type="curve"/>
      <point x="213.0" y="622.0" type="line" smooth="yes"/>
      <point x="213.0" y="630.0"/>
      <point x="180.0" y="665.0"/>
      <point x="173.0" y="665.0" type="curve" smooth="yes"/>
      <point x="155.0" y="665.0"/>
      <point x="-4.0" y="642.0"/>
      <point x="-4.0" y="642.0" type="curve"/>
      <point x="-4.0" y="573.0" type="line"/>
      <point x="40.0" y="558.0" type="line"/>
      <point x="40.0" y="39.0" type="line"/>
      <point x="33.0" y="-143.0" type="line"/>
      <point x="33.0" y="-151.0"/>
      <point x="66.0" y="-186.0"/>
    </contour>
    <contour>
      <point x="270.0" y="65.0" type="curve" smooth="yes"/>
      <point x="262.0" y="57.0"/>
      <point x="233.0" y="82.0"/>
      <point x="213.0" y="100.0" type="curve"/>
      <point x="213.0" y="339.0" type="line"/>
      <point x="226.0" y="346.0"/>
      <point x="253.0" y="360.0"/>
      <point x="257.0" y="360.0" type="curve" smooth="yes"/>
      <point x="280.0" y="360.0"/>
      <point x="290.0" y="296.0"/>
      <point x="290.0" y="234.0" type="curve" smooth="yes"/>
      <point x="290.0" y="134.0"/>
      <point x="282.0" y="77.0"/>
    </contour>
  </outline>
</glyph>
<glyph name="idotless" format="2">
  <advance width="280.0"/>
  <unicode hex="0131"/>
  <anchor x="149.0" y="0.0" name="bottom"/>
  <anchor x="128.0" y="462.0" name="top"/>
  <outline>
    <contour>
      <point x="106.0" y="-13.0" type="curve" smooth="yes"/>
      <point x="123.0" y="-13.0"/>
      <point x="270.0" y="12.0"/>
      <point x="270.0" y="12.0" type="curve"/>
      <point x="270.0" y="80.0" type="line"/>
      <point x="227.0" y="95.0" type="line"/>
      <point x="227.0" y="433.0" type="line" smooth="yes"/>
      <point x="227.0" y="441.0"/>
      <point x="194.0" y="476.0"/>
      <point x="187.0" y="476.0" type="curve" smooth="yes"/>
      <point x="169.0" y="476.0"/>
      <point x="10.0" y="453.0"/>
      <point x="10.0" y="453.0" type="curve"/>
      <point x="10.0" y="384.0" type="line"/>
      <point x="54.0" y="369.0" type="line"/>
      <point x="54.0" y="31.0" type="line" smooth="yes"/>
      <point x="54.0" y="22.0"/>
      <point x="97.0" y="-13.0"/>
    </contour>
  </outline>
</glyph>
<glyph name="kgreenlandic" format="2">
  <advance width="525.0"/>
  <unicode hex="0138"/>
  <outline>
    <contour>
      <point x="374.0" y="-13.0" type="curve" smooth="yes"/>
      <point x="384.0" y="-13.0"/>
      <point x="521.0" y="12.0"/>
      <point x="521.0" y="12.0" type="curve"/>
      <point x="521.0" y="80.0" type="line"/>
      <point x="478.0" y="95.0" type="line"/>
      <point x="382.0" y="242.0" type="line"/>
      <point x="513.0" y="405.0" type="line"/>
      <point x="513.0" y="416.0"/>
      <point x="494.0" y="473.0"/>
      <point x="486.0" y="473.0" type="curve" smooth="yes"/>
      <point x="476.0" y="473.0"/>
      <point x="275.0" y="462.0"/>
      <point x="275.0" y="462.0" type="curve"/>
      <point x="275.0" y="388.0" type="line"/>
      <point x="348.0" y="378.0" type="line"/>
      <point x="244.0" y="247.0" type="line"/>
      <point x="244.0" y="186.0" type="line"/>
      <point x="325.0" y="17.0" type="line"/>
      <point x="331.0" y="8.0"/>
      <point x="366.0" y="-13.0"/>
    </contour>
    <contour>
      <point x="106.0" y="-13.0" type="curve" smooth="yes"/>
      <point x="123.0" y="-13.0"/>
      <point x="266.0" y="12.0"/>
      <point x="266.0" y="12.0" type="curve"/>
      <point x="266.0" y="80.0" type="line"/>
      <point x="227.0" y="95.0" type="line"/>
      <point x="227.0" y="433.0" type="line" smooth="yes"/>
      <point x="227.0" y="441.0"/>
      <point x="194.0" y="476.0"/>
      <point x="187.0" y="476.0" type="curve" smooth="yes"/>
      <point x="169.0" y="476.0"/>
      <point x="10.0" y="453.0"/>
      <point x="10.0" y="453.0" type="curve"/>
      <point x="10.0" y="384.0" type="line"/>
      <point x="54.0" y="369.0" type="line"/>
      <point x="54.0" y="31.0" type="line" smooth="yes"/>
      <point x="54.0" y="22.0"/>
      <point x="97.0" y="-13.0"/>
    </contour>
  </outline>
</glyph>
<glyph name="Eng" format="2">
  <advance width="669.0"/>
  <unicode hex="014A"/>
  <outline>
    <contour>
      <point x="462.0" y="-12.0" type="line"/>
      <point x="599.0" y="28.0" type="line"/>
      <point x="599.0" y="515.0" type="line"/>
      <point x="659.0" y="540.0" type="line"/>
      <point x="659.0" y="612.0" type="line"/>
      <point x="392.0" y="612.0" type="line"/>
      <point x="392.0" y="532.0" type="line"/>
      <point x="461.0" y="507.0" type="line"/>
      <point x="461.0" y="467.0" type="line"/>
      <point x="468.0" y="308.0" type="line"/>
      <point x="458.0" y="308.0" type="line"/>
      <point x="442.0" y="348.0"/>
      <point x="423.0" y="387.0"/>
      <point x="401.0" y="424.0" type="curve" smooth="yes"/>
      <point x="287.0" y="612.0" type="line"/>
      <point x="20.0" y="612.0" type="line"/>
      <point x="20.0" y="540.0" type="line"/>
      <point x="80.0" y="515.0" type="line"/>
      <point x="80.0" y="97.0" type="line"/>
      <point x="20.0" y="72.0" type="line"/>
      <point x="20.0" y="0.0" type="line"/>
      <point x="288.0" y="0.0" type="line"/>
      <point x="288.0" y="80.0" type="line"/>
      <point x="218.0" y="105.0" type="line"/>
      <point x="218.0" y="140.0" type="line"/>
      <point x="209.0" y="355.0" type="line"/>
      <point x="219.0" y="355.0" type="line"/>
      <point x="219.0" y="355.0"/>
      <point x="259.0" y="274.0"/>
      <point x="319.0" y="190.0" type="curve" smooth="yes"/>
    </contour>
    <contour>
      <point x="468.0" y="-183.0" type="curve" smooth="yes"/>
      <point x="507.0" y="-183.0"/>
      <point x="599.0" y="-54.0"/>
      <point x="599.0" y="28.0" type="curve"/>
      <point x="465.0" y="40.0" type="line"/>
      <point x="466.0" y="8.0"/>
      <point x="464.0" y="-65.0"/>
      <point x="433.0" y="-69.0" type="curve" smooth="yes"/>
      <point x="418.0" y="-71.0"/>
      <point x="380.0" y="-72.0"/>
      <point x="320.0" y="-72.0" type="curve"/>
      <point x="322.0" y="-159.0" type="line"/>
      <point x="380.0" y="-171.0"/>
      <point x="440.0" y="-183.0"/>
    </contour>
  </outline>
</glyph>
<glyph name="eng" format="2">
  <advance width="507.0"/>
  <unicode hex="014B"/>
  <outline>
    <contour>
      <point x="331.0" y="-186.0" type="curve" smooth="yes"/>
      <point x="368.0" y="-186.0"/>
      <point x="472.0" y="-87.0"/>
      <point x="472.0" y="-23.0" type="curve" smooth="yes"/>
      <point x="472.0" y="333.0" type="line" smooth="yes"/>
      <point x="472.0" y="443.0"/>
      <point x="413.0" y="476.0"/>
      <point x="312.0" y="476.0" type="curve" smooth="yes"/>
      <point x="304.0" y="476.0"/>
      <point x="250.0" y="438.0"/>
      <point x="220.0" y="414.0" type="curve"/>
      <point x="220.0" y="433.0" type="line" smooth="yes"/>
      <point x="220.0" y="441.0"/>
      <point x="187.0" y="476.0"/>
      <point x="180.0" y="476.0" type="curve" smooth="yes"/>
      <point x="162.0" y="476.0"/>
      <point x="10.0" y="453.0"/>
      <point x="10.0" y="453.0" type="curve"/>
      <point x="10.0" y="384.0" type="line"/>
      <point x="54.0" y="369.0" type="line"/>
      <point x="54.0" y="31.0" type="line" smooth="yes"/>
      <point x="54.0" y="22.0"/>
      <point x="97.0" y="-13.0"/>
      <point x="106.0" y="-13.0" type="curve" smooth="yes"/>
      <point x="123.0" y="-13.0"/>
      <point x="270.0" y="12.0"/>
      <point x="270.0" y="12.0" type="curve"/>
      <point x="270.0" y="80.0" type="line"/>
      <point x="227.0" y="95.0" type="line"/>
      <point x="227.0" y="341.0" type="line"/>
      <point x="246.0" y="350.0"/>
      <point x="268.0" y="360.0"/>
      <point x="271.0" y="360.0" type="curve" smooth="yes"/>
      <point x="280.0" y="360.0"/>
      <point x="299.0" y="356.0"/>
      <point x="299.0" y="331.0" type="curve" smooth="yes"/>
      <point x="299.0" y="12.0" type="line" smooth="yes"/>
      <point x="299.0" y="-14.0"/>
      <point x="296.0" y="-63.0"/>
      <point x="278.0" y="-73.0" type="curve"/>
      <point x="271.0" y="-78.0"/>
      <point x="197.0" y="-84.0"/>
      <point x="178.0" y="-84.0" type="curve"/>
      <point x="178.0" y="-166.0" type="line"/>
      <point x="235.0" y="-176.0"/>
      <point x="306.0" y="-186.0"/>
    </contour>
  </outline>
</glyph>
<glyph name="OE" format="2">
  <advance width="873.0"/>
  <unicode hex="0152"/>
  <outline>
    <contour>
      <point x="318.0" y="0.0" type="curve" smooth="yes"/>
      <point x="507.0" y="0.0" type="line"/>
      <point x="426.0" y="110.0" type="line"/>
      <point x="371.0" y="96.0"/>
      <point x="325.0" y="94.0"/>
      <point x="311.0" y="94.0" type="curve" smooth="yes"/>
      <point x="237.0" y="94.0"/>
      <point x="214.0" y="135.0"/>
      <point x="214.0" y="308.0" type="curve" smooth="yes"/>
      <point x="214.0" y="428.0"/>
      <point x="228.0" y="504.0"/>
      <point x="242.0" y="511.0" type="curve" smooth="yes"/>
      <point x="256.0" y="518.0"/>
      <point x="282.0" y="519.0"/>
      <point x="298.0" y="519.0" type="curve" smooth="yes"/>
      <point x="335.0" y="519.0"/>
      <point x="379.0" y="513.0"/>
      <point x="418.0" y="500.0" type="curve"/>
      <point x="543.0" y="612.0" type="line"/>
      <point x="292.0" y="612.0" type="line" smooth="yes"/>
      <point x="246.0" y="612.0"/>
      <point x="97.0" y="527.0"/>
      <point x="48.0" y="472.0" type="curve"/>
      <point x="32.0" y="429.0"/>
      <point x="15.0" y="374.0"/>
      <point x="15.0" y="287.0" type="curve" smooth="yes"/>
      <point x="15.0" y="77.0"/>
      <point x="117.0" y="0.0"/>
    </contour>
    <contour>
      <point x="395.0" y="0.0" type="line"/>
      <point x="848.0" y="0.0" type="line"/>
      <point x="844.0" y="199.0" type="line"/>
      <point x="755.0" y="199.0" type="line"/>
      <point x="737.0" y="88.0" type="line"/>
      <point x="586.0" y="104.0" type="line"/>
      <point x="586.0" y="259.0" type="line"/>
      <point x="719.0" y="266.0" type="line"/>
      <point x="719.0" y="360.0" type="line"/>
      <point x="586.0" y="365.0" type="line"/>
      <point x="586.0" y="510.0" type="line"/>
      <point x="728.0" y="524.0" type="line"/>
      <point x="741.0" y="417.0" type="line"/>
      <point x="830.0" y="417.0" type="line"/>
      <point x="843.0" y="612.0" type="line"/>
      <point x="395.0" y="612.0" type="line"/>
    </contour>
  </outline>
</glyph>
<glyph name="Schwa" format="2">
  <advance width="620.0"/>
  <unicode hex="018F"/>
  <outline>
    <contour>
      <point x="328.0" y="-13.0" type="curve" smooth="yes"/>
      <point x="372.0" y="-13.0"/>
      <point x="524.0" y="66.0"/>
      <point x="572.0" y="117.0" type="curve"/>
      <point x="588.0" y="162.0"/>
      <point x="605.0" y="233.0"/>
      <point x="605.0" y="324.0" type="curve" smooth="yes"/>
      <point x="605.0" y="536.0"/>
      <point x="503.0" y="625.0"/>
      <point x="302.0" y="625.0" type="curve" smooth="yes"/>
      <point x="261.0" y="625.0"/>
      <point x="137.0" y="612.0"/>
      <point x="56.0" y="602.0" type="curve"/>
      <point x="113.0" y="494.0" type="line"/>
      <point x="198.0" y="513.0"/>
      <point x="272.0" y="532.0"/>
      <point x="321.0" y="532.0" type="curve" smooth="yes"/>
      <point x="379.0" y="532.0"/>
      <point x="405.0" y="480.0"/>
      <point x="405.0" y="305.0" type="curve" smooth="yes"/>
      <point x="405.0" y="203.0"/>
      <point x="400.0" y="143.0"/>
      <point x="394.0" y="100.0" type="curve"/>
      <point x="389.0" y="97.0"/>
      <point x="335.0" y="81.0"/>
      <point x="321.0" y="81.0" type="curve" smooth="yes"/>
      <point x="261.0" y="81.0"/>
      <point x="235.0" y="116.0"/>
      <point x="227.0" y="220.0" type="curve"/>
      <point x="447.0" y="243.0" type="line"/>
      <point x="441.0" y="327.0" type="line"/>
      <point x="25.0" y="291.0" type="line"/>
      <point x="25.0" y="77.0"/>
      <point x="127.0" y="-13.0"/>
    </contour>
    <contour>
      <point x="64.0" y="377.0" type="line"/>
      <point x="157.0" y="377.0" type="line"/>
      <point x="179.0" y="602.0" type="line"/>
      <point x="51.0" y="602.0" type="line"/>
    </contour>
  </outline>
</glyph>
<glyph name="florin" format="2">
  <advance width="537.0"/>
  <unicode hex="0192"/>
  <outline>
    <contour>
      <point x="83.0" y="-186.0" type="curve" smooth="yes"/>
      <point x="126.0" y="-186.0"/>
      <point x="263.0" y="-69.0"/>
      <point x="270.0" y="-28.0" type="curve" smooth="yes"/>
      <point x="366.0" y="520.0" type="line" smooth="yes"/>
      <point x="371.0" y="548.0"/>
      <point x="376.0" y="569.0"/>
      <point x="391.0" y="569.0" type="curve" smooth="yes"/>
      <point x="400.0" y="569.0"/>
      <point x="463.0" y="536.0"/>
      <point x="495.0" y="520.0" type="curve"/>
      <point x="512.0" y="544.0"/>
      <point x="541.0" y="590.0"/>
      <point x="541.0" y="604.0" type="curve" smooth="yes"/>
      <point x="541.0" y="611.0"/>
      <point x="521.0" y="651.0"/>
      <point x="515.0" y="659.0" type="curve"/>
      <point x="490.0" y="662.0"/>
      <point x="393.0" y="665.0"/>
      <point x="384.0" y="665.0" type="curve" smooth="yes"/>
      <point x="341.0" y="665.0"/>
      <point x="204.0" y="548.0"/>
      <point x="197.0" y="507.0" type="curve" smooth="yes"/>
      <point x="101.0" y="-41.0" type="line" smooth="yes"/>
      <point x="96.0" y="-69.0"/>
      <point x="91.0" y="-90.0"/>
      <point x="76.0" y="-90.0" type="curve" smooth="yes"/>
      <point x="67.0" y="-90.0"/>
      <point x="4.0" y="-57.0"/>
      <point x="-28.0" y="-41.0" type="curve"/>
      <point x="-45.0" y="-65.0"/>
      <point x="-74.0" y="-111.0"/>
      <point x="-74.0" y="-125.0" type="curve" smooth="yes"/>
      <point x="-74.0" y="-132.0"/>
      <point x="-54.0" y="-172.0"/>
      <point x="-48.0" y="-180.0" type="curve"/>
      <point x="-23.0" y="-183.0"/>
      <point x="74.0" y="-186.0"/>
    </contour>
    <contour>
      <point x="446.0" y="375.0" type="line"/>
      <point x="462.0" y="462.0" type="line"/>
      <point x="191.0" y="467.0" type="line"/>
      <point x="121.0" y="448.0" type="line"/>
      <point x="109.0" y="376.0" type="line"/>
    </contour>
  </outline>
</glyph>
<glyph name="Nhookleft" format="2">
  <advance width="669.0"/>
  <unicode hex="019D"/>
  <outline>
    <contour>
      <point x="69.0" y="-183.0" type="curve" smooth="yes"/>
      <point x="108.0" y="-183.0"/>
      <point x="224.0" y="-54.0"/>
      <point x="221.0" y="28.0" type="curve" smooth="yes"/>
      <point x="209.43" y="355.0" type="line"/>
      <point x="219.0" y="355.0" type="line"/>
      <point x="224.0" y="338.0"/>
      <point x="244.0" y="278.0"/>
      <point x="289.0" y="193.0" type="curve" smooth="yes"/>
      <point x="392.0" y="0.0" type="line"/>
      <point x="416.0" y="-13.0" type="line"/>
      <point x="424.0" y="-13.0"/>
      <point x="560.0" y="0.0"/>
      <point x="599.0" y="6.0" type="curve"/>
      <point x="599.0" y="515.0" type="line"/>
      <point x="659.0" y="540.0" type="line"/>
      <point x="659.0" y="612.0" type="line"/>
      <point x="392.0" y="612.0" type="line"/>
      <point x="392.0" y="532.0" type="line"/>
      <point x="461.0" y="507.0" type="line"/>
      <point x="461.0" y="476.0" type="line"/>
      <point x="470.0" y="255.0" type="line"/>
      <point x="460.0" y="255.0" type="line" smooth="yes"/>
      <point x="460.0" y="255.0"/>
      <point x="442.0" y="320.0"/>
      <point x="412.0" y="376.0" type="curve" smooth="yes"/>
      <point x="287.0" y="612.0" type="line"/>
      <point x="20.0" y="612.0" type="line"/>
      <point x="20.0" y="540.0" type="line"/>
      <point x="79.0" y="515.417" type="line"/>
      <point x="79.0" y="40.0" type="line" smooth="yes"/>
      <point x="79.0" y="8.0"/>
      <point x="78.0" y="-65.0"/>
      <point x="47.0" y="-69.0" type="curve" smooth="yes"/>
      <point x="32.0" y="-71.0"/>
      <point x="-43.0" y="-72.0"/>
      <point x="-71.0" y="-72.0" type="curve"/>
      <point x="-71.0" y="-159.0" type="line"/>
      <point x="-13.0" y="-171.0"/>
      <point x="41.0" y="-183.0"/>
    </contour>
  </outline>
</glyph>
<glyph name="jdotless" format="2">
  <advance width="265.0"/>
  <unicode hex="0237"/>
  <anchor x="133.0" y="462.0" name="top"/>
  <outline>
    <contour>
      <point x="88.0" y="-186.0" type="curve" smooth="yes"/>
      <point x="125.0" y="-186.0"/>
      <point x="229.0" y="-87.0"/>
      <point x="229.0" y="-23.0" type="curve" smooth="yes"/>
      <point x="229.0" y="433.0" type="line" smooth="yes"/>
      <point x="229.0" y="441.0"/>
      <point x="196.0" y="476.0"/>
      <point x="189.0" y="476.0" type="curve" smooth="yes"/>
      <point x="171.0" y="476.0"/>
      <point x="12.0" y="453.0"/>
      <point x="12.0" y="453.0" type="curve"/>
      <point x="12.0" y="384.0" type="line"/>
      <point x="56.0" y="369.0" type="line"/>
      <point x="56.0" y="12.0" type="line" smooth="yes"/>
      <point x="56.0" y="-14.0"/>
      <point x="53.0" y="-63.0"/>
      <point x="35.0" y="-73.0" type="curve"/>
      <point x="28.0" y="-78.0"/>
      <point x="-46.0" y="-84.0"/>
      <point x="-65.0" y="-84.0" type="curve"/>
      <point x="-65.0" y="-166.0" type="line"/>
      <point x="-8.0" y="-176.0"/>
      <point x="63.0" y="-186.0"/>
    </contour>
  </outline>
</glyph>
<glyph name="schwa" format="2">
  <advance width="452.0"/>
  <unicode hex="0259"/>
  <outline>
    <contour>
      <point x="210.0" y="-14.0" type="curve" smooth="yes"/>
      <point x="242.0" y="-14.0"/>
      <point x="377.0" y="67.0"/>
      <point x="405.0" y="98.0" type="curve"/>
      <point x="418.0" y="131.0"/>
      <point x="432.0" y="197.0"/>
      <point x="432.0" y="258.0" type="curve" smooth="yes"/>
      <point x="432.0" y="388.0"/>
      <point x="361.0" y="476.0"/>
      <point x="225.0" y="476.0" type="curve" smooth="yes"/>
      <point x="201.0" y="476.0"/>
      <point x="68.0" y="430.0"/>
      <point x="37.0" y="418.0" type="curve"/>
      <point x="37.0" y="348.0" type="line"/>
      <point x="75.0" y="350.0"/>
      <point x="197.0" y="356.0"/>
      <point x="197.0" y="356.0" type="curve"/>
      <point x="236.0" y="356.0"/>
      <point x="255.0" y="308.0"/>
      <point x="255.0" y="261.0" type="curve"/>
      <point x="20.0" y="241.0" type="line"/>
      <point x="20.0" y="46.0"/>
      <point x="88.0" y="-14.0"/>
    </contour>
    <contour>
      <point x="206.0" y="65.0" type="curve" smooth="yes"/>
      <point x="192.0" y="74.0"/>
      <point x="182.0" y="120.0"/>
      <point x="182.0" y="174.0" type="curve"/>
      <point x="256.0" y="185.0" type="line"/>
      <point x="252.0" y="110.0"/>
      <point x="240.0" y="60.0"/>
      <point x="233.0" y="60.0" type="curve" smooth="yes"/>
      <point x="231.0" y="60.0"/>
      <point x="212.0" y="62.0"/>
    </contour>
  </outline>
</glyph>
<glyph name="nhookleft" format="2">
  <advance width="525.0"/>
  <unicode hex="0272"/>
  <outline>
    <contour>
      <point x="88.0" y="-186.0" type="curve" smooth="yes"/>
      <point x="125.0" y="-186.0"/>
      <point x="229.0" y="-87.0"/>
      <point x="229.0" y="-23.0" type="curve" smooth="yes"/>
      <point x="229.0" y="341.0" type="line"/>
      <point x="248.0" y="350.0"/>
      <point x="270.0" y="360.0"/>
      <point x="273.0" y="360.0" type="curve" smooth="yes"/>
      <point x="282.0" y="360.0"/>
      <point x="301.0" y="356.0"/>
      <point x="301.0" y="331.0" type="curve" smooth="yes"/>
      <point x="301.0" y="31.0" type="line" smooth="yes"/>
      <point x="301.0" y="22.0"/>
      <point x="345.0" y="-13.0"/>
      <point x="354.0" y="-13.0" type="curve" smooth="yes"/>
      <point x="369.0" y="-13.0"/>
      <point x="517.0" y="12.0"/>
      <point x="517.0" y="12.0" type="curve"/>
      <point x="517.0" y="80.0" type="line"/>
      <point x="474.0" y="95.0" type="line"/>
      <point x="474.0" y="333.0" type="line" smooth="yes"/>
      <point x="474.0" y="443.0"/>
      <point x="415.0" y="476.0"/>
      <point x="314.0" y="476.0" type="curve" smooth="yes"/>
      <point x="306.0" y="476.0"/>
      <point x="252.0" y="438.0"/>
      <point x="222.0" y="414.0" type="curve"/>
      <point x="222.0" y="433.0" type="line" smooth="yes"/>
      <point x="222.0" y="441.0"/>
      <point x="189.0" y="476.0"/>
      <point x="182.0" y="476.0" type="curve" smooth="yes"/>
      <point x="164.0" y="476.0"/>
      <point x="12.0" y="453.0"/>
      <point x="12.0" y="453.0" type="curve"/>
      <point x="12.0" y="384.0" type="line"/>
      <point x="56.0" y="369.0" type="line"/>
      <point x="56.0" y="12.0" type="line" smooth="yes"/>
      <point x="56.0" y="-14.0"/>
      <point x="53.0" y="-63.0"/>
      <point x="35.0" y="-73.0" type="curve"/>
      <point x="28.0" y="-78.0"/>
      <point x="-46.0" y="-84.0"/>
      <point x="-65.0" y="-84.0" type="curve"/>
      <point x="-65.0" y="-166.0" type="line"/>
      <point x="-8.0" y="-176.0"/>
      <point x="63.0" y="-186.0"/>
    </contour>
  </outline>
</glyph>
<glyph name="primemod" format="2">
  <advance width="180.0"/>
  <unicode hex="02B9"/>
  <outline>
    <contour>
      <point x="89.0" y="473.0" type="line"/>
      <point x="120.0" y="531.0"/>
      <point x="153.0" y="596.0"/>
      <point x="180.0" y="657.0" type="curve" smooth="yes"/>
      <point x="184.0" y="666.0"/>
      <point x="155.0" y="712.0"/>
      <point x="144.0" y="712.0" type="curve" smooth="yes"/>
      <point x="102.0" y="712.0"/>
      <point x="81.0" y="711.0"/>
      <point x="38.0" y="703.0" type="curve"/>
      <point x="0.0" y="501.0" type="line"/>
    </contour>
  </outline>
</glyph>
<glyph name="doubleprimemod" format="2">
  <advance width="380.0"/>
  <unicode hex="02BA"/>
  <outline>
    <contour>
      <point x="289.0" y="473.0" type="line"/>
      <point x="320.0" y="531.0"/>
      <point x="353.0" y="596.0"/>
      <point x="380.0" y="657.0" type="curve" smooth="yes"/>
      <point x="384.0" y="666.0"/>
      <point x="355.0" y="712.0"/>
      <point x="344.0" y="712.0" type="curve" smooth="yes"/>
      <point x="302.0" y="712.0"/>
      <point x="281.0" y="711.0"/>
      <point x="238.0" y="703.0" type="curve"/>
      <point x="200.0" y="501.0" type="line"/>
    </contour>
    <contour>
      <point x="89.0" y="473.0" type="line"/>
      <point x="120.0" y="531.0"/>
      <point x="153.0" y="596.0"/>
      <point x="180.0" y="657.0" type="curve" smooth="yes"/>
      <point x="184.0" y="666.0"/>
      <point x="155.0" y="712.0"/>
      <point x="144.0" y="712.0" type="curve" smooth="yes"/>
      <point x="102.0" y="712.0"/>
      <point x="81.0" y="711.0"/>
      <point x="38.0" y="703.0" type="curve"/>
      <point x="0.0" y="501.0" type="line"/>
    </contour>
  </outline>
</glyph>
<glyph name="circumflex" format="2">
  <advance width="346.0"/>
  <unicode hex="02C6"/>
  <outline>
    <contour>
      <point x="65.0" y="519.0" type="line"/>
      <point x="168.0" y="600.0" type="line"/>
      <point x="178.0" y="600.0" type="line"/>
      <point x="281.0" y="519.0" type="line"/>
      <point x="346.0" y="580.0" type="line"/>
      <point x="225.0" y="722.0" type="line"/>
      <point x="121.0" y="722.0" type="line"/>
      <point x="0.0" y="580.0" type="line"/>
    </contour>
  </outline>
</glyph>
<glyph name="caron" format="2">
  <advance width="346.0"/>
  <unicode hex="02C7"/>
  <outline>
    <contour>
      <point x="121.0" y="519.0" type="line"/>
      <point x="225.0" y="519.0" type="line"/>
      <point x="346.0" y="661.0" type="line"/>
      <point x="281.0" y="722.0" type="line"/>
      <point x="178.0" y="641.0" type="line"/>
      <point x="168.0" y="641.0" type="line"/>
      <point x="65.0" y="722.0" type="line"/>
      <point x="0.0" y="661.0" type="line"/>
    </contour>
  </outline>
</glyph>
<glyph name="breve" format="2">
  <advance width="329.0"/>
  <unicode hex="02D8"/>
  <outline>
    <contour>
      <point x="161.0" y="546.0" type="curve" smooth="yes"/>
      <point x="244.0" y="546.0"/>
      <point x="305.0" y="604.0"/>
      <point x="329.0" y="651.0" type="curve"/>
      <point x="279.0" y="701.0" type="line"/>
      <point x="247.0" y="667.0"/>
      <point x="206.0" y="647.0"/>
      <point x="161.0" y="647.0" type="curve" smooth="yes"/>
      <point x="122.0" y="647.0"/>
      <point x="79.0" y="667.0"/>
      <point x="50.0" y="701.0" type="curve"/>
      <point x="0.0" y="651.0" type="line"/>
      <point x="24.0" y="604.0"/>
      <point x="85.0" y="546.0"/>
    </contour>
  </outline>
</glyph>
<glyph name="dotaccent" format="2">
  <advance width="169.0"/>
  <unicode hex="02D9"/>
  <outline>
    <contour>
      <point x="11.0" y="537.0" type="line"/>
      <point x="157.0" y="537.0" type="line"/>
      <point x="169.0" y="641.0" type="line"/>
      <point x="143.0" y="671.0" type="line"/>
      <point x="0.0" y="664.0" type="line"/>
    </contour>
  </outline>
</glyph>
<glyph name="ring" format="2">
  <advance width="226.0"/>
  <unicode hex="02DA"/>
  <outline>
    <contour>
      <point x="113.0" y="510.0" type="curve" smooth="yes"/>
      <point x="185.0" y="510.0"/>
      <point x="226.0" y="552.0"/>
      <point x="226.0" y="623.0" type="curve" smooth="yes"/>
      <point x="226.0" y="706.0"/>
      <point x="185.0" y="738.0"/>
      <point x="113.0" y="738.0" type="curve" smooth="yes"/>
      <point x="40.0" y="738.0"/>
      <point x="0.0" y="696.0"/>
      <point x="0.0" y="625.0" type="curve" smooth="yes"/>
      <point x="0.0" y="542.0"/>
      <point x="41.0" y="510.0"/>
    </contour>
    <contour>
      <point x="113.0" y="590.0" type="curve" smooth="yes"/>
      <point x="98.0" y="590.0"/>
      <point x="90.0" y="598.0"/>
      <point x="90.0" y="623.0" type="curve" smooth="yes"/>
      <point x="90.0" y="633.0"/>
      <point x="91.0" y="644.0"/>
      <point x="94.0" y="652.0" type="curve"/>
      <point x="100.0" y="656.0"/>
      <point x="104.0" y="658.0"/>
      <point x="113.0" y="658.0" type="curve" smooth="yes"/>
      <point x="128.0" y="658.0"/>
      <point x="136.0" y="650.0"/>
      <point x="136.0" y="625.0" type="curve" smooth="yes"/>
      <point x="136.0" y="615.0"/>
      <point x="135.0" y="604.0"/>
      <point x="132.0" y="596.0" type="curve"/>
      <point x="126.0" y="592.0"/>
      <point x="122.0" y="590.0"/>
    </contour>
  </outline>
</glyph>
<glyph name="tilde" format="2">
  <advance width="336.0"/>
  <unicode hex="02DC"/>
  <anchor x="166.0" y="462.0" name="_top"/>
  <outline>
    <contour>
      <point x="235.0" y="531.0" type="curve" smooth="yes"/>
      <point x="259.0" y="531.0"/>
      <point x="321.0" y="601.0"/>
      <point x="336.0" y="623.0" type="curve"/>
      <point x="283.0" y="682.0" type="line"/>
      <point x="269.0" y="669.0"/>
      <point x="245.0" y="648.0"/>
      <point x="230.0" y="648.0" type="curve" smooth="yes"/>
      <point x="208.0" y="648.0"/>
      <point x="151.0" y="693.0"/>
      <point x="101.0" y="693.0" type="curve" smooth="yes"/>
      <point x="77.0" y="693.0"/>
      <point x="15.0" y="623.0"/>
      <point x="0.0" y="601.0" type="curve"/>
      <point x="53.0" y="542.0" type="line"/>
      <point x="67.0" y="555.0"/>
      <point x="91.0" y="576.0"/>
      <point x="106.0" y="576.0" type="curve" smooth="yes"/>
      <point x="128.0" y="576.0"/>
      <point x="185.0" y="531.0"/>
    </contour>
  </outline>
</glyph>
<glyph name="hungarumlaut" format="2">
  <advance width="490.0"/>
  <unicode hex="02DD"/>
  <outline>
    <contour>
      <point x="48.0" y="515.0" type="line"/>
      <point x="228.0" y="597.0" type="line"/>
      <point x="234.0" y="653.0" type="line"/>
      <point x="145.0" y="731.0" type="line"/>
      <point x="0.0" y="573.0" type="line"/>
    </contour>
    <contour>
      <point x="283.0" y="534.0" type="line"/>
      <point x="474.0" y="585.0" type="line"/>
      <point x="490.0" y="638.0" type="line"/>
      <point x="416.0" y="731.0" type="line"/>
      <point x="245.0" y="600.0" type="line"/>
    </contour>
  </outline>
</glyph>
